EncodeNormal-Beta70-900 Black.ufo
<glyph name="exclam" format="1">
  <advance width="324"/>
  <unicode hex="0021"/>
  <outline>
    <contour>
      <point x="162" y="-10" type="curve" smooth="yes"/>
      <point x="229" y="-10"/>
      <point x="268" y="26"/>
      <point x="268" y="90" type="curve" smooth="yes"/>
      <point x="268" y="154"/>
      <point x="229" y="190"/>
      <point x="162" y="190" type="curve" smooth="yes"/>
      <point x="95" y="190"/>
      <point x="56" y="154"/>
      <point x="56" y="90" type="curve" smooth="yes"/>
      <point x="56" y="26"/>
      <point x="95" y="-10"/>
    </contour>
    <contour>
      <point x="96" y="277" type="line"/>
      <point x="229" y="277" type="line"/>
      <point x="229" y="287" type="line"/>
      <point x="271" y="730" type="line"/>
      <point x="271" y="740" type="line"/>
      <point x="53" y="740" type="line"/>
      <point x="53" y="730" type="line"/>
      <point x="96" y="287" type="line"/>
    </contour>
  </outline>
</glyph>
<glyph name="numbersign" format="1">
  <advance width="687"/>
  <unicode hex="0023"/>
  <outline>
    <contour>
      <point x="122" y="0" type="line"/>
      <point x="266" y="0" type="line"/>
      <point x="326" y="740" type="line"/>
      <point x="182" y="740" type="line"/>
    </contour>
    <contour>
      <point x="40" y="171" type="line"/>
      <point x="648" y="171" type="line"/>
      <point x="648" y="302" type="line"/>
      <point x="40" y="302" type="line"/>
    </contour>
    <contour>
      <point x="40" y="433" type="line"/>
      <point x="648" y="433" type="line"/>
      <point x="648" y="567" type="line"/>
      <point x="40" y="567" type="line"/>
    </contour>
    <contour>
      <point x="371" y="0" type="line"/>
      <point x="515" y="0" type="line"/>
      <point x="575" y="740" type="line"/>
      <point x="431" y="740" type="line"/>
    </contour>
  </outline>
</glyph>
<glyph name="dollar" format="1">
  <advance width="678"/>
  <unicode hex="0024"/>
  <outline>
    <contour>
      <point x="242" y="-145" type="line"/>
      <point x="442" y="-145" type="line"/>
      <point x="442" y="99" type="line"/>
      <point x="242" y="98" type="line"/>
    </contour>
    <contour>
      <point x="232" y="663" type="line"/>
      <point x="432" y="670" type="line"/>
      <point x="432" y="885" type="line"/>
      <point x="232" y="885" type="line"/>
    </contour>
    <component base="S" xOffset="3"/>
  </outline>
</glyph>
<glyph name="percent" format="1">
  <advance width="1182"/>
  <unicode hex="0025"/>
  <outline>
    <contour>
      <point x="260" y="277" type="curve" smooth="yes"/>
      <point x="408" y="277"/>
      <point x="493" y="355"/>
      <point x="493" y="513" type="curve" smooth="yes"/>
      <point x="493" y="671"/>
      <point x="408" y="751"/>
      <point x="260" y="751" type="curve" smooth="yes"/>
      <point x="113" y="751"/>
      <point x="27" y="671"/>
      <point x="27" y="513" type="curve" smooth="yes"/>
      <point x="27" y="355"/>
      <point x="112" y="277"/>
    </contour>
    <contour>
      <point x="260" y="408" type="curve" smooth="yes"/>
      <point x="204" y="408"/>
      <point x="182" y="429"/>
      <point x="182" y="513" type="curve" smooth="yes"/>
      <point x="182" y="597"/>
      <point x="204" y="619"/>
      <point x="260" y="619" type="curve" smooth="yes"/>
      <point x="315" y="619"/>
      <point x="337" y="598"/>
      <point x="337" y="513" type="curve" smooth="yes"/>
      <point x="337" y="429"/>
      <point x="315" y="408"/>
    </contour>
    <contour>
      <point x="922" y="-10" type="curve" smooth="yes"/>
      <point x="1070" y="-10"/>
      <point x="1155" y="69"/>
      <point x="1155" y="227" type="curve" smooth="yes"/>
      <point x="1155" y="385"/>
      <point x="1070" y="464"/>
      <point x="922" y="464" type="curve" smooth="yes"/>
      <point x="775" y="464"/>
      <point x="689" y="385"/>
      <point x="689" y="227" type="curve" smooth="yes"/>
      <point x="689" y="69"/>
      <point x="774" y="-10"/>
    </contour>
    <contour>
      <point x="922" y="121" type="curve" smooth="yes"/>
      <point x="866" y="121"/>
      <point x="844" y="143"/>
      <point x="844" y="227" type="curve" smooth="yes"/>
      <point x="844" y="311"/>
      <point x="866" y="333"/>
      <point x="922" y="333" type="curve" smooth="yes"/>
      <point x="977" y="333"/>
      <point x="999" y="311"/>
      <point x="999" y="227" type="curve" smooth="yes"/>
      <point x="999" y="142"/>
      <point x="977" y="121"/>
    </contour>
    <contour>
      <point x="325" y="0" type="line"/>
      <point x="510" y="0" type="line"/>
      <point x="855" y="740" type="line"/>
      <point x="670" y="740" type="line"/>
    </contour>
  </outline>
</glyph>
<glyph name="ampersand" format="1">
  <advance width="825"/>
  <unicode hex="0026"/>
  <outline>
    <contour>
      <point x="744" y="35" type="line"/>
      <point x="754" y="35" type="line"/>
      <point x="833" y="190" type="line"/>
      <point x="833" y="203" type="line"/>
      <point x="511" y="377" type="line" smooth="yes"/>
      <point x="388" y="443"/>
      <point x="327" y="496"/>
      <point x="327" y="538" type="curve" smooth="yes"/>
      <point x="327" y="582"/>
      <point x="357" y="601"/>
      <point x="425" y="601" type="curve" smooth="yes"/>
      <point x="471" y="601"/>
      <point x="539" y="590"/>
      <point x="593" y="573" type="curve"/>
      <point x="602" y="573" type="line"/>
      <point x="623" y="719" type="line"/>
      <point x="620" y="724" type="line"/>
      <point x="544" y="742"/>
      <point x="469" y="752"/>
      <point x="401" y="752" type="curve" smooth="yes"/>
      <point x="216" y="752"/>
      <point x="100" y="677"/>
      <point x="100" y="556" type="curve" smooth="yes"/>
      <point x="100" y="460"/>
      <point x="186" y="374"/>
      <point x="427" y="228" type="curve" smooth="yes"/>
    </contour>
    <contour>
      <point x="367" y="-9" type="curve" smooth="yes"/>
      <point x="602" y="-9"/>
      <point x="747" y="126"/>
      <point x="747" y="344" type="curve" smooth="yes"/>
      <point x="747" y="442" type="line"/>
      <point x="549" y="439" type="line"/>
      <point x="549" y="342" type="line" smooth="yes"/>
      <point x="549" y="203"/>
      <point x="496" y="138"/>
      <point x="383" y="138" type="curve" smooth="yes"/>
      <point x="312" y="138"/>
      <point x="264" y="171"/>
      <point x="264" y="219" type="curve" smooth="yes"/>
      <point x="264" y="262"/>
      <point x="285" y="288"/>
      <point x="327" y="300" type="curve"/>
      <point x="245" y="405" type="line"/>
      <point x="217" y="402" type="line"/>
      <point x="107" y="386"/>
      <point x="36" y="309"/>
      <point x="36" y="206" type="curve" smooth="yes"/>
      <point x="36" y="75"/>
      <point x="165" y="-9"/>
    </contour>
  </outline>
</glyph>
<glyph name="quotesingle" format="1">
  <advance width="244"/>
  <unicode hex="0027"/>
  <outline>
    <contour>
      <point x="48" y="808" type="line"/>
      <point x="48" y="480" type="line"/>
      <point x="167" y="480" type="line"/>
      <point x="219" y="804" type="line"/>
      <point x="219" y="808" type="line"/>
    </contour>
  </outline>
</glyph>
<glyph name="parenleft" format="1">
  <advance width="370"/>
  <unicode hex="0028"/>
  <outline>
    <contour>
      <point x="181" y="-160" type="curve"/>
      <point x="372" y="-160" type="line"/>
      <point x="372" y="-156" type="line"/>
      <point x="270" y="-6"/>
      <point x="201" y="174"/>
      <point x="201" y="354" type="curve" smooth="yes"/>
      <point x="201" y="534"/>
      <point x="270" y="714"/>
      <point x="372" y="864" type="curve"/>
      <point x="372" y="868" type="line"/>
      <point x="181" y="868" type="line"/>
      <point x="79" y="718"/>
      <point x="28" y="536"/>
      <point x="28" y="354" type="curve" smooth="yes"/>
      <point x="28" y="172"/>
      <point x="79" y="-10"/>
    </contour>
  </outline>
</glyph>
<glyph name="parenright" format="1">
  <advance width="370"/>
  <unicode hex="0029"/>
  <outline>
    <contour>
      <point x="189" y="-160" type="line"/>
      <point x="291" y="-10"/>
      <point x="342" y="172"/>
      <point x="342" y="354" type="curve" smooth="yes"/>
      <point x="342" y="536"/>
      <point x="291" y="718"/>
      <point x="189" y="868" type="curve"/>
      <point x="-2" y="868" type="line"/>
      <point x="-2" y="864" type="line"/>
      <point x="100" y="714"/>
      <point x="169" y="534"/>
      <point x="169" y="354" type="curve" smooth="yes"/>
      <point x="169" y="174"/>
      <point x="100" y="-6"/>
      <point x="-2" y="-156" type="curve"/>
      <point x="-2" y="-160" type="line"/>
    </contour>
  </outline>
</glyph>
<glyph name="asterisk" format="1">
  <advance width="504"/>
  <unicode hex="002A"/>
  <outline>
    <contour>
      <point x="245" y="609" type="line"/>
      <point x="260" y="609" type="line"/>
      <point x="269" y="619" type="line"/>
      <point x="311" y="766" type="line"/>
      <point x="311" y="838" type="line"/>
      <point x="193" y="838" type="line"/>
      <point x="193" y="766" type="line"/>
      <point x="234" y="619" type="line"/>
    </contour>
    <contour>
      <point x="247" y="602" type="line"/>
      <point x="258" y="635" type="line"/>
      <point x="131" y="720" type="line"/>
      <point x="62" y="742" type="line"/>
      <point x="26" y="630" type="line"/>
      <point x="94" y="607" type="line"/>
    </contour>
    <contour>
      <point x="170" y="408" type="line"/>
      <point x="213" y="466" type="line"/>
      <point x="265" y="610" type="line"/>
      <point x="237" y="630" type="line"/>
      <point x="117" y="536" type="line"/>
      <point x="74" y="477" type="line"/>
    </contour>
    <contour>
      <point x="333" y="408" type="line"/>
      <point x="429" y="477" type="line"/>
      <point x="386" y="536" type="line"/>
      <point x="266" y="630" type="line"/>
      <point x="238" y="610" type="line"/>
      <point x="290" y="466" type="line"/>
    </contour>
    <contour>
      <point x="477" y="630" type="line"/>
      <point x="441" y="742" type="line"/>
      <point x="372" y="720" type="line"/>
      <point x="245" y="635" type="line"/>
      <point x="256" y="602" type="line"/>
      <point x="409" y="607" type="line"/>
    </contour>
  </outline>
</glyph>
<glyph name="plus" format="1">
  <advance width="529"/>
  <unicode hex="002B"/>
  <outline>
    <contour>
      <point x="28" y="303" type="line"/>
      <point x="502" y="303" type="line"/>
      <point x="502" y="437" type="line"/>
      <point x="28" y="437" type="line"/>
    </contour>
    <contour>
      <point x="198" y="148" type="line"/>
      <point x="332" y="148" type="line"/>
      <point x="332" y="592" type="line"/>
      <point x="198" y="592" type="line"/>
    </contour>
  </outline>
</glyph>
<glyph name="comma" format="1">
  <advance width="314"/>
  <unicode hex="002C"/>
  <outline>
    <contour>
      <point x="182" y="-155" type="line"/>
      <point x="281" y="209" type="line"/>
      <point x="61" y="209" type="line"/>
      <point x="19" y="-145" type="line"/>
    </contour>
  </outline>
</glyph>
<glyph name="period" format="1">
  <advance width="302"/>
  <unicode hex="002E"/>
  <outline>
    <contour>
      <point x="151" y="-10" type="curve" smooth="yes"/>
      <point x="225" y="-10"/>
      <point x="271" y="25"/>
      <point x="271" y="102" type="curve" smooth="yes"/>
      <point x="271" y="179"/>
      <point x="225" y="213"/>
      <point x="151" y="213" type="curve" smooth="yes"/>
      <point x="77" y="213"/>
      <point x="31" y="179"/>
      <point x="31" y="102" type="curve" smooth="yes"/>
      <point x="31" y="25"/>
      <point x="77" y="-10"/>
    </contour>
  </outline>
</glyph>
<glyph name="slash" format="1">
  <advance width="474"/>
  <unicode hex="002F"/>
  <outline>
    <contour>
      <point x="20" y="-120" type="line"/>
      <point x="209" y="-120" type="line"/>
      <point x="454" y="740" type="line"/>
      <point x="266" y="740" type="line"/>
    </contour>
  </outline>
</glyph>
<glyph name="zero" format="1">
  <advance width="753"/>
  <unicode hex="0030"/>
  <outline>
    <contour>
      <point x="377" y="-10" type="curve" smooth="yes"/>
      <point x="593" y="-10"/>
      <point x="717" y="116"/>
      <point x="717" y="369" type="curve" smooth="yes"/>
      <point x="717" y="623"/>
      <point x="593" y="750"/>
      <point x="377" y="750" type="curve" smooth="yes"/>
      <point x="161" y="750"/>
      <point x="36" y="623"/>
      <point x="36" y="369" type="curve" smooth="yes"/>
      <point x="36" y="116"/>
      <point x="161" y="-10"/>
    </contour>
    <contour>
      <point x="377" y="167" type="curve" smooth="yes"/>
      <point x="292" y="167"/>
      <point x="259" y="209"/>
      <point x="259" y="369" type="curve" smooth="yes"/>
      <point x="259" y="531"/>
      <point x="292" y="573"/>
      <point x="377" y="573" type="curve" smooth="yes"/>
      <point x="459" y="573"/>
      <point x="494" y="532"/>
      <point x="494" y="369" type="curve" smooth="yes"/>
      <point x="494" y="208"/>
      <point x="459" y="167"/>
    </contour>
  </outline>
</glyph>
<glyph name="one" format="1">
  <advance width="509"/>
  <unicode hex="0031"/>
  <outline>
    <contour>
      <point x="205" y="0" type="line"/>
      <point x="430" y="0" type="line"/>
      <point x="430" y="740" type="line"/>
      <point x="260" y="740" type="line"/>
      <point x="7" y="610" type="line"/>
      <point x="5" y="601" type="line"/>
      <point x="30" y="473" type="line"/>
      <point x="41" y="473" type="line"/>
      <point x="201" y="506" type="line"/>
      <point x="205" y="506" type="line"/>
    </contour>
  </outline>
</glyph>
<glyph name="two" format="1">
  <advance width="654"/>
  <unicode hex="0032"/>
  <outline>
    <contour>
      <point x="32" y="0" type="line"/>
      <point x="610" y="0" type="line"/>
      <point x="610" y="173" type="line"/>
      <point x="301" y="173" type="line"/>
      <point x="301" y="186" type="line" smooth="yes"/>
      <point x="301" y="210"/>
      <point x="349" y="225"/>
      <point x="427" y="265" type="curve" smooth="yes"/>
      <point x="522" y="313"/>
      <point x="612" y="385"/>
      <point x="612" y="524" type="curve" smooth="yes"/>
      <point x="612" y="676"/>
      <point x="519" y="750"/>
      <point x="314" y="750" type="curve" smooth="yes"/>
      <point x="245" y="750"/>
      <point x="166" y="743"/>
      <point x="54" y="725" type="curve"/>
      <point x="68" y="549" type="line"/>
      <point x="115" y="558"/>
      <point x="194" y="572"/>
      <point x="261" y="572" type="curve" smooth="yes"/>
      <point x="350" y="572"/>
      <point x="388" y="551"/>
      <point x="388" y="500" type="curve" smooth="yes"/>
      <point x="388" y="446"/>
      <point x="339" y="418"/>
      <point x="268" y="388" type="curve" smooth="yes"/>
      <point x="151" y="338"/>
      <point x="32" y="282"/>
      <point x="32" y="114" type="curve" smooth="yes"/>
    </contour>
  </outline>
</glyph>
<glyph name="three" format="1">
  <advance width="627"/>
  <unicode hex="0033"/>
  <outline>
    <contour>
      <point x="258" y="-12" type="curve" smooth="yes"/>
      <point x="476" y="-12"/>
      <point x="592" y="64"/>
      <point x="592" y="207" type="curve" smooth="yes"/>
      <point x="592" y="291"/>
      <point x="534" y="357"/>
      <point x="441" y="377" type="curve"/>
      <point x="441" y="385" type="line"/>
      <point x="525" y="411"/>
      <point x="572" y="469"/>
      <point x="572" y="549" type="curve" smooth="yes"/>
      <point x="572" y="685"/>
      <point x="468" y="750"/>
      <point x="255" y="750" type="curve" smooth="yes"/>
      <point x="203" y="750"/>
      <point x="97" y="741"/>
      <point x="43" y="731" type="curve"/>
      <point x="43" y="564" type="line"/>
      <point x="47" y="564" type="line"/>
      <point x="105" y="573"/>
      <point x="178" y="581"/>
      <point x="220" y="581" type="curve" smooth="yes"/>
      <point x="316" y="581"/>
      <point x="342" y="567"/>
      <point x="342" y="518" type="curve" smooth="yes"/>
      <point x="342" y="463"/>
      <point x="318" y="451"/>
      <point x="200" y="451" type="curve" smooth="yes"/>
      <point x="133" y="451" type="line"/>
      <point x="133" y="299" type="line"/>
      <point x="201" y="299" type="line" smooth="yes"/>
      <point x="333" y="299"/>
      <point x="361" y="285"/>
      <point x="361" y="224" type="curve" smooth="yes"/>
      <point x="361" y="166"/>
      <point x="337" y="152"/>
      <point x="219" y="152" type="curve" smooth="yes"/>
      <point x="169" y="152"/>
      <point x="82" y="161"/>
      <point x="47" y="170" type="curve"/>
      <point x="43" y="170" type="line"/>
      <point x="43" y="4" type="line"/>
      <point x="81" y="-5"/>
      <point x="179" y="-12"/>
    </contour>
  </outline>
</glyph>
<glyph name="four" format="1">
  <advance width="710"/>
  <unicode hex="0034"/>
  <outline>
    <contour>
      <point x="31" y="127" type="line"/>
      <point x="691" y="127" type="line"/>
      <point x="691" y="294" type="line"/>
      <point x="235" y="294" type="line"/>
      <point x="235" y="298" type="line"/>
      <point x="496" y="714" type="line"/>
      <point x="486" y="733" type="line"/>
      <point x="260" y="750" type="line"/>
      <point x="256" y="750" type="line"/>
      <point x="11" y="275" type="line"/>
      <point x="11" y="263" type="line"/>
    </contour>
    <contour>
      <point x="360" y="0" type="line"/>
      <point x="581" y="0" type="line"/>
      <point x="581" y="452" type="line"/>
      <point x="420" y="452" type="line"/>
      <point x="360" y="227" type="line"/>
    </contour>
  </outline>
</glyph>
<glyph name="five" format="1">
  <advance width="620"/>
  <unicode hex="0035"/>
  <outline>
    <contour>
      <point x="248" y="-13" type="curve" smooth="yes"/>
      <point x="421" y="-13"/>
      <point x="594" y="41"/>
      <point x="594" y="228" type="curve" smooth="yes"/>
      <point x="594" y="412"/>
      <point x="466" y="463"/>
      <point x="217" y="463" type="curve"/>
      <point x="236" y="403" type="line"/>
      <point x="250" y="670" type="line"/>
      <point x="166" y="568" type="line"/>
      <point x="546" y="568" type="line"/>
      <point x="546" y="740" type="line"/>
      <point x="80" y="740" type="line"/>
      <point x="49" y="325" type="line"/>
      <point x="69" y="306" type="line"/>
      <point x="145" y="306" type="line" smooth="yes"/>
      <point x="310" y="306"/>
      <point x="360" y="292"/>
      <point x="360" y="237" type="curve" smooth="yes"/>
      <point x="360" y="172"/>
      <point x="314" y="158"/>
      <point x="218" y="158" type="curve" smooth="yes"/>
      <point x="177" y="158"/>
      <point x="137" y="161"/>
      <point x="91" y="170" type="curve"/>
      <point x="43" y="170" type="line"/>
      <point x="43" y="4" type="line"/>
      <point x="115" y="-5"/>
      <point x="183" y="-13"/>
    </contour>
  </outline>
</glyph>
<glyph name="six" format="1">
  <advance width="712"/>
  <unicode hex="0036"/>
  <outline>
    <contour>
      <point x="365" y="-10" type="curve" smooth="yes"/>
      <point x="567" y="-10"/>
      <point x="690" y="90"/>
      <point x="690" y="253" type="curve" smooth="yes"/>
      <point x="690" y="390"/>
      <point x="585" y="478"/>
      <point x="423" y="478" type="curve" smooth="yes"/>
      <point x="325" y="478"/>
      <point x="250" y="442"/>
      <point x="220" y="382" type="curve"/>
      <point x="247" y="288" type="line"/>
      <point x="261" y="316"/>
      <point x="315" y="340"/>
      <point x="365" y="340" type="curve" smooth="yes"/>
      <point x="432" y="340"/>
      <point x="461" y="313"/>
      <point x="461" y="247" type="curve" smooth="yes"/>
      <point x="461" y="179"/>
      <point x="431" y="149"/>
      <point x="365" y="149" type="curve" smooth="yes"/>
      <point x="290" y="149"/>
      <point x="259" y="203"/>
      <point x="259" y="335" type="curve" smooth="yes"/>
      <point x="259" y="524"/>
      <point x="313" y="589"/>
      <point x="475" y="589" type="curve" smooth="yes"/>
      <point x="513" y="589"/>
      <point x="555" y="584"/>
      <point x="615" y="574" type="curve"/>
      <point x="642" y="730" type="line"/>
      <point x="577" y="743"/>
      <point x="519" y="750"/>
      <point x="466" y="750" type="curve" smooth="yes"/>
      <point x="181" y="750"/>
      <point x="36" y="611"/>
      <point x="36" y="336" type="curve" smooth="yes"/>
      <point x="36" y="111"/>
      <point x="155" y="-10"/>
    </contour>
  </outline>
</glyph>
<glyph name="seven" format="1">
  <advance width="586"/>
  <unicode hex="0037"/>
  <outline>
    <contour>
      <point x="279" y="-26" type="line"/>
      <point x="88" y="0" type="line"/>
      <point x="88" y="21" type="line"/>
      <point x="344" y="575" type="line"/>
      <point x="407" y="552" type="line"/>
      <point x="23" y="552" type="line"/>
      <point x="16" y="721" type="line"/>
      <point x="38" y="740" type="line"/>
      <point x="551" y="740" type="line"/>
      <point x="580" y="620" type="line"/>
      <point x="580" y="607" type="line"/>
      <point x="327" y="1" type="line"/>
    </contour>
  </outline>
</glyph>
<glyph name="eight" format="1">
  <advance width="711"/>
  <unicode hex="0038"/>
  <outline>
    <contour>
      <point x="358" y="-8" type="curve" smooth="yes"/>
      <point x="586" y="-8"/>
      <point x="675" y="77"/>
      <point x="675" y="216" type="curve" smooth="yes"/>
      <point x="675" y="383"/>
      <point x="538" y="416"/>
      <point x="422" y="441" type="curve" smooth="yes"/>
      <point x="333" y="460"/>
      <point x="257" y="475"/>
      <point x="257" y="536" type="curve" smooth="yes"/>
      <point x="257" y="579"/>
      <point x="297" y="604"/>
      <point x="358" y="604" type="curve" smooth="yes"/>
      <point x="419" y="604"/>
      <point x="460" y="576"/>
      <point x="460" y="534" type="curve" smooth="yes"/>
      <point x="460" y="494"/>
      <point x="434" y="451"/>
      <point x="368" y="418" type="curve"/>
      <point x="462" y="349" type="line"/>
      <point x="617" y="410"/>
      <point x="657" y="451"/>
      <point x="657" y="549" type="curve" smooth="yes"/>
      <point x="657" y="669"/>
      <point x="550" y="749"/>
      <point x="370" y="749" type="curve" smooth="yes"/>
      <point x="183" y="749"/>
      <point x="60" y="669"/>
      <point x="60" y="549" type="curve" smooth="yes"/>
      <point x="60" y="375"/>
      <point x="196" y="342"/>
      <point x="311" y="313" type="curve" smooth="yes"/>
      <point x="394" y="291"/>
      <point x="465" y="273"/>
      <point x="465" y="204" type="curve" smooth="yes"/>
      <point x="465" y="160"/>
      <point x="427" y="137"/>
      <point x="358" y="137" type="curve" smooth="yes"/>
      <point x="289" y="137"/>
      <point x="243" y="165"/>
      <point x="243" y="218" type="curve" smooth="yes"/>
      <point x="243" y="271"/>
      <point x="286" y="307"/>
      <point x="341" y="336" type="curve"/>
      <point x="219" y="398" type="line"/>
      <point x="93" y="357"/>
      <point x="33" y="292"/>
      <point x="33" y="190" type="curve" smooth="yes"/>
      <point x="33" y="67"/>
      <point x="124" y="-8"/>
    </contour>
  </outline>
</glyph>
<glyph name="less" format="1">
  <advance width="567"/>
  <unicode hex="003C"/>
  <outline>
    <contour>
      <point x="28" y="320" type="line"/>
      <point x="117" y="320" type="line"/>
      <point x="511" y="489" type="line"/>
      <point x="511" y="636" type="line"/>
      <point x="28" y="429" type="line"/>
    </contour>
    <contour>
      <point x="511" y="90" type="line"/>
      <point x="511" y="237" type="line"/>
      <point x="117" y="406" type="line"/>
      <point x="28" y="406" type="line"/>
      <point x="28" y="297" type="line"/>
    </contour>
  </outline>
</glyph>
<glyph name="equal" format="1">
  <advance width="550"/>
  <unicode hex="003D"/>
  <outline>
    <contour>
      <point x="53" y="167" type="line"/>
      <point x="497" y="167" type="line"/>
      <point x="497" y="305" type="line"/>
      <point x="53" y="305" type="line"/>
    </contour>
    <contour>
      <point x="53" y="390" type="line"/>
      <point x="497" y="390" type="line"/>
      <point x="497" y="528" type="line"/>
      <point x="53" y="528" type="line"/>
    </contour>
  </outline>
</glyph>
<glyph name="greater" format="1">
  <advance width="568"/>
  <unicode hex="003E"/>
  <outline>
    <contour>
      <point x="452" y="320" type="line"/>
      <point x="541" y="320" type="line"/>
      <point x="541" y="429" type="line"/>
      <point x="58" y="636" type="line"/>
      <point x="58" y="489" type="line"/>
    </contour>
    <contour>
      <point x="58" y="90" type="line"/>
      <point x="541" y="297" type="line"/>
      <point x="541" y="406" type="line"/>
      <point x="452" y="406" type="line"/>
      <point x="58" y="237" type="line"/>
    </contour>
  </outline>
</glyph>
<glyph name="question" format="1">
  <advance width="500"/>
  <unicode hex="003F"/>
  <outline>
    <contour>
      <point x="143" y="247" type="line"/>
      <point x="282" y="247" type="line"/>
      <point x="282" y="261" type="line"/>
      <point x="291" y="348" type="line"/>
      <point x="408" y="369"/>
      <point x="475" y="442"/>
      <point x="475" y="549" type="curve" smooth="yes"/>
      <point x="475" y="675"/>
      <point x="383" y="746"/>
      <point x="219" y="746" type="curve" smooth="yes"/>
      <point x="153" y="746"/>
      <point x="96" y="740"/>
      <point x="30" y="727" type="curve"/>
      <point x="35" y="565" type="line"/>
      <point x="69" y="572"/>
      <point x="129" y="580"/>
      <point x="176" y="580" type="curve" smooth="yes"/>
      <point x="242" y="580"/>
      <point x="275" y="566"/>
      <point x="275" y="524" type="curve" smooth="yes"/>
      <point x="275" y="484"/>
      <point x="223" y="453"/>
      <point x="126" y="435" type="curve"/>
      <point x="143" y="260" type="line"/>
    </contour>
    <contour>
      <point x="217" y="-10" type="curve" smooth="yes"/>
      <point x="284" y="-10"/>
      <point x="323" y="26"/>
      <point x="323" y="90" type="curve" smooth="yes"/>
      <point x="323" y="154"/>
      <point x="284" y="190"/>
      <point x="217" y="190" type="curve" smooth="yes"/>
      <point x="150" y="190"/>
      <point x="111" y="154"/>
      <point x="111" y="90" type="curve" smooth="yes"/>
      <point x="111" y="26"/>
      <point x="150" y="-10"/>
    </contour>
  </outline>
</glyph>
<glyph name="at" format="1">
  <advance width="892"/>
  <unicode hex="0040"/>
  <outline>
    <contour>
      <point x="435" y="-131" type="curve" smooth="yes"/>
      <point x="497" y="-131"/>
      <point x="580" y="-116"/>
      <point x="673" y="-89" type="curve"/>
      <point x="640" y="26" type="line"/>
      <point x="557" y="2"/>
      <point x="486" y="-12"/>
      <point x="435" y="-12" type="curve" smooth="yes"/>
      <point x="272" y="-12"/>
      <point x="160" y="79"/>
      <point x="160" y="259" type="curve" smooth="yes"/>
      <point x="160" y="444"/>
      <point x="277" y="550"/>
      <point x="460" y="550" type="curve" smooth="yes"/>
      <point x="636" y="550"/>
      <point x="727" y="460"/>
      <point x="727" y="304" type="curve" smooth="yes"/>
      <point x="727" y="211"/>
      <point x="697" y="159"/>
      <point x="649" y="159" type="curve" smooth="yes"/>
      <point x="612" y="159"/>
      <point x="599" y="179"/>
      <point x="599" y="208" type="curve" smooth="yes"/>
      <point x="599" y="220"/>
      <point x="604" y="233"/>
      <point x="604" y="246" type="curve" smooth="yes"/>
      <point x="645" y="451" type="line"/>
      <point x="589" y="474"/>
      <point x="526" y="490"/>
      <point x="473" y="490" type="curve" smooth="yes"/>
      <point x="321" y="490"/>
      <point x="225" y="383"/>
      <point x="225" y="234" type="curve" smooth="yes"/>
      <point x="225" y="120"/>
      <point x="280" y="56"/>
      <point x="364" y="56" type="curve" smooth="yes"/>
      <point x="430" y="56"/>
      <point x="494" y="84"/>
      <point x="525" y="133" type="curve"/>
      <point x="530" y="133" type="line"/>
      <point x="532" y="116"/>
      <point x="558" y="52"/>
      <point x="642" y="52" type="curve" smooth="yes"/>
      <point x="778" y="52"/>
      <point x="853" y="144"/>
      <point x="853" y="304" type="curve" smooth="yes"/>
      <point x="853" y="533"/>
      <point x="716" y="670"/>
      <point x="460" y="670" type="curve" smooth="yes"/>
      <point x="200" y="670"/>
      <point x="33" y="517"/>
      <point x="33" y="259" type="curve" smooth="yes"/>
      <point x="33" y="4"/>
      <point x="199" y="-131"/>
    </contour>
    <contour>
      <point x="397" y="161" type="curve" smooth="yes"/>
      <point x="365" y="161"/>
      <point x="351" y="188"/>
      <point x="351" y="234" type="curve" smooth="yes"/>
      <point x="351" y="321"/>
      <point x="404" y="388"/>
      <point x="476" y="388" type="curve" smooth="yes"/>
      <point x="490" y="388"/>
      <point x="505" y="387"/>
      <point x="519" y="383" type="curve"/>
      <point x="496" y="265" type="line" smooth="yes"/>
      <point x="483" y="198"/>
      <point x="443" y="162"/>
    </contour>
  </outline>
</glyph>
<glyph name="A" format="1">
  <advance width="780"/>
  <unicode hex="0041"/>
  <outline>
    <contour>
      <point x="721" y="42" type="move" name="ogonek"/>
    </contour>
    <contour>
      <point x="390" y="865" type="move" name="topUC"/>
    </contour>
    <contour>
      <point x="-5" y="0" type="line"/>
      <point x="212" y="0" type="line"/>
      <point x="254" y="146" type="line"/>
      <point x="525" y="146" type="line"/>
      <point x="568" y="0" type="line"/>
      <point x="785" y="0" type="line"/>
      <point x="785" y="11" type="line"/>
      <point x="557" y="740" type="line"/>
      <point x="223" y="740" type="line"/>
      <point x="-5" y="11" type="line"/>
    </contour>
    <contour>
      <point x="307" y="326" type="line"/>
      <point x="337" y="430" type="line"/>
      <point x="380" y="587" type="line"/>
      <point x="399" y="587" type="line"/>
      <point x="442" y="432" type="line"/>
      <point x="472" y="326" type="line"/>
    </contour>
  </outline>
</glyph>
<glyph name="B" format="1">
  <advance width="747"/>
  <unicode hex="0042"/>
  <outline>
    <contour>
      <point x="385" y="-10" type="curve" smooth="yes"/>
      <point x="615" y="-10"/>
      <point x="720" y="58"/>
      <point x="720" y="205" type="curve" smooth="yes"/>
      <point x="720" y="299"/>
      <point x="667" y="360"/>
      <point x="569" y="379" type="curve"/>
      <point x="569" y="383" type="line"/>
      <point x="655" y="406"/>
      <point x="697" y="457"/>
      <point x="697" y="537" type="curve" smooth="yes"/>
      <point x="697" y="684"/>
      <point x="592" y="750"/>
      <point x="354" y="750" type="curve" smooth="yes"/>
      <point x="261" y="750"/>
      <point x="167" y="745"/>
      <point x="61" y="735" type="curve"/>
      <point x="61" y="5" type="line"/>
      <point x="177" y="-5"/>
      <point x="277" y="-10"/>
    </contour>
    <contour>
      <point x="382" y="146" type="curve" smooth="yes"/>
      <point x="303" y="146"/>
      <point x="291" y="147"/>
      <point x="275" y="150" type="curve"/>
      <point x="275" y="302" type="line"/>
      <point x="381" y="302" type="line" smooth="yes"/>
      <point x="466" y="302"/>
      <point x="496" y="282"/>
      <point x="496" y="227" type="curve" smooth="yes"/>
      <point x="496" y="172"/>
      <point x="460" y="146"/>
    </contour>
    <contour>
      <point x="275" y="445" type="line"/>
      <point x="275" y="589" type="line"/>
      <point x="301" y="593"/>
      <point x="333" y="595"/>
      <point x="367" y="595" type="curve" smooth="yes"/>
      <point x="445" y="595"/>
      <point x="474" y="574"/>
      <point x="474" y="521" type="curve" smooth="yes"/>
      <point x="474" y="465"/>
      <point x="446" y="445"/>
      <point x="365" y="445" type="curve" smooth="yes"/>
    </contour>
  </outline>
</glyph>
<glyph name="C" format="1">
  <advance width="617"/>
  <unicode hex="0043"/>
  <outline>
    <contour>
      <point x="354" y="865" type="move" name="topUC"/>
    </contour>
    <contour>
      <point x="384" y="-83" type="move" name="bottom"/>
    </contour>
    <contour>
      <point x="425" y="-14" type="curve" smooth="yes"/>
      <point x="479" y="-14"/>
      <point x="536" y="-7"/>
      <point x="585" y="4" type="curve"/>
      <point x="585" y="182" type="line"/>
      <point x="551" y="175"/>
      <point x="479" y="169"/>
      <point x="434" y="169" type="curve" smooth="yes"/>
      <point x="295" y="169"/>
      <point x="263" y="202"/>
      <point x="263" y="369" type="curve" smooth="yes"/>
      <point x="263" y="540"/>
      <point x="293" y="572"/>
      <point x="436" y="572" type="curve" smooth="yes"/>
      <point x="471" y="572"/>
      <point x="498" y="570"/>
      <point x="585" y="562" type="curve"/>
      <point x="585" y="739" type="line"/>
      <point x="505" y="749"/>
      <point x="454" y="754"/>
      <point x="407" y="754" type="curve" smooth="yes"/>
      <point x="156" y="754"/>
      <point x="31" y="630"/>
      <point x="31" y="369" type="curve" smooth="yes"/>
      <point x="31" y="108"/>
      <point x="159" y="-14"/>
    </contour>
  </outline>
</glyph>
<glyph name="D" format="1">
  <advance width="802"/>
  <unicode hex="0044"/>
  <outline>
    <contour>
      <point x="368" y="865" type="move" name="topUC"/>
    </contour>
    <contour>
      <point x="378" y="-83" type="move" name="bottom"/>
    </contour>
    <contour>
      <point x="295" y="-11" type="curve" smooth="yes"/>
      <point x="639" y="-11"/>
      <point x="771" y="95"/>
      <point x="771" y="369" type="curve" smooth="yes"/>
      <point x="771" y="637"/>
      <point x="642" y="750"/>
      <point x="339" y="750" type="curve" smooth="yes"/>
      <point x="273" y="750"/>
      <point x="188" y="746"/>
      <point x="61" y="739" type="curve"/>
      <point x="61" y="2" type="line"/>
      <point x="123" y="-6"/>
      <point x="214" y="-11"/>
    </contour>
    <contour>
      <point x="386" y="166" type="curve" smooth="yes"/>
      <point x="353" y="166"/>
      <point x="316" y="168"/>
      <point x="285" y="173" type="curve"/>
      <point x="285" y="569" type="line"/>
      <point x="327" y="572"/>
      <point x="351" y="573"/>
      <point x="374" y="573" type="curve" smooth="yes"/>
      <point x="502" y="573"/>
      <point x="541" y="526"/>
      <point x="541" y="369" type="curve" smooth="yes"/>
      <point x="541" y="209"/>
      <point x="507" y="166"/>
    </contour>
  </outline>
</glyph>
<glyph name="E" format="1">
  <advance width="684"/>
  <unicode hex="0045"/>
  <outline>
    <contour>
      <point x="570" y="41" type="move" name="ogonek"/>
    </contour>
    <contour>
      <point x="356" y="865" type="move" name="topUC"/>
    </contour>
    <contour>
      <point x="350" y="-83" type="move" name="bottom"/>
    </contour>
    <contour>
      <point x="61" y="0" type="line"/>
      <point x="651" y="0" type="line"/>
      <point x="651" y="173" type="line"/>
      <point x="286" y="173" type="line"/>
      <point x="286" y="568" type="line"/>
      <point x="641" y="568" type="line"/>
      <point x="641" y="740" type="line"/>
      <point x="61" y="740" type="line"/>
    </contour>
    <contour>
      <point x="182" y="284" type="line"/>
      <point x="603" y="284" type="line"/>
      <point x="603" y="456" type="line"/>
      <point x="182" y="456" type="line"/>
    </contour>
  </outline>
</glyph>
<glyph name="F" format="1">
  <advance width="662"/>
  <unicode hex="0046"/>
  <outline>
    <contour>
      <point x="61" y="0" type="line"/>
      <point x="286" y="0" type="line"/>
      <point x="286" y="568" type="line"/>
      <point x="639" y="568" type="line"/>
      <point x="639" y="740" type="line"/>
      <point x="61" y="740" type="line"/>
    </contour>
    <contour>
      <point x="194" y="256" type="line"/>
      <point x="601" y="256" type="line"/>
      <point x="601" y="429" type="line"/>
      <point x="194" y="429" type="line"/>
    </contour>
  </outline>
</glyph>
<glyph name="G" format="1">
  <advance width="727"/>
  <unicode hex="0047"/>
  <outline>
    <contour>
      <point x="393" y="865" type="move" name="topUC"/>
    </contour>
    <contour>
      <point x="402" y="-83" type="move" name="bottom"/>
    </contour>
    <contour>
      <point x="424" y="-14" type="curve" smooth="yes"/>
      <point x="494" y="-14"/>
      <point x="596" y="3"/>
      <point x="683" y="26" type="curve"/>
      <point x="584" y="182" type="line"/>
      <point x="551" y="175"/>
      <point x="479" y="169"/>
      <point x="433" y="169" type="curve" smooth="yes"/>
      <point x="292" y="169"/>
      <point x="262" y="205"/>
      <point x="262" y="369" type="curve" smooth="yes"/>
      <point x="262" y="536"/>
      <point x="297" y="572"/>
      <point x="463" y="572" type="curve" smooth="yes"/>
      <point x="510" y="572"/>
      <point x="582" y="566"/>
      <point x="672" y="552" type="curve"/>
      <point x="672" y="730" type="line"/>
      <point x="613" y="744"/>
      <point x="520" y="754"/>
      <point x="445" y="754" type="curve" smooth="yes"/>
      <point x="167" y="754"/>
      <point x="30" y="627"/>
      <point x="30" y="369" type="curve" smooth="yes"/>
      <point x="30" y="110"/>
      <point x="157" y="-14"/>
    </contour>
    <contour>
      <point x="478" y="29" type="line"/>
      <point x="683" y="26" type="line"/>
      <point x="683" y="376" type="line"/>
      <point x="478" y="376" type="line"/>
    </contour>
  </outline>
</glyph>
<glyph name="H" format="1">
  <advance width="846"/>
  <unicode hex="0048"/>
  <outline>
    <contour>
      <point x="422" y="865" type="move" name="topUC"/>
    </contour>
    <contour>
      <point x="422" y="-83" type="move" name="bottom"/>
    </contour>
    <contour>
      <point x="61" y="0" type="line"/>
      <point x="286" y="0" type="line"/>
      <point x="286" y="293" type="line"/>
      <point x="560" y="293" type="line"/>
      <point x="560" y="0" type="line"/>
      <point x="785" y="0" type="line"/>
      <point x="785" y="740" type="line"/>
      <point x="560" y="740" type="line"/>
      <point x="560" y="466" type="line"/>
      <point x="286" y="466" type="line"/>
      <point x="286" y="740" type="line"/>
      <point x="61" y="740" type="line"/>
    </contour>
  </outline>
</glyph>
<glyph name="I" format="1">
  <advance width="348"/>
  <unicode hex="0049"/>
  <outline>
    <contour>
      <point x="199" y="41" type="move" name="ogonek"/>
    </contour>
    <contour>
      <point x="178" y="865" type="move" name="topUC"/>
    </contour>
    <contour>
      <point x="174" y="-83" type="move" name="bottom"/>
    </contour>
    <contour>
      <point x="61" y="0" type="line"/>
      <point x="286" y="0" type="line"/>
      <point x="286" y="740" type="line"/>
      <point x="61" y="740" type="line"/>
    </contour>
  </outline>
</glyph>
<glyph name="J" format="1">
  <advance width="347"/>
  <unicode hex="004A"/>
  <outline>
    <contour>
      <point x="177" y="865" type="move" name="topUC"/>
    </contour>
    <contour>
      <point x="131" y="-219" type="line"/>
      <point x="248" y="-62"/>
      <point x="289" y="42"/>
      <point x="289" y="183" type="curve" smooth="yes"/>
      <point x="289" y="740" type="line"/>
      <point x="63" y="740" type="line"/>
      <point x="63" y="201" type="line" smooth="yes"/>
      <point x="63" y="62"/>
      <point x="46" y="-23"/>
      <point x="-12" y="-157" type="curve"/>
    </contour>
  </outline>
</glyph>
<glyph name="K" format="1">
  <advance width="768"/>
  <unicode hex="004B"/>
  <outline>
    <contour>
      <point x="388" y="-83" type="move" name="bottom"/>
    </contour>
    <contour>
      <point x="61" y="0" type="line"/>
      <point x="286" y="0" type="line"/>
      <point x="286" y="286" type="line"/>
      <point x="382" y="286" type="line"/>
      <point x="531" y="0" type="line"/>
      <point x="780" y="0" type="line"/>
      <point x="579" y="354" type="line"/>
      <point x="514" y="382" type="line"/>
      <point x="514" y="391" type="line"/>
      <point x="577" y="418" type="line"/>
      <point x="762" y="740" type="line"/>
      <point x="513" y="740" type="line"/>
      <point x="369" y="458" type="line"/>
      <point x="286" y="458" type="line"/>
      <point x="286" y="740" type="line"/>
      <point x="61" y="740" type="line"/>
    </contour>
  </outline>
</glyph>
<glyph name="L" format="1">
  <advance width="603"/>
  <unicode hex="004C"/>
  <outline>
    <contour>
      <point x="177" y="865" type="move" name="topUC"/>
    </contour>
    <contour>
      <point x="510" y="370" type="move" name="periodcentered"/>
    </contour>
    <contour>
      <point x="510" y="674" type="move" name="caronalt"/>
    </contour>
    <contour>
      <point x="315" y="-83" type="move" name="bottom"/>
    </contour>
    <contour>
      <point x="61" y="0" type="line"/>
      <point x="590" y="0" type="line"/>
      <point x="590" y="172" type="line"/>
      <point x="286" y="172" type="line"/>
      <point x="286" y="740" type="line"/>
      <point x="61" y="740" type="line"/>
    </contour>
  </outline>
</glyph>
<glyph name="M" format="1">
  <advance width="1038"/>
  <unicode hex="004D"/>
  <outline>
    <contour>
      <point x="61" y="0" type="line"/>
      <point x="262" y="0" type="line"/>
      <point x="262" y="502" type="line"/>
      <point x="272" y="502" type="line"/>
      <point x="331" y="297" type="line"/>
      <point x="432" y="30" type="line"/>
      <point x="606" y="30" type="line"/>
      <point x="707" y="297" type="line"/>
      <point x="767" y="502" type="line"/>
      <point x="777" y="502" type="line"/>
      <point x="777" y="0" type="line"/>
      <point x="977" y="0" type="line"/>
      <point x="977" y="740" type="line"/>
      <point x="674" y="740" type="line"/>
      <point x="561" y="439" type="line"/>
      <point x="524" y="287" type="line"/>
      <point x="514" y="287" type="line"/>
      <point x="477" y="439" type="line"/>
      <point x="365" y="740" type="line"/>
      <point x="61" y="740" type="line"/>
    </contour>
  </outline>
</glyph>
<glyph name="N" format="1">
  <advance width="834"/>
  <unicode hex="004E"/>
  <outline>
    <contour>
      <point x="425" y="865" type="move" name="topUC"/>
    </contour>
    <contour>
      <point x="429" y="-83" type="move" name="bottom"/>
    </contour>
    <contour>
      <point x="61" y="0" type="line"/>
      <point x="260" y="0" type="line"/>
      <point x="260" y="411" type="line"/>
      <point x="270" y="411" type="line"/>
      <point x="339" y="316" type="line"/>
      <point x="601" y="0" type="line"/>
      <point x="773" y="0" type="line"/>
      <point x="773" y="740" type="line"/>
      <point x="574" y="740" type="line"/>
      <point x="574" y="330" type="line"/>
      <point x="564" y="330" type="line"/>
      <point x="505" y="414" type="line"/>
      <point x="234" y="740" type="line"/>
      <point x="61" y="740" type="line"/>
    </contour>
  </outline>
</glyph>
<glyph name="O" format="1">
  <advance width="822"/>
  <unicode hex="004F"/>
  <outline>
    <contour>
      <point x="384" y="43" type="move" name="ogonek"/>
    </contour>
    <contour>
      <point x="410" y="865" type="move" name="topUC"/>
    </contour>
    <contour>
      <point x="360" y="-83" type="move" name="bottom"/>
    </contour>
    <contour>
      <point x="411" y="-10" type="curve" smooth="yes"/>
      <point x="659" y="-10"/>
      <point x="791" y="121"/>
      <point x="791" y="369" type="curve" smooth="yes"/>
      <point x="791" y="618"/>
      <point x="659" y="750"/>
      <point x="411" y="750" type="curve" smooth="yes"/>
      <point x="162" y="750"/>
      <point x="31" y="619"/>
      <point x="31" y="369" type="curve" smooth="yes"/>
      <point x="31" y="121"/>
      <point x="162" y="-10"/>
    </contour>
    <contour>
      <point x="411" y="168" type="curve" smooth="yes"/>
      <point x="293" y="168"/>
      <point x="261" y="206"/>
      <point x="261" y="369" type="curve" smooth="yes"/>
      <point x="261" y="531"/>
      <point x="296" y="572"/>
      <point x="411" y="572" type="curve" smooth="yes"/>
      <point x="526" y="572"/>
      <point x="561" y="530"/>
      <point x="561" y="369" type="curve" smooth="yes"/>
      <point x="561" y="205"/>
      <point x="530" y="168"/>
    </contour>
  </outline>
</glyph>
<glyph name="P" format="1">
  <advance width="733"/>
  <unicode hex="0050"/>
  <outline>
    <contour>
      <point x="313" y="198" type="curve" smooth="yes"/>
      <point x="584" y="198"/>
      <point x="717" y="289"/>
      <point x="717" y="475" type="curve" smooth="yes"/>
      <point x="717" y="669"/>
      <point x="596" y="750"/>
      <point x="306" y="750" type="curve" smooth="yes"/>
      <point x="230" y="750"/>
      <point x="148" y="745"/>
      <point x="61" y="735" type="curve"/>
      <point x="61" y="214" type="line"/>
      <point x="180" y="202"/>
      <point x="246" y="198"/>
    </contour>
    <contour>
      <point x="350" y="371" type="curve" smooth="yes"/>
      <point x="328" y="371"/>
      <point x="306" y="373"/>
      <point x="286" y="376" type="curve"/>
      <point x="286" y="573" type="line"/>
      <point x="302" y="575"/>
      <point x="336" y="577"/>
      <point x="357" y="577" type="curve" smooth="yes"/>
      <point x="464" y="577"/>
      <point x="488" y="554"/>
      <point x="488" y="475" type="curve" smooth="yes"/>
      <point x="488" y="394"/>
      <point x="458" y="371"/>
    </contour>
    <contour>
      <point x="61" y="0" type="line"/>
      <point x="286" y="0" type="line"/>
      <point x="286" y="690" type="line"/>
      <point x="61" y="690" type="line"/>
    </contour>
  </outline>
</glyph>
<glyph name="Q" format="1">
  <advance width="822"/>
  <unicode hex="0051"/>
  <outline>
    <contour>
      <point x="725" y="-182" type="curve"/>
      <point x="776" y="-4" type="line"/>
      <point x="690" y="4"/>
      <point x="671" y="8"/>
      <point x="493" y="40" type="curve"/>
      <point x="493" y="54" type="line"/>
      <point x="680" y="45"/>
      <point x="793" y="166"/>
      <point x="793" y="369" type="curve" smooth="yes"/>
      <point x="793" y="613"/>
      <point x="654" y="750"/>
      <point x="411" y="750" type="curve" smooth="yes"/>
      <point x="169" y="750"/>
      <point x="30" y="612"/>
      <point x="30" y="369" type="curve" smooth="yes"/>
      <point x="30" y="86"/>
      <point x="185" y="-34"/>
    </contour>
    <contour>
      <point x="411" y="167" type="curve" smooth="yes"/>
      <point x="295" y="167"/>
      <point x="258" y="217"/>
      <point x="258" y="369" type="curve" smooth="yes"/>
      <point x="258" y="521"/>
      <point x="297" y="574"/>
      <point x="411" y="574" type="curve" smooth="yes"/>
      <point x="526" y="574"/>
      <point x="564" y="523"/>
      <point x="564" y="369" type="curve" smooth="yes"/>
      <point x="564" y="213"/>
      <point x="528" y="167"/>
    </contour>
  </outline>
</glyph>
<glyph name="R" format="1">
  <advance width="750"/>
  <unicode hex="0052"/>
  <outline>
    <contour>
      <point x="378" y="865" type="move" name="topUC"/>
    </contour>
    <contour>
      <point x="388" y="-83" type="move" name="bottom"/>
    </contour>
    <contour>
      <point x="61" y="0" type="line"/>
      <point x="286" y="0" type="line"/>
      <point x="286" y="227" type="line"/>
      <point x="318" y="227" type="line" smooth="yes"/>
      <point x="584" y="227"/>
      <point x="717" y="314"/>
      <point x="717" y="488" type="curve" smooth="yes"/>
      <point x="717" y="673"/>
      <point x="595" y="750"/>
      <point x="306" y="750" type="curve" smooth="yes"/>
      <point x="229" y="750"/>
      <point x="147" y="745"/>
      <point x="61" y="735" type="curve"/>
    </contour>
    <contour>
      <point x="350" y="399" type="curve" smooth="yes"/>
      <point x="317" y="399"/>
      <point x="301" y="400"/>
      <point x="286" y="404" type="curve"/>
      <point x="286" y="573" type="line"/>
      <point x="304" y="575"/>
      <point x="338" y="577"/>
      <point x="357" y="577" type="curve" smooth="yes"/>
      <point x="461" y="577"/>
      <point x="488" y="559"/>
      <point x="488" y="488" type="curve" smooth="yes"/>
      <point x="488" y="418"/>
      <point x="458" y="399"/>
    </contour>
    <contour>
      <point x="503" y="0" type="line"/>
      <point x="755" y="0" type="line"/>
      <point x="504" y="381" type="line"/>
      <point x="354" y="279" type="line"/>
    </contour>
  </outline>
</glyph>
<glyph name="S" format="1">
  <advance width="670"/>
  <unicode hex="0053"/>
  <outline>
    <contour>
      <point x="342" y="864" type="move" name="topUC"/>
    </contour>
    <contour>
      <point x="342" y="-26" type="move" name="bottom"/>
    </contour>
    <contour>
      <point x="327" y="-12" type="curve" smooth="yes"/>
      <point x="540" y="-12"/>
      <point x="648" y="70"/>
      <point x="648" y="230" type="curve" smooth="yes"/>
      <point x="648" y="360"/>
      <point x="568" y="421"/>
      <point x="402" y="450" type="curve" smooth="yes"/>
      <point x="316" y="468"/>
      <point x="276" y="484"/>
      <point x="276" y="527" type="curve" smooth="yes"/>
      <point x="276" y="561"/>
      <point x="311" y="576"/>
      <point x="383" y="576" type="curve" smooth="yes"/>
      <point x="448" y="576"/>
      <point x="539" y="563"/>
      <point x="607" y="542" type="curve"/>
      <point x="607" y="720" type="line"/>
      <point x="489" y="743"/>
      <point x="428" y="750"/>
      <point x="358" y="750" type="curve" smooth="yes"/>
      <point x="159" y="750"/>
      <point x="41" y="665"/>
      <point x="41" y="522" type="curve" smooth="yes"/>
      <point x="41" y="366"/>
      <point x="131" y="298"/>
      <point x="300" y="275" type="curve" smooth="yes"/>
      <point x="378" y="264"/>
      <point x="414" y="250"/>
      <point x="414" y="211" type="curve" smooth="yes"/>
      <point x="414" y="177"/>
      <point x="385" y="163"/>
      <point x="305" y="163" type="curve" smooth="yes"/>
      <point x="230" y="163"/>
      <point x="143" y="176"/>
      <point x="35" y="200" type="curve"/>
      <point x="35" y="20" type="line"/>
      <point x="127" y="0"/>
      <point x="242" y="-12"/>
    </contour>
  </outline>
</glyph>
<glyph name="T" format="1">
  <advance width="667"/>
  <unicode hex="0054"/>
  <outline>
    <contour>
      <point x="334" y="865" type="move" name="topUC"/>
    </contour>
    <contour>
      <point x="334" y="-83" type="move" name="bottom"/>
    </contour>
    <contour>
      <point x="221" y="0" type="line"/>
      <point x="446" y="0" type="line"/>
      <point x="446" y="567" type="line"/>
      <point x="647" y="567" type="line"/>
      <point x="647" y="740" type="line"/>
      <point x="20" y="740" type="line"/>
      <point x="20" y="567" type="line"/>
      <point x="221" y="567" type="line"/>
    </contour>
  </outline>
</glyph>
<glyph name="U" format="1">
  <advance width="828"/>
  <unicode hex="0055"/>
  <outline>
    <contour>
      <point x="435" y="42" type="move" name="ogonek"/>
    </contour>
    <contour>
      <point x="413" y="865" type="move" name="topUC"/>
    </contour>
    <contour>
      <point x="413" y="-83" type="move" name="bottom"/>
    </contour>
    <contour>
      <point x="414" y="-10" type="curve" smooth="yes"/>
      <point x="687" y="-10"/>
      <point x="774" y="95"/>
      <point x="774" y="308" type="curve" smooth="yes"/>
      <point x="774" y="742" type="line"/>
      <point x="549" y="742" type="line"/>
      <point x="549" y="301" type="line" smooth="yes"/>
      <point x="549" y="217"/>
      <point x="511" y="169"/>
      <point x="414" y="169" type="curve" smooth="yes"/>
      <point x="318" y="169"/>
      <point x="279" y="218"/>
      <point x="279" y="301" type="curve" smooth="yes"/>
      <point x="279" y="742" type="line"/>
      <point x="54" y="742" type="line"/>
      <point x="54" y="308" type="line" smooth="yes"/>
      <point x="54" y="96"/>
      <point x="141" y="-10"/>
    </contour>
  </outline>
</glyph>
<glyph name="V" format="1">
  <advance width="771"/>
  <unicode hex="0056"/>
  <outline>
    <contour>
      <point x="236" y="0" type="line"/>
      <point x="535" y="0" type="line"/>
      <point x="776" y="740" type="line"/>
      <point x="544" y="740" type="line"/>
      <point x="427" y="369" type="line"/>
      <point x="394" y="209" type="line"/>
      <point x="381" y="209" type="line"/>
      <point x="349" y="369" type="line"/>
      <point x="232" y="740" type="line"/>
      <point x="-6" y="740" type="line"/>
    </contour>
  </outline>
</glyph>
<glyph name="W" format="1">
  <advance width="1135"/>
  <unicode hex="0057"/>
  <outline>
    <contour>
      <point x="570" y="865" type="move" name="topUC"/>
    </contour>
    <contour>
      <point x="179" y="0" type="line"/>
      <point x="474" y="0" type="line"/>
      <point x="540" y="282" type="line"/>
      <point x="562" y="471" type="line"/>
      <point x="573" y="471" type="line"/>
      <point x="595" y="282" type="line"/>
      <point x="661" y="0" type="line"/>
      <point x="956" y="0" type="line"/>
      <point x="1129" y="740" type="line"/>
      <point x="885" y="740" type="line"/>
      <point x="820" y="343" type="line"/>
      <point x="806" y="218" type="line"/>
      <point x="791" y="218" type="line"/>
      <point x="769" y="343" type="line"/>
      <point x="677" y="740" type="line"/>
      <point x="459" y="740" type="line"/>
      <point x="366" y="343" type="line"/>
      <point x="345" y="218" type="line"/>
      <point x="329" y="218" type="line"/>
      <point x="316" y="343" type="line"/>
      <point x="250" y="740" type="line"/>
      <point x="6" y="740" type="line"/>
    </contour>
  </outline>
</glyph>
<glyph name="X" format="1">
  <advance width="771"/>
  <unicode hex="0058"/>
  <outline>
    <contour>
      <point x="-19" y="0" type="line"/>
      <point x="233" y="0" type="line"/>
      <point x="354" y="190" type="line"/>
      <point x="382" y="241" type="line"/>
      <point x="389" y="241" type="line"/>
      <point x="417" y="190" type="line"/>
      <point x="539" y="0" type="line"/>
      <point x="792" y="0" type="line"/>
      <point x="520" y="381" type="line"/>
      <point x="770" y="740" type="line"/>
      <point x="519" y="740" type="line"/>
      <point x="421" y="586" type="line"/>
      <point x="389" y="529" type="line"/>
      <point x="382" y="529" type="line"/>
      <point x="350" y="586" type="line"/>
      <point x="256" y="740" type="line"/>
      <point x="2" y="740" type="line"/>
      <point x="243" y="389" type="line"/>
    </contour>
  </outline>
</glyph>
<glyph name="Y" format="1">
  <advance width="764"/>
  <unicode hex="0059"/>
  <outline>
    <contour>
      <point x="380" y="865" type="move" name="topUC"/>
    </contour>
    <contour>
      <point x="271" y="0" type="line"/>
      <point x="496" y="0" type="line"/>
      <point x="496" y="237" type="line"/>
      <point x="775" y="740" type="line"/>
      <point x="532" y="740" type="line"/>
      <point x="416" y="520" type="line"/>
      <point x="387" y="440" type="line"/>
      <point x="376" y="440" type="line"/>
      <point x="348" y="520" type="line"/>
      <point x="232" y="740" type="line"/>
      <point x="-13" y="740" type="line"/>
      <point x="271" y="230" type="line"/>
    </contour>
  </outline>
</glyph>
<glyph name="Z" format="1">
  <advance width="690"/>
  <unicode hex="005A"/>
  <outline>
    <contour>
      <point x="346" y="865" type="move" name="topUC"/>
    </contour>
    <contour>
      <point x="343" y="-83" type="move" name="bottom"/>
    </contour>
    <contour>
      <point x="30" y="0" type="line"/>
      <point x="663" y="0" type="line"/>
      <point x="663" y="173" type="line"/>
      <point x="301" y="173" type="line"/>
      <point x="301" y="183" type="line"/>
      <point x="643" y="579" type="line"/>
      <point x="643" y="740" type="line"/>
      <point x="45" y="740" type="line"/>
      <point x="45" y="567" type="line"/>
      <point x="371" y="567" type="line"/>
      <point x="371" y="557" type="line"/>
      <point x="30" y="165" type="line"/>
    </contour>
  </outline>
</glyph>
<glyph name="bracketleft" format="1">
  <advance width="395"/>
  <unicode hex="005B"/>
  <outline>
    <contour>
      <point x="71" y="-160" type="line"/>
      <point x="373" y="-160" type="line"/>
      <point x="373" y="-22" type="line"/>
      <point x="238" y="-22" type="line"/>
      <point x="238" y="730" type="line"/>
      <point x="373" y="730" type="line"/>
      <point x="373" y="868" type="line"/>
      <point x="71" y="868" type="line"/>
    </contour>
  </outline>
</glyph>
<glyph name="bracketright" format="1">
  <advance width="395"/>
  <unicode hex="005D"/>
  <outline>
    <contour>
      <point x="325" y="-160" type="line"/>
      <point x="325" y="868" type="line"/>
      <point x="22" y="868" type="line"/>
      <point x="22" y="730" type="line"/>
      <point x="158" y="730" type="line"/>
      <point x="158" y="-22" type="line"/>
      <point x="22" y="-22" type="line"/>
      <point x="22" y="-160" type="line"/>
    </contour>
  </outline>
</glyph>
<glyph name="asciicircum" format="1">
  <advance width="565"/>
  <unicode hex="005E"/>
  <outline>
    <contour>
      <point x="26" y="481" type="line"/>
      <point x="180" y="481" type="line"/>
      <point x="281" y="665" type="line"/>
      <point x="285" y="665" type="line"/>
      <point x="386" y="481" type="line"/>
      <point x="539" y="481" type="line"/>
      <point x="384" y="789" type="line"/>
      <point x="182" y="789" type="line"/>
    </contour>
  </outline>
</glyph>
<glyph name="underscore" format="1">
  <advance width="680"/>
  <unicode hex="005F"/>
  <outline>
    <contour>
      <point x="39" y="-214" type="line"/>
      <point x="642" y="-214" type="line"/>
      <point x="642" y="-57" type="line"/>
      <point x="39" y="-57" type="line"/>
    </contour>
  </outline>
</glyph>
<glyph name="grave" format="1">
  <advance width="328"/>
  <unicode hex="0060"/>
  <outline>
    <contour>
      <point x="208" y="656" type="move" name="_top"/>
    </contour>
    <contour>
      <point x="135" y="608" type="line"/>
      <point x="4" y="808" type="line"/>
      <point x="230" y="808" type="line"/>
      <point x="292" y="618" type="line"/>
    </contour>
  </outline>
</glyph>
<glyph name="a" format="1">
  <advance width="621"/>
  <unicode hex="0061"/>
  <outline>
    <contour>
      <point x="300" y="656" type="move" name="top"/>
    </contour>
    <contour>
      <point x="501" y="41" type="move" name="ogonek"/>
    </contour>
    <contour>
      <point x="187" y="-5" type="curve" smooth="yes"/>
      <point x="261" y="-5"/>
      <point x="320" y="18"/>
      <point x="365" y="65" type="curve"/>
      <point x="375" y="65" type="line"/>
      <point x="394" y="0" type="line"/>
      <point x="574" y="0" type="line"/>
      <point x="574" y="360" type="line" smooth="yes"/>
      <point x="574" y="486"/>
      <point x="481" y="548"/>
      <point x="297" y="548" type="curve" smooth="yes"/>
      <point x="218" y="548"/>
      <point x="139" y="541"/>
      <point x="59" y="527" type="curve"/>
      <point x="73" y="378" type="line"/>
      <point x="128" y="388"/>
      <point x="198" y="396"/>
      <point x="238" y="396" type="curve" smooth="yes"/>
      <point x="343" y="396"/>
      <point x="354" y="388"/>
      <point x="354" y="324" type="curve" smooth="yes"/>
      <point x="354" y="162" type="line"/>
      <point x="345" y="151"/>
      <point x="314" y="141"/>
      <point x="290" y="141" type="curve" smooth="yes"/>
      <point x="259" y="141"/>
      <point x="247" y="154"/>
      <point x="247" y="185" type="curve" smooth="yes"/>
      <point x="247" y="213"/>
      <point x="260" y="224"/>
      <point x="300" y="228" type="curve" smooth="yes"/>
      <point x="385" y="236" type="line"/>
      <point x="377" y="342" type="line"/>
      <point x="231" y="332" type="line" smooth="yes"/>
      <point x="92" y="324"/>
      <point x="25" y="267"/>
      <point x="25" y="161" type="curve" smooth="yes"/>
      <point x="25" y="57"/>
      <point x="84" y="-5"/>
    </contour>
  </outline>
</glyph>
<glyph name="b" format="1">
  <advance width="692"/>
  <unicode hex="0062"/>
  <outline>
    <contour>
      <point x="342" y="-11" type="curve" smooth="yes"/>
      <point x="544" y="-10"/>
      <point x="663" y="94"/>
      <point x="663" y="285" type="curve" smooth="yes"/>
      <point x="663" y="460"/>
      <point x="585" y="549"/>
      <point x="432" y="549" type="curve" smooth="yes"/>
      <point x="363" y="549"/>
      <point x="307" y="529"/>
      <point x="271" y="485" type="curve"/>
      <point x="271" y="808" type="line"/>
      <point x="51" y="808" type="line"/>
      <point x="51" y="26" type="line"/>
      <point x="209" y="-7"/>
      <point x="274" y="-11"/>
    </contour>
    <contour>
      <point x="339" y="134" type="curve" smooth="yes"/>
      <point x="309" y="134"/>
      <point x="287" y="137"/>
      <point x="271" y="142" type="curve"/>
      <point x="271" y="282" type="line" smooth="yes"/>
      <point x="271" y="360"/>
      <point x="296" y="387"/>
      <point x="362" y="387" type="curve" smooth="yes"/>
      <point x="429" y="387"/>
      <point x="442" y="365"/>
      <point x="442" y="268" type="curve" smooth="yes"/>
      <point x="442" y="154"/>
      <point x="428" y="134"/>
    </contour>
  </outline>
</glyph>
<glyph name="c" format="1">
  <advance width="545"/>
  <unicode hex="0063"/>
  <outline>
    <contour>
      <point x="312" y="656" type="move" name="top"/>
    </contour>
    <contour>
      <point x="318" y="-83" type="move" name="bottom"/>
    </contour>
    <contour>
      <point x="318" y="-9" type="curve" smooth="yes"/>
      <point x="388" y="-9"/>
      <point x="458" y="-2"/>
      <point x="507" y="10" type="curve"/>
      <point x="507" y="179" type="line"/>
      <point x="455" y="171"/>
      <point x="409" y="168"/>
      <point x="338" y="168" type="curve" smooth="yes"/>
      <point x="270" y="168"/>
      <point x="246" y="195"/>
      <point x="246" y="272" type="curve" smooth="yes"/>
      <point x="246" y="348"/>
      <point x="269" y="372"/>
      <point x="340" y="372" type="curve" smooth="yes"/>
      <point x="390" y="372"/>
      <point x="445" y="368"/>
      <point x="507" y="361" type="curve"/>
      <point x="507" y="531" type="line"/>
      <point x="458" y="542"/>
      <point x="388" y="549"/>
      <point x="318" y="549" type="curve" smooth="yes"/>
      <point x="125" y="549"/>
      <point x="29" y="458"/>
      <point x="29" y="270" type="curve" smooth="yes"/>
      <point x="29" y="82"/>
      <point x="125" y="-9"/>
    </contour>
  </outline>
</glyph>
<glyph name="d" format="1">
  <advance width="694"/>
  <unicode hex="0064"/>
  <outline>
    <contour>
      <point x="687" y="674" type="move" name="caronalt"/>
    </contour>
    <contour>
      <point x="337" y="-83" type="move" name="bottom"/>
    </contour>
    <contour>
      <point x="260" y="-11" type="curve" smooth="yes"/>
      <point x="335" y="-11"/>
      <point x="387" y="13"/>
      <point x="423" y="67" type="curve"/>
      <point x="431" y="67" type="line"/>
      <point x="448" y="0" type="line"/>
      <point x="641" y="0" type="line"/>
      <point x="641" y="808" type="line"/>
      <point x="421" y="808" type="line"/>
      <point x="421" y="546" type="line"/>
      <point x="397" y="549"/>
      <point x="374" y="550"/>
      <point x="350" y="550" type="curve" smooth="yes"/>
      <point x="152" y="550"/>
      <point x="29" y="449"/>
      <point x="29" y="254" type="curve" smooth="yes"/>
      <point x="29" y="78"/>
      <point x="107" y="-11"/>
    </contour>
    <contour>
      <point x="330" y="148" type="curve" smooth="yes"/>
      <point x="263" y="148"/>
      <point x="250" y="172"/>
      <point x="250" y="271" type="curve" smooth="yes"/>
      <point x="250" y="382"/>
      <point x="264" y="401"/>
      <point x="344" y="401" type="curve" smooth="yes"/>
      <point x="374" y="401"/>
      <point x="400" y="397"/>
      <point x="421" y="392" type="curve"/>
      <point x="421" y="256" type="line" smooth="yes"/>
      <point x="419" y="175"/>
      <point x="395" y="148"/>
    </contour>
  </outline>
</glyph>
<glyph name="e" format="1">
  <advance width="621"/>
  <unicode hex="0065"/>
  <outline>
    <contour>
      <point x="321" y="656" type="move" name="top"/>
    </contour>
    <contour>
      <point x="492" y="46" type="move" name="ogonek"/>
    </contour>
    <contour>
      <point x="313" y="-83" type="move" name="bottom"/>
    </contour>
    <contour>
      <point x="328" y="-9" type="curve" smooth="yes"/>
      <point x="410" y="-9"/>
      <point x="500" y="3"/>
      <point x="569" y="22" type="curve"/>
      <point x="564" y="176" type="line"/>
      <point x="509" y="163"/>
      <point x="411" y="154"/>
      <point x="347" y="154" type="curve" smooth="yes"/>
      <point x="255" y="154"/>
      <point x="245" y="167"/>
      <point x="245" y="281" type="curve" smooth="yes"/>
      <point x="245" y="375"/>
      <point x="261" y="400"/>
      <point x="322" y="400" type="curve" smooth="yes"/>
      <point x="379" y="400"/>
      <point x="399" y="377"/>
      <point x="399" y="314" type="curve"/>
      <point x="420" y="322" type="line"/>
      <point x="126" y="322" type="line"/>
      <point x="126" y="216" type="line"/>
      <point x="580" y="216" type="line"/>
      <point x="588" y="245"/>
      <point x="591" y="273"/>
      <point x="591" y="308" type="curve" smooth="yes"/>
      <point x="591" y="469"/>
      <point x="504" y="549"/>
      <point x="332" y="549" type="curve" smooth="yes"/>
      <point x="131" y="549"/>
      <point x="29" y="454"/>
      <point x="29" y="268" type="curve" smooth="yes"/>
      <point x="29" y="82"/>
      <point x="127" y="-9"/>
    </contour>
  </outline>
</glyph>
<glyph name="g" format="1">
  <advance width="692"/>
  <unicode hex="0067"/>
  <outline>
    <contour>
      <point x="357" y="656" type="move" name="top"/>
    </contour>
    <contour>
      <point x="307" y="-220" type="curve" smooth="yes"/>
      <point x="488" y="-220"/>
      <point x="642" y="-140"/>
      <point x="642" y="73" type="curve" smooth="yes"/>
      <point x="642" y="496" type="line"/>
      <point x="479" y="543"/>
      <point x="417" y="550"/>
      <point x="351" y="550" type="curve" smooth="yes"/>
      <point x="153" y="550"/>
      <point x="30" y="453"/>
      <point x="30" y="265" type="curve" smooth="yes"/>
      <point x="30" y="104"/>
      <point x="109" y="25"/>
      <point x="262" y="25" type="curve" smooth="yes"/>
      <point x="337" y="25"/>
      <point x="394" y="49"/>
      <point x="427" y="107" type="curve"/>
      <point x="436" y="107" type="line"/>
      <point x="436" y="46" type="line" smooth="yes"/>
      <point x="436" y="-38"/>
      <point x="358" y="-63"/>
      <point x="262" y="-63" type="curve" smooth="yes"/>
      <point x="196" y="-63"/>
      <point x="125" y="-53"/>
      <point x="79" y="-44" type="curve"/>
      <point x="67" y="-199" type="line"/>
      <point x="123" y="-211"/>
      <point x="224" y="-220"/>
    </contour>
    <contour>
      <point x="331" y="179" type="curve" smooth="yes"/>
      <point x="264" y="179"/>
      <point x="251" y="199"/>
      <point x="251" y="282" type="curve" smooth="yes"/>
      <point x="251" y="384"/>
      <point x="265" y="401"/>
      <point x="345" y="401" type="curve" smooth="yes"/>
      <point x="375" y="401"/>
      <point x="401" y="397"/>
      <point x="422" y="392" type="curve"/>
      <point x="422" y="289" type="line" smooth="yes"/>
      <point x="422" y="209"/>
      <point x="399" y="179"/>
    </contour>
  </outline>
</glyph>
<glyph name="h" format="1">
  <advance width="693"/>
  <unicode hex="0068"/>
  <outline>
    <contour>
      <point x="347" y="744" type="move" name="top"/>
    </contour>
    <contour>
      <point x="347" y="-83" type="move" name="bottom"/>
    </contour>
    <contour>
      <point x="52" y="0" type="line"/>
      <point x="272" y="0" type="line"/>
      <point x="272" y="358" type="line"/>
      <point x="312" y="371"/>
      <point x="355" y="379"/>
      <point x="379" y="379" type="curve" smooth="yes"/>
      <point x="411" y="379"/>
      <point x="424" y="363"/>
      <point x="424" y="325" type="curve" smooth="yes"/>
      <point x="424" y="0" type="line"/>
      <point x="644" y="0" type="line"/>
      <point x="644" y="398" type="line" smooth="yes"/>
      <point x="644" y="491"/>
      <point x="582" y="550"/>
      <point x="485" y="550" type="curve" smooth="yes"/>
      <point x="422" y="550"/>
      <point x="342" y="521"/>
      <point x="242" y="472" type="curve"/>
      <point x="272" y="447" type="line"/>
      <point x="272" y="808" type="line"/>
      <point x="52" y="808" type="line"/>
    </contour>
  </outline>
</glyph>
<glyph name="i" format="1">
  <advance width="324"/>
  <unicode hex="0069"/>
  <outline>
    <contour>
      <point x="186" y="41" type="move" name="ogonek"/>
    </contour>
    <contour>
      <point x="162" y="-83" type="move" name="bottom"/>
    </contour>
    <contour>
      <point x="162" y="595" type="curve" smooth="yes"/>
      <point x="248" y="595"/>
      <point x="279" y="632"/>
      <point x="279" y="709" type="curve" smooth="yes"/>
      <point x="279" y="785"/>
      <point x="247" y="822"/>
      <point x="162" y="822" type="curve" smooth="yes"/>
      <point x="78" y="822"/>
      <point x="46" y="788"/>
      <point x="46" y="709" type="curve" smooth="yes"/>
      <point x="46" y="629"/>
      <point x="79" y="595"/>
    </contour>
    <contour>
      <point x="52" y="0" type="line"/>
      <point x="272" y="0" type="line"/>
      <point x="272" y="540" type="line"/>
      <point x="52" y="540" type="line"/>
    </contour>
  </outline>
</glyph>
<glyph name="j" format="1">
  <advance width="322"/>
  <unicode hex="006A"/>
  <outline>
    <contour>
      <point x="161" y="595" type="curve" smooth="yes"/>
      <point x="246" y="595"/>
      <point x="278" y="632"/>
      <point x="278" y="709" type="curve" smooth="yes"/>
      <point x="278" y="785"/>
      <point x="246" y="822"/>
      <point x="161" y="822" type="curve" smooth="yes"/>
      <point x="77" y="822"/>
      <point x="44" y="788"/>
      <point x="44" y="709" type="curve" smooth="yes"/>
      <point x="44" y="629"/>
      <point x="77" y="595"/>
    </contour>
    <contour>
      <point x="179" y="-220" type="line"/>
      <point x="227" y="-135"/>
      <point x="260" y="-37"/>
      <point x="271" y="69" type="curve" smooth="yes"/>
      <point x="271" y="540" type="line"/>
      <point x="51" y="540" type="line"/>
      <point x="54" y="389"/>
      <point x="54" y="223"/>
      <point x="54" y="171" type="curve" smooth="yes"/>
      <point x="54" y="-3"/>
      <point x="45" y="-84"/>
      <point x="19" y="-195" type="curve"/>
    </contour>
  </outline>
</glyph>
<glyph name="k" format="1">
  <advance width="657"/>
  <unicode hex="006B"/>
  <outline>
    <contour>
      <point x="349" y="-83" type="move" name="bottom"/>
    </contour>
    <contour>
      <point x="52" y="0" type="line"/>
      <point x="272" y="0" type="line"/>
      <point x="272" y="211" type="line"/>
      <point x="307" y="211" type="line"/>
      <point x="433" y="0" type="line"/>
      <point x="672" y="0" type="line"/>
      <point x="489" y="271" type="line"/>
      <point x="460" y="277" type="line"/>
      <point x="460" y="281" type="line"/>
      <point x="489" y="287" type="line"/>
      <point x="654" y="540" type="line"/>
      <point x="414" y="540" type="line"/>
      <point x="309" y="346" type="line"/>
      <point x="272" y="346" type="line"/>
      <point x="272" y="808" type="line"/>
      <point x="52" y="808" type="line"/>
    </contour>
  </outline>
</glyph>
<glyph name="l" format="1">
  <advance width="324"/>
  <unicode hex="006C"/>
  <outline>
    <contour>
      <point x="162" y="891" type="move" name="top"/>
    </contour>
    <contour>
      <point x="333" y="370" type="move" name="periodcentered"/>
    </contour>
    <contour>
      <point x="332" y="674" type="move" name="caronalt"/>
    </contour>
    <contour>
      <point x="161" y="-83" type="move" name="bottom"/>
    </contour>
    <contour>
      <point x="52" y="0" type="line"/>
      <point x="272" y="0" type="line"/>
      <point x="272" y="808" type="line"/>
      <point x="52" y="808" type="line"/>
    </contour>
  </outline>
</glyph>
<glyph name="m" format="1">
  <advance width="1003"/>
  <unicode hex="006D"/>
  <outline>
    <contour>
      <point x="53" y="0" type="line"/>
      <point x="271" y="0" type="line"/>
      <point x="271" y="358" type="line"/>
      <point x="294" y="367"/>
      <point x="331" y="376"/>
      <point x="347" y="376" type="curve" smooth="yes"/>
      <point x="380" y="376"/>
      <point x="394" y="359"/>
      <point x="394" y="321" type="curve" smooth="yes"/>
      <point x="394" y="0" type="line"/>
      <point x="613" y="0" type="line"/>
      <point x="613" y="358" type="line"/>
      <point x="635" y="367"/>
      <point x="672" y="376"/>
      <point x="689" y="376" type="curve" smooth="yes"/>
      <point x="721" y="376"/>
      <point x="735" y="359"/>
      <point x="735" y="321" type="curve" smooth="yes"/>
      <point x="735" y="0" type="line"/>
      <point x="954" y="0" type="line"/>
      <point x="954" y="398" type="line" smooth="yes"/>
      <point x="954" y="491"/>
      <point x="892" y="550"/>
      <point x="794" y="550" type="curve" smooth="yes"/>
      <point x="734" y="550"/>
      <point x="665" y="522"/>
      <point x="598" y="478" type="curve"/>
      <point x="593" y="478" type="line"/>
      <point x="567" y="524"/>
      <point x="517" y="550"/>
      <point x="453" y="550" type="curve" smooth="yes"/>
      <point x="393" y="550"/>
      <point x="325" y="523"/>
      <point x="255" y="478" type="curve"/>
      <point x="247" y="478" type="line"/>
      <point x="236" y="540" type="line"/>
      <point x="53" y="540" type="line"/>
    </contour>
  </outline>
</glyph>
<glyph name="n" format="1">
  <advance width="694"/>
  <unicode hex="006E"/>
  <outline>
    <contour>
      <point x="14" y="674" type="move" name="apostrophe"/>
    </contour>
    <contour>
      <point x="351" y="656" type="move" name="top"/>
    </contour>
    <contour>
      <point x="347" y="-83" type="move" name="bottom"/>
    </contour>
    <contour>
      <point x="53" y="0" type="line"/>
      <point x="273" y="0" type="line"/>
      <point x="273" y="358" type="line"/>
      <point x="309" y="370"/>
      <point x="352" y="379"/>
      <point x="380" y="379" type="curve" smooth="yes"/>
      <point x="411" y="379"/>
      <point x="425" y="364"/>
      <point x="425" y="325" type="curve" smooth="yes"/>
      <point x="425" y="0" type="line"/>
      <point x="645" y="0" type="line"/>
      <point x="645" y="398" type="line" smooth="yes"/>
      <point x="645" y="491"/>
      <point x="583" y="550"/>
      <point x="486" y="550" type="curve" smooth="yes"/>
      <point x="425" y="550"/>
      <point x="353" y="528"/>
      <point x="257" y="478" type="curve"/>
      <point x="248" y="478" type="line"/>
      <point x="237" y="540" type="line"/>
      <point x="53" y="540" type="line"/>
    </contour>
  </outline>
</glyph>
<glyph name="o" format="1">
  <advance width="682"/>
  <unicode hex="006F"/>
  <outline>
    <contour>
      <point x="341" y="656" type="move" name="top"/>
    </contour>
    <contour>
      <point x="372" y="47" type="move" name="ogonek"/>
    </contour>
    <contour>
      <point x="342" y="-83" type="move" name="bottom"/>
    </contour>
    <contour>
      <point x="342" y="-11" type="curve" smooth="yes"/>
      <point x="546" y="-11"/>
      <point x="655" y="88"/>
      <point x="655" y="270" type="curve" smooth="yes"/>
      <point x="655" y="453"/>
      <point x="546" y="550"/>
      <point x="342" y="550" type="curve" smooth="yes"/>
      <point x="138" y="550"/>
      <point x="28" y="452"/>
      <point x="28" y="270" type="curve" smooth="yes"/>
      <point x="28" y="88"/>
      <point x="138" y="-11"/>
    </contour>
    <contour>
      <point x="342" y="154" type="curve" smooth="yes"/>
      <point x="269" y="154"/>
      <point x="248" y="175"/>
      <point x="248" y="270" type="curve" smooth="yes"/>
      <point x="248" y="365"/>
      <point x="269" y="385"/>
      <point x="342" y="385" type="curve" smooth="yes"/>
      <point x="414" y="385"/>
      <point x="435" y="365"/>
      <point x="435" y="270" type="curve" smooth="yes"/>
      <point x="435" y="174"/>
      <point x="414" y="154"/>
    </contour>
  </outline>
</glyph>
<glyph name="p" format="1">
  <advance width="695"/>
  <unicode hex="0070"/>
  <outline>
    <contour>
      <point x="53" y="-220" type="line"/>
      <point x="273" y="-220" type="line"/>
      <point x="273" y="-7" type="line"/>
      <point x="297" y="-10"/>
      <point x="321" y="-11"/>
      <point x="346" y="-11" type="curve" smooth="yes"/>
      <point x="543" y="-11"/>
      <point x="666" y="91"/>
      <point x="666" y="286" type="curve" smooth="yes"/>
      <point x="666" y="461"/>
      <point x="587" y="550"/>
      <point x="435" y="550" type="curve" smooth="yes"/>
      <point x="361" y="550"/>
      <point x="304" y="526"/>
      <point x="270" y="472" type="curve"/>
      <point x="261" y="472" type="line"/>
      <point x="245" y="540" type="line"/>
      <point x="53" y="540" type="line"/>
    </contour>
    <contour>
      <point x="351" y="139" type="curve" smooth="yes"/>
      <point x="320" y="139"/>
      <point x="293" y="142"/>
      <point x="273" y="148" type="curve"/>
      <point x="273" y="276" type="line" smooth="yes"/>
      <point x="273" y="362"/>
      <point x="296" y="392"/>
      <point x="364" y="392" type="curve" smooth="yes"/>
      <point x="432" y="392"/>
      <point x="445" y="369"/>
      <point x="445" y="269" type="curve" smooth="yes"/>
      <point x="445" y="158"/>
      <point x="431" y="139"/>
    </contour>
  </outline>
</glyph>
<glyph name="q" format="1">
  <advance width="693"/>
  <unicode hex="0071"/>
  <outline>
    <contour>
      <point x="431" y="-220" type="line"/>
      <point x="642" y="-220" type="line"/>
      <point x="642" y="524" type="line"/>
      <point x="567" y="534"/>
      <point x="460" y="551"/>
      <point x="353" y="551" type="curve" smooth="yes"/>
      <point x="151" y="551"/>
      <point x="29" y="451"/>
      <point x="29" y="254" type="curve" smooth="yes"/>
      <point x="29" y="79"/>
      <point x="107" y="-10"/>
      <point x="260" y="-10" type="curve" smooth="yes"/>
      <point x="333" y="-10"/>
      <point x="389" y="13"/>
      <point x="431" y="68" type="curve"/>
    </contour>
    <contour>
      <point x="331" y="148" type="curve" smooth="yes"/>
      <point x="261" y="148"/>
      <point x="248" y="172"/>
      <point x="248" y="274" type="curve" smooth="yes"/>
      <point x="248" y="384"/>
      <point x="261" y="401"/>
      <point x="344" y="401" type="curve" smooth="yes"/>
      <point x="375" y="401"/>
      <point x="402" y="398"/>
      <point x="422" y="393" type="curve"/>
      <point x="422" y="264" type="line" smooth="yes"/>
      <point x="422" y="179"/>
      <point x="399" y="148"/>
    </contour>
  </outline>
</glyph>
<glyph name="r" format="1">
  <advance width="492"/>
  <unicode hex="0072"/>
  <outline>
    <contour>
      <point x="268" y="656" type="move" name="top"/>
    </contour>
    <contour>
      <point x="161" y="-83" type="move" name="bottom"/>
    </contour>
    <contour>
      <point x="53" y="0" type="line"/>
      <point x="273" y="0" type="line"/>
      <point x="273" y="328" type="line"/>
      <point x="296" y="348"/>
      <point x="351" y="367"/>
      <point x="405" y="372" type="curve"/>
      <point x="482" y="372" type="line"/>
      <point x="482" y="550" type="line"/>
      <point x="412" y="550" type="line"/>
      <point x="360" y="536"/>
      <point x="292" y="496"/>
      <point x="253" y="457" type="curve"/>
      <point x="248" y="457" type="line"/>
      <point x="237" y="540" type="line"/>
      <point x="53" y="540" type="line"/>
    </contour>
  </outline>
</glyph>
<glyph name="s" format="1">
  <advance width="573"/>
  <unicode hex="0073"/>
  <outline>
    <contour>
      <point x="297" y="659" type="move" name="top"/>
    </contour>
    <contour>
      <point x="290" y="-79" type="move" name="bottom"/>
    </contour>
    <contour>
      <point x="273" y="-11" type="curve" smooth="yes"/>
      <point x="454" y="-11"/>
      <point x="546" y="51"/>
      <point x="546" y="173" type="curve" smooth="yes"/>
      <point x="546" y="284"/>
      <point x="470" y="328"/>
      <point x="347" y="339" type="curve" smooth="yes"/>
      <point x="272" y="347"/>
      <point x="248" y="354"/>
      <point x="248" y="373" type="curve" smooth="yes"/>
      <point x="248" y="391"/>
      <point x="269" y="399"/>
      <point x="319" y="399" type="curve" smooth="yes"/>
      <point x="365" y="399"/>
      <point x="438" y="389"/>
      <point x="517" y="372" type="curve"/>
      <point x="522" y="530" type="line"/>
      <point x="425" y="545"/>
      <point x="360" y="551"/>
      <point x="295" y="551" type="curve" smooth="yes"/>
      <point x="135" y="551"/>
      <point x="39" y="482"/>
      <point x="39" y="366" type="curve" smooth="yes"/>
      <point x="39" y="204"/>
      <point x="167" y="196"/>
      <point x="257" y="188" type="curve" smooth="yes"/>
      <point x="317" y="183"/>
      <point x="336" y="174"/>
      <point x="336" y="156" type="curve" smooth="yes"/>
      <point x="336" y="139"/>
      <point x="316" y="133"/>
      <point x="263" y="133" type="curve" smooth="yes"/>
      <point x="196" y="133"/>
      <point x="123" y="142"/>
      <point x="36" y="160" type="curve"/>
      <point x="36" y="13" type="line"/>
      <point x="109" y="-2"/>
      <point x="206" y="-11"/>
    </contour>
  </outline>
</glyph>
<glyph name="t" format="1">
  <advance width="479"/>
  <unicode hex="0074"/>
  <outline>
    <contour>
      <point x="431" y="674" type="move" name="caronalt"/>
    </contour>
    <contour>
      <point x="223" y="-83" type="move" name="bottom"/>
    </contour>
    <contour>
      <point x="313" y="-15" type="curve" smooth="yes"/>
      <point x="362" y="-15"/>
      <point x="416" y="-8"/>
      <point x="446" y="2" type="curve"/>
      <point x="446" y="162" type="line"/>
      <point x="426" y="154"/>
      <point x="406" y="150"/>
      <point x="389" y="150" type="curve" smooth="yes"/>
      <point x="340" y="150"/>
      <point x="323" y="167"/>
      <point x="323" y="223" type="curve" smooth="yes"/>
      <point x="323" y="357" type="line"/>
      <point x="446" y="357" type="line"/>
      <point x="446" y="540" type="line"/>
      <point x="321" y="540" type="line"/>
      <point x="321" y="728" type="line"/>
      <point x="151" y="710" type="line"/>
      <point x="118" y="540" type="line"/>
      <point x="19" y="540" type="line"/>
      <point x="19" y="357" type="line"/>
      <point x="103" y="357" type="line"/>
      <point x="103" y="171" type="line" smooth="yes"/>
      <point x="103" y="50"/>
      <point x="176" y="-15"/>
    </contour>
  </outline>
</glyph>
<glyph name="u" format="1">
  <advance width="694"/>
  <unicode hex="0075"/>
  <outline>
    <contour>
      <point x="339" y="656" type="move" name="top"/>
    </contour>
    <contour>
      <point x="390" y="41" type="move" name="ogonek"/>
    </contour>
    <contour>
      <point x="332" y="-83" type="move" name="bottom"/>
    </contour>
    <contour>
      <point x="213" y="-10" type="curve" smooth="yes"/>
      <point x="309" y="-10"/>
      <point x="347" y="8"/>
      <point x="442" y="61" type="curve"/>
      <point x="446" y="61" type="line"/>
      <point x="457" y="0" type="line"/>
      <point x="641" y="0" type="line"/>
      <point x="641" y="540" type="line"/>
      <point x="421" y="540" type="line"/>
      <point x="421" y="174" type="line"/>
      <point x="384" y="161"/>
      <point x="342" y="152"/>
      <point x="315" y="152" type="curve" smooth="yes"/>
      <point x="283" y="152"/>
      <point x="269" y="169"/>
      <point x="269" y="207" type="curve" smooth="yes"/>
      <point x="269" y="540" type="line"/>
      <point x="49" y="540" type="line"/>
      <point x="49" y="142" type="line" smooth="yes"/>
      <point x="49" y="49"/>
      <point x="109" y="-10"/>
    </contour>
  </outline>
</glyph>
<glyph name="v" format="1">
  <advance width="667"/>
  <unicode hex="0076"/>
  <outline>
    <contour>
      <point x="200" y="0" type="line"/>
      <point x="465" y="0" type="line"/>
      <point x="666" y="520" type="line"/>
      <point x="666" y="540" type="line"/>
      <point x="432" y="540" type="line"/>
      <point x="371" y="321" type="line"/>
      <point x="341" y="176" type="line"/>
      <point x="330" y="176" type="line"/>
      <point x="300" y="321" type="line"/>
      <point x="242" y="540" type="line"/>
      <point x="3" y="540" type="line"/>
      <point x="3" y="520" type="line"/>
    </contour>
  </outline>
</glyph>
<glyph name="w" format="1">
  <advance width="891"/>
  <unicode hex="0077"/>
  <outline>
    <contour>
      <point x="442" y="656" type="move" name="top"/>
    </contour>
    <contour>
      <point x="151" y="0" type="line"/>
      <point x="389" y="0" type="line"/>
      <point x="433" y="224" type="line"/>
      <point x="439" y="285" type="line"/>
      <point x="452" y="285" type="line"/>
      <point x="458" y="224" type="line"/>
      <point x="502" y="0" type="line"/>
      <point x="740" y="0" type="line"/>
      <point x="884" y="536" type="line"/>
      <point x="884" y="540" type="line"/>
      <point x="667" y="540" type="line"/>
      <point x="618" y="266" type="line"/>
      <point x="611" y="200" type="line"/>
      <point x="598" y="200" type="line"/>
      <point x="591" y="266" type="line"/>
      <point x="534" y="540" type="line"/>
      <point x="357" y="540" type="line"/>
      <point x="300" y="266" type="line"/>
      <point x="293" y="200" type="line"/>
      <point x="280" y="200" type="line"/>
      <point x="273" y="266" type="line"/>
      <point x="224" y="540" type="line"/>
      <point x="7" y="540" type="line"/>
      <point x="7" y="536" type="line"/>
    </contour>
  </outline>
</glyph>
<glyph name="x" format="1">
  <advance width="659"/>
  <unicode hex="0078"/>
  <outline>
    <contour>
      <point x="0" y="0" type="line"/>
      <point x="232" y="0" type="line"/>
      <point x="299" y="107" type="line"/>
      <point x="324" y="159" type="line"/>
      <point x="334" y="159" type="line"/>
      <point x="359" y="107" type="line"/>
      <point x="427" y="0" type="line"/>
      <point x="659" y="0" type="line"/>
      <point x="659" y="19" type="line"/>
      <point x="480" y="276" type="line"/>
      <point x="653" y="529" type="line"/>
      <point x="653" y="540" type="line"/>
      <point x="421" y="540" type="line"/>
      <point x="360" y="442" type="line"/>
      <point x="335" y="397" type="line"/>
      <point x="325" y="397" type="line"/>
      <point x="300" y="442" type="line"/>
      <point x="238" y="540" type="line"/>
      <point x="7" y="540" type="line"/>
      <point x="7" y="529" type="line"/>
      <point x="180" y="280" type="line"/>
      <point x="0" y="19" type="line"/>
    </contour>
  </outline>
</glyph>
<glyph name="y" format="1">
  <advance width="666"/>
  <unicode hex="0079"/>
  <outline>
    <contour>
      <point x="336" y="656" type="move" name="top"/>
    </contour>
    <contour>
      <point x="361" y="-220" type="line"/>
      <point x="665" y="519" type="line"/>
      <point x="665" y="540" type="line"/>
      <point x="432" y="540" type="line"/>
      <point x="369" y="342" type="line"/>
      <point x="339" y="219" type="line"/>
      <point x="328" y="219" type="line"/>
      <point x="297" y="342" type="line"/>
      <point x="237" y="540" type="line"/>
      <point x="-2" y="540" type="line"/>
      <point x="-2" y="519" type="line"/>
      <point x="224" y="10" type="line"/>
      <point x="152" y="-176" type="line"/>
      <point x="152" y="-192" type="line"/>
    </contour>
  </outline>
</glyph>
<glyph name="z" format="1">
  <advance width="600"/>
  <unicode hex="007A"/>
  <outline>
    <contour>
      <point x="304" y="656" type="move" name="top"/>
    </contour>
    <contour>
      <point x="300" y="-83" type="move" name="bottom"/>
    </contour>
    <contour>
      <point x="34" y="0" type="line"/>
      <point x="567" y="0" type="line"/>
      <point x="567" y="158" type="line"/>
      <point x="324" y="158" type="line"/>
      <point x="324" y="169" type="line"/>
      <point x="557" y="402" type="line"/>
      <point x="557" y="540" type="line"/>
      <point x="43" y="540" type="line"/>
      <point x="43" y="383" type="line"/>
      <point x="281" y="383" type="line"/>
      <point x="281" y="373" type="line"/>
      <point x="34" y="138" type="line"/>
    </contour>
  </outline>
</glyph>
<glyph name="braceleft" format="1">
  <advance width="347"/>
  <unicode hex="007B"/>
  <outline>
    <contour>
      <point x="25" y="275" type="line"/>
      <point x="72" y="275"/>
      <point x="82" y="248"/>
      <point x="82" y="194" type="curve" smooth="yes"/>
      <point x="82" y="-33" type="line" smooth="yes"/>
      <point x="82" y="-125"/>
      <point x="118" y="-160"/>
      <point x="198" y="-160" type="curve" smooth="yes"/>
      <point x="223" y="-160"/>
      <point x="302" y="-157"/>
      <point x="314" y="-155" type="curve"/>
      <point x="314" y="-22" type="line"/>
      <point x="300" y="-22" type="line" smooth="yes"/>
      <point x="268" y="-22"/>
      <point x="255" y="-9"/>
      <point x="255" y="20" type="curve" smooth="yes"/>
      <point x="255" y="240" type="line" smooth="yes"/>
      <point x="255" y="302"/>
      <point x="221" y="347"/>
      <point x="171" y="354" type="curve"/>
      <point x="221" y="363"/>
      <point x="255" y="410"/>
      <point x="255" y="472" type="curve" smooth="yes"/>
      <point x="255" y="688" type="line" smooth="yes"/>
      <point x="255" y="717"/>
      <point x="268" y="730"/>
      <point x="300" y="730" type="curve" smooth="yes"/>
      <point x="314" y="730" type="line"/>
      <point x="314" y="863" type="line"/>
      <point x="302" y="865"/>
      <point x="223" y="868"/>
      <point x="198" y="868" type="curve" smooth="yes"/>
      <point x="118" y="868"/>
      <point x="82" y="833"/>
      <point x="82" y="741" type="curve" smooth="yes"/>
      <point x="82" y="517" type="line" smooth="yes"/>
      <point x="82" y="463"/>
      <point x="72" y="435"/>
      <point x="25" y="435" type="curve"/>
    </contour>
  </outline>
</glyph>
<glyph name="bar" format="1">
  <advance width="347"/>
  <unicode hex="007C"/>
  <outline>
    <contour>
      <point x="71" y="808" type="line"/>
      <point x="71" y="-220" type="line"/>
      <point x="276" y="-220" type="line"/>
      <point x="276" y="808" type="line"/>
    </contour>
  </outline>
</glyph>
<glyph name="braceright" format="1">
  <advance width="347"/>
  <unicode hex="007D"/>
  <outline>
    <contour>
      <point x="322" y="435" type="line"/>
      <point x="275" y="435"/>
      <point x="265" y="463"/>
      <point x="265" y="517" type="curve" smooth="yes"/>
      <point x="265" y="741" type="line" smooth="yes"/>
      <point x="265" y="833"/>
      <point x="229" y="868"/>
      <point x="149" y="868" type="curve" smooth="yes"/>
      <point x="124" y="868"/>
      <point x="45" y="865"/>
      <point x="33" y="863" type="curve"/>
      <point x="33" y="730" type="line"/>
      <point x="47" y="730" type="line" smooth="yes"/>
      <point x="79" y="730"/>
      <point x="92" y="717"/>
      <point x="92" y="688" type="curve" smooth="yes"/>
      <point x="92" y="472" type="line" smooth="yes"/>
      <point x="92" y="410"/>
      <point x="126" y="363"/>
      <point x="176" y="354" type="curve"/>
      <point x="126" y="347"/>
      <point x="92" y="302"/>
      <point x="92" y="240" type="curve" smooth="yes"/>
      <point x="92" y="20" type="line" smooth="yes"/>
      <point x="92" y="-9"/>
      <point x="79" y="-22"/>
      <point x="47" y="-22" type="curve" smooth="yes"/>
      <point x="33" y="-22" type="line"/>
      <point x="33" y="-155" type="line"/>
      <point x="45" y="-157"/>
      <point x="124" y="-160"/>
      <point x="149" y="-160" type="curve" smooth="yes"/>
      <point x="229" y="-160"/>
      <point x="265" y="-125"/>
      <point x="265" y="-33" type="curve" smooth="yes"/>
      <point x="265" y="194" type="line" smooth="yes"/>
      <point x="265" y="248"/>
      <point x="275" y="275"/>
      <point x="322" y="275" type="curve"/>
    </contour>
  </outline>
</glyph>
<glyph name="asciitilde" format="1">
  <advance width="719"/>
  <unicode hex="007E"/>
  <outline>
    <contour>
      <point x="141" y="168" type="line"/>
      <point x="179" y="220"/>
      <point x="217" y="247"/>
      <point x="260" y="247" type="curve" smooth="yes"/>
      <point x="331" y="247"/>
      <point x="390" y="171"/>
      <point x="483" y="171" type="curve" smooth="yes"/>
      <point x="583" y="171"/>
      <point x="647" y="278"/>
      <point x="695" y="347" type="curve" smooth="yes"/>
      <point x="579" y="416" type="line"/>
      <point x="540" y="363"/>
      <point x="504" y="337"/>
      <point x="460" y="337" type="curve" smooth="yes"/>
      <point x="389" y="337"/>
      <point x="330" y="412"/>
      <point x="237" y="412" type="curve" smooth="yes"/>
      <point x="168" y="412"/>
      <point x="123" y="380"/>
      <point x="25" y="260" type="curve"/>
    </contour>
  </outline>
</glyph>
<glyph name="cent" format="1">
  <advance width="553"/>
  <unicode hex="00A2"/>
  <outline>
    <contour>
      <point x="268" y="-120" type="line"/>
      <point x="399" y="-120" type="line"/>
      <point x="399" y="77" type="line"/>
      <point x="268" y="67" type="line"/>
    </contour>
    <contour>
      <point x="268" y="468" type="line"/>
      <point x="399" y="478" type="line"/>
      <point x="399" y="660" type="line"/>
      <point x="268" y="660" type="line"/>
    </contour>
    <component base="c" xOffset="-1"/>
  </outline>
</glyph>
<glyph name="sterling" format="1">
  <advance width="744"/>
  <unicode hex="00A3"/>
  <outline>
    <contour>
      <point x="38" y="0" type="line"/>
      <point x="694" y="0" type="line"/>
      <point x="694" y="188" type="line"/>
      <point x="413" y="188" type="line"/>
      <point x="413" y="509" type="line"/>
      <point x="413" y="552"/>
      <point x="446" y="567"/>
      <point x="538" y="567" type="curve" smooth="yes"/>
      <point x="585" y="567"/>
      <point x="643" y="561"/>
      <point x="703" y="551" type="curve"/>
      <point x="708" y="725" type="line"/>
      <point x="632" y="743"/>
      <point x="578" y="750"/>
      <point x="508" y="750" type="curve" smooth="yes"/>
      <point x="295" y="750"/>
      <point x="188" y="671"/>
      <point x="188" y="511" type="curve" smooth="yes"/>
      <point x="188" y="190" type="line"/>
      <point x="38" y="190" type="line"/>
    </contour>
    <contour>
      <point x="38" y="291" type="line"/>
      <point x="620" y="291" type="line"/>
      <point x="620" y="458" type="line"/>
      <point x="38" y="458" type="line"/>
    </contour>
  </outline>
</glyph>
<glyph name="currency" format="1">
  <advance width="648"/>
  <unicode hex="00A4"/>
  <outline>
    <contour>
      <point x="76" y="370" type="curve" smooth="yes"/>
      <point x="76" y="260"/>
      <point x="175" y="187"/>
      <point x="324" y="187" type="curve" smooth="yes"/>
      <point x="472" y="187"/>
      <point x="571" y="260"/>
      <point x="571" y="370" type="curve" smooth="yes"/>
      <point x="571" y="479"/>
      <point x="472" y="552"/>
      <point x="324" y="552" type="curve" smooth="yes"/>
      <point x="175" y="552"/>
      <point x="76" y="479"/>
    </contour>
    <contour>
      <point x="204" y="370" type="curve" smooth="yes"/>
      <point x="204" y="423"/>
      <point x="251" y="449"/>
      <point x="324" y="449" type="curve" smooth="yes"/>
      <point x="394" y="449"/>
      <point x="443" y="425"/>
      <point x="443" y="370" type="curve" smooth="yes"/>
      <point x="443" y="317"/>
      <point x="397" y="290"/>
      <point x="324" y="290" type="curve" smooth="yes"/>
      <point x="251" y="290"/>
      <point x="204" y="318"/>
    </contour>
    <contour>
      <point x="41" y="577" type="line"/>
      <point x="96" y="523" type="line"/>
      <point x="198" y="450" type="line"/>
      <point x="244" y="496" type="line"/>
      <point x="171" y="598" type="line"/>
      <point x="116" y="653" type="line"/>
    </contour>
    <contour>
      <point x="116" y="87" type="line"/>
      <point x="171" y="142" type="line"/>
      <point x="246" y="249" type="line"/>
      <point x="203" y="294" type="line"/>
      <point x="96" y="217" type="line"/>
      <point x="41" y="163" type="line"/>
    </contour>
    <contour>
      <point x="607" y="163" type="line"/>
      <point x="552" y="217" type="line"/>
      <point x="446" y="293" type="line"/>
      <point x="401" y="249" type="line"/>
      <point x="477" y="142" type="line"/>
      <point x="531" y="87" type="line"/>
    </contour>
    <contour>
      <point x="531" y="653" type="line"/>
      <point x="477" y="598" type="line"/>
      <point x="397" y="487" type="line"/>
      <point x="446" y="447" type="line"/>
      <point x="552" y="523" type="line"/>
      <point x="607" y="577" type="line"/>
    </contour>
  </outline>
</glyph>
<glyph name="yen" format="1">
  <advance width="833"/>
  <unicode hex="00A5"/>
  <outline>
    <contour>
      <point x="104" y="51" type="line"/>
      <point x="721" y="51" type="line"/>
      <point x="721" y="182" type="line"/>
      <point x="104" y="182" type="line"/>
    </contour>
    <contour>
      <point x="104" y="246" type="line"/>
      <point x="721" y="246" type="line"/>
      <point x="721" y="377" type="line"/>
      <point x="104" y="377" type="line"/>
    </contour>
    <component base="Y" xOffset="36"/>
  </outline>
</glyph>
<glyph name="brokenbar" format="1">
  <advance width="349"/>
  <unicode hex="00A6"/>
  <outline>
    <contour>
      <point x="72" y="-220" type="line"/>
      <point x="277" y="-220" type="line"/>
      <point x="277" y="205" type="line"/>
      <point x="72" y="205" type="line"/>
    </contour>
    <contour>
      <point x="72" y="383" type="line"/>
      <point x="277" y="383" type="line"/>
      <point x="277" y="808" type="line"/>
      <point x="72" y="808" type="line"/>
    </contour>
  </outline>
</glyph>
<glyph name="section" format="1">
  <advance width="599"/>
  <unicode hex="00A7"/>
  <outline>
    <contour>
      <point x="284" y="-11" type="curve" smooth="yes"/>
      <point x="465" y="-11"/>
      <point x="557" y="51"/>
      <point x="557" y="173" type="curve" smooth="yes"/>
      <point x="557" y="215"/>
      <point x="543" y="246"/>
      <point x="517" y="269" type="curve"/>
      <point x="544" y="298"/>
      <point x="557" y="336"/>
      <point x="557" y="383" type="curve" smooth="yes"/>
      <point x="557" y="494"/>
      <point x="481" y="538"/>
      <point x="358" y="549" type="curve" smooth="yes"/>
      <point x="283" y="557"/>
      <point x="259" y="564"/>
      <point x="259" y="583" type="curve" smooth="yes"/>
      <point x="259" y="601"/>
      <point x="280" y="609"/>
      <point x="330" y="609" type="curve" smooth="yes"/>
      <point x="376" y="609"/>
      <point x="449" y="599"/>
      <point x="528" y="582" type="curve"/>
      <point x="533" y="740" type="line"/>
      <point x="436" y="755"/>
      <point x="371" y="761"/>
      <point x="306" y="761" type="curve" smooth="yes"/>
      <point x="146" y="761"/>
      <point x="50" y="692"/>
      <point x="50" y="576" type="curve" smooth="yes"/>
      <point x="50" y="528"/>
      <point x="64" y="495"/>
      <point x="86" y="472" type="curve"/>
      <point x="63" y="443"/>
      <point x="50" y="408"/>
      <point x="50" y="366" type="curve" smooth="yes"/>
      <point x="50" y="204"/>
      <point x="178" y="196"/>
      <point x="268" y="188" type="curve" smooth="yes"/>
      <point x="328" y="183"/>
      <point x="347" y="174"/>
      <point x="347" y="156" type="curve" smooth="yes"/>
      <point x="347" y="139"/>
      <point x="327" y="133"/>
      <point x="274" y="133" type="curve" smooth="yes"/>
      <point x="207" y="133"/>
      <point x="134" y="142"/>
      <point x="47" y="160" type="curve"/>
      <point x="47" y="13" type="line"/>
      <point x="120" y="-2"/>
      <point x="217" y="-11"/>
    </contour>
    <contour>
      <point x="345" y="324" type="curve"/>
      <point x="341" y="324"/>
      <point x="312" y="329"/>
      <point x="310" y="330" type="curve" smooth="yes"/>
      <point x="269" y="339"/>
      <point x="257" y="353"/>
      <point x="257" y="385" type="curve" smooth="yes"/>
      <point x="257" y="396"/>
      <point x="259" y="406"/>
      <point x="266" y="415" type="curve"/>
      <point x="268" y="415"/>
      <point x="300" y="409"/>
      <point x="302" y="408" type="curve" smooth="yes"/>
      <point x="338" y="402"/>
      <point x="350" y="388"/>
      <point x="350" y="350" type="curve" smooth="yes"/>
      <point x="350" y="340"/>
      <point x="348" y="331"/>
    </contour>
  </outline>
</glyph>
<glyph name="dieresis" format="1">
  <advance width="575"/>
  <unicode hex="00A8"/>
  <outline>
    <contour>
      <point x="285" y="656" type="move" name="_top"/>
    </contour>
    <contour>
      <point x="144" y="607" type="curve" smooth="yes"/>
      <point x="220" y="607"/>
      <point x="249" y="637"/>
      <point x="249" y="709" type="curve" smooth="yes"/>
      <point x="249" y="777"/>
      <point x="220" y="810"/>
      <point x="144" y="810" type="curve" smooth="yes"/>
      <point x="69" y="810"/>
      <point x="39" y="780"/>
      <point x="39" y="709" type="curve" smooth="yes"/>
      <point x="39" y="637"/>
      <point x="69" y="607"/>
    </contour>
    <contour>
      <point x="428" y="607" type="curve" smooth="yes"/>
      <point x="503" y="607"/>
      <point x="532" y="637"/>
      <point x="532" y="709" type="curve" smooth="yes"/>
      <point x="532" y="777"/>
      <point x="503" y="810"/>
      <point x="428" y="810" type="curve" smooth="yes"/>
      <point x="353" y="810"/>
      <point x="323" y="780"/>
      <point x="323" y="709" type="curve" smooth="yes"/>
      <point x="323" y="637"/>
      <point x="353" y="607"/>
    </contour>
  </outline>
</glyph>
<glyph name="copyright" format="1">
  <advance width="808"/>
  <unicode hex="00A9"/>
  <outline>
    <contour>
      <point x="419" y="164" type="curve" smooth="yes"/>
      <point x="451" y="164"/>
      <point x="488" y="168"/>
      <point x="512" y="175" type="curve"/>
      <point x="512" y="278" type="line"/>
      <point x="476" y="271"/>
      <point x="446" y="269"/>
      <point x="432" y="269" type="curve" smooth="yes"/>
      <point x="368" y="269"/>
      <point x="355" y="299"/>
      <point x="355" y="370" type="curve" smooth="yes"/>
      <point x="355" y="440"/>
      <point x="368" y="469"/>
      <point x="434" y="469" type="curve" smooth="yes"/>
      <point x="450" y="469"/>
      <point x="476" y="467"/>
      <point x="512" y="460" type="curve"/>
      <point x="512" y="563" type="line"/>
      <point x="488" y="570"/>
      <point x="451" y="574"/>
      <point x="419" y="574" type="curve" smooth="yes"/>
      <point x="291" y="574"/>
      <point x="229" y="505"/>
      <point x="229" y="369" type="curve" smooth="yes"/>
      <point x="229" y="233"/>
      <point x="291" y="164"/>
    </contour>
    <contour>
      <point x="404" y="-10" type="curve" smooth="yes"/>
      <point x="628" y="-10"/>
      <point x="774" y="144"/>
      <point x="774" y="370" type="curve" smooth="yes"/>
      <point x="774" y="596"/>
      <point x="628" y="750"/>
      <point x="404" y="750" type="curve" smooth="yes"/>
      <point x="180" y="750"/>
      <point x="34" y="596"/>
      <point x="34" y="370" type="curve" smooth="yes"/>
      <point x="34" y="144"/>
      <point x="180" y="-10"/>
    </contour>
    <contour>
      <point x="404" y="88" type="curve" smooth="yes"/>
      <point x="236" y="88"/>
      <point x="139" y="200"/>
      <point x="139" y="370" type="curve" smooth="yes"/>
      <point x="139" y="540"/>
      <point x="236" y="652"/>
      <point x="404" y="652" type="curve" smooth="yes"/>
      <point x="571" y="652"/>
      <point x="668" y="540"/>
      <point x="668" y="370" type="curve" smooth="yes"/>
      <point x="668" y="200"/>
      <point x="571" y="88"/>
    </contour>
  </outline>
</glyph>
<glyph name="ordfeminine" format="1">
  <advance width="503"/>
  <unicode hex="00AA"/>
  <outline>
    <contour>
      <point x="161" y="348" type="curve" smooth="yes"/>
      <point x="212" y="348"/>
      <point x="266" y="370"/>
      <point x="298" y="399" type="curve"/>
      <point x="302" y="399" type="line"/>
      <point x="310" y="352" type="line"/>
      <point x="456" y="352" type="line"/>
      <point x="456" y="622" type="line" smooth="yes"/>
      <point x="456" y="708"/>
      <point x="392" y="746"/>
      <point x="241" y="746" type="curve" smooth="yes"/>
      <point x="183" y="746"/>
      <point x="119" y="740"/>
      <point x="62" y="729" type="curve"/>
      <point x="69" y="624" type="line"/>
      <point x="119" y="630"/>
      <point x="180" y="634"/>
      <point x="224" y="634" type="curve" smooth="yes"/>
      <point x="279" y="634"/>
      <point x="282" y="634"/>
      <point x="282" y="577" type="curve" smooth="yes"/>
      <point x="282" y="473" type="line"/>
      <point x="271" y="467"/>
      <point x="250" y="463"/>
      <point x="234" y="463" type="curve" smooth="yes"/>
      <point x="209" y="463"/>
      <point x="197" y="472"/>
      <point x="197" y="487" type="curve" smooth="yes"/>
      <point x="197" y="500"/>
      <point x="207" y="502"/>
      <point x="232" y="506" type="curve" smooth="yes"/>
      <point x="311" y="513" type="line"/>
      <point x="303" y="598" type="line"/>
      <point x="183" y="594" type="line" smooth="yes"/>
      <point x="83" y="586"/>
      <point x="26" y="550"/>
      <point x="26" y="475" type="curve" smooth="yes"/>
      <point x="26" y="398"/>
      <point x="78" y="348"/>
    </contour>
  </outline>
</glyph>
<glyph name="logicalnot" format="1">
  <advance width="893"/>
  <unicode hex="00AC"/>
  <outline>
    <contour>
      <point x="39" y="272" type="line"/>
      <point x="620" y="272" type="line"/>
      <point x="620" y="89" type="line"/>
      <point x="835" y="89" type="line"/>
      <point x="835" y="448" type="line"/>
      <point x="39" y="448" type="line"/>
    </contour>
  </outline>
</glyph>
<glyph name="uni00AD" format="1">
  <advance width="552"/>
  <unicode hex="00AD"/>
  <outline>
    <contour>
      <point x="49" y="201" type="line"/>
      <point x="503" y="201" type="line"/>
      <point x="503" y="359" type="line"/>
      <point x="49" y="359" type="line"/>
    </contour>
  </outline>
</glyph>
<glyph name="registered" format="1">
  <advance width="689"/>
  <unicode hex="00AE"/>
  <outline>
    <contour>
      <point x="236" y="303" type="line"/>
      <point x="316" y="303" type="line"/>
      <point x="316" y="402" type="line"/>
      <point x="347" y="402" type="line"/>
      <point x="392" y="303" type="line"/>
      <point x="473" y="303" type="line"/>
      <point x="413" y="423" type="line"/>
      <point x="413" y="425" type="line"/>
      <point x="449" y="437"/>
      <point x="467" y="469"/>
      <point x="467" y="513" type="curve" smooth="yes"/>
      <point x="467" y="579"/>
      <point x="424" y="613"/>
      <point x="335" y="613" type="curve" smooth="yes"/>
      <point x="303" y="613"/>
      <point x="270" y="611"/>
      <point x="236" y="608" type="curve"/>
    </contour>
    <contour>
      <point x="335" y="462" type="curve" smooth="yes"/>
      <point x="316" y="462" type="line"/>
      <point x="316" y="556" type="line"/>
      <point x="343" y="556" type="line" smooth="yes"/>
      <point x="376" y="556"/>
      <point x="385" y="538"/>
      <point x="385" y="511" type="curve" smooth="yes"/>
      <point x="385" y="476"/>
      <point x="376" y="462"/>
    </contour>
    <contour>
      <point x="344" y="144" type="curve" smooth="yes"/>
      <point x="529" y="144"/>
      <point x="650" y="267"/>
      <point x="650" y="448" type="curve" smooth="yes"/>
      <point x="650" y="629"/>
      <point x="529" y="752"/>
      <point x="344" y="752" type="curve" smooth="yes"/>
      <point x="159" y="752"/>
      <point x="38" y="629"/>
      <point x="38" y="448" type="curve" smooth="yes"/>
      <point x="38" y="267"/>
      <point x="159" y="144"/>
    </contour>
    <contour>
      <point x="344" y="222" type="curve" smooth="yes"/>
      <point x="204" y="222"/>
      <point x="122" y="311"/>
      <point x="122" y="448" type="curve" smooth="yes"/>
      <point x="122" y="585"/>
      <point x="204" y="674"/>
      <point x="344" y="674" type="curve" smooth="yes"/>
      <point x="483" y="674"/>
      <point x="566" y="585"/>
      <point x="566" y="448" type="curve" smooth="yes"/>
      <point x="566" y="311"/>
      <point x="483" y="222"/>
    </contour>
  </outline>
</glyph>
<glyph name="macron" format="1">
  <advance width="543"/>
  <unicode hex="00AF"/>
  <outline>
    <contour>
      <point x="266" y="656" type="move" name="_top"/>
    </contour>
    <contour>
      <point x="49" y="637" type="line"/>
      <point x="484" y="637" type="line"/>
      <point x="484" y="776" type="line"/>
      <point x="49" y="776" type="line"/>
    </contour>
  </outline>
</glyph>
<glyph name="degree" format="1">
  <advance width="499"/>
  <unicode hex="00B0"/>
  <outline>
    <contour>
      <point x="250" y="371" type="curve" smooth="yes"/>
      <point x="383" y="371"/>
      <point x="476" y="450"/>
      <point x="476" y="560" type="curve" smooth="yes"/>
      <point x="476" y="670"/>
      <point x="383" y="750"/>
      <point x="250" y="750" type="curve" smooth="yes"/>
      <point x="116" y="750"/>
      <point x="23" y="670"/>
      <point x="23" y="560" type="curve" smooth="yes"/>
      <point x="23" y="450"/>
      <point x="116" y="371"/>
    </contour>
    <contour>
      <point x="250" y="480" type="curve" smooth="yes"/>
      <point x="184" y="480"/>
      <point x="153" y="509"/>
      <point x="153" y="560" type="curve" smooth="yes"/>
      <point x="153" y="611"/>
      <point x="184" y="641"/>
      <point x="250" y="641" type="curve" smooth="yes"/>
      <point x="315" y="641"/>
      <point x="345" y="611"/>
      <point x="345" y="560" type="curve" smooth="yes"/>
      <point x="345" y="509"/>
      <point x="315" y="480"/>
    </contour>
  </outline>
</glyph>
<glyph name="plusminus" format="1">
  <advance width="548"/>
  <unicode hex="00B1"/>
  <outline>
    <contour>
      <point x="46" y="357" type="line"/>
      <point x="500" y="357" type="line"/>
      <point x="500" y="491" type="line"/>
      <point x="46" y="491" type="line"/>
    </contour>
    <contour>
      <point x="47" y="34" type="line"/>
      <point x="501" y="34" type="line"/>
      <point x="501" y="168" type="line"/>
      <point x="47" y="168" type="line"/>
    </contour>
    <contour>
      <point x="206" y="212" type="line"/>
      <point x="340" y="212" type="line"/>
      <point x="340" y="646" type="line"/>
      <point x="206" y="646" type="line"/>
    </contour>
  </outline>
</glyph>
<glyph name="twosuperior" format="1">
  <advance width="526"/>
  <unicode hex="00B2"/>
  <outline>
    <contour>
      <point x="25" y="300" type="line"/>
      <point x="492" y="300" type="line"/>
      <point x="492" y="449" type="line"/>
      <point x="261" y="449" type="line"/>
      <point x="261" y="454" type="line" smooth="yes"/>
      <point x="261" y="461"/>
      <point x="281" y="474"/>
      <point x="336" y="498" type="curve" smooth="yes"/>
      <point x="438" y="536"/>
      <point x="493" y="598"/>
      <point x="493" y="681" type="curve" smooth="yes"/>
      <point x="493" y="798"/>
      <point x="415" y="853"/>
      <point x="252" y="853" type="curve" smooth="yes"/>
      <point x="195" y="853"/>
      <point x="130" y="847"/>
      <point x="40" y="832" type="curve"/>
      <point x="55" y="684" type="line"/>
      <point x="124" y="694"/>
      <point x="173" y="700"/>
      <point x="213" y="700" type="curve" smooth="yes"/>
      <point x="277" y="700"/>
      <point x="309" y="688"/>
      <point x="309" y="664" type="curve" smooth="yes"/>
      <point x="309" y="645"/>
      <point x="297" y="635"/>
      <point x="213" y="605" type="curve" smooth="yes"/>
      <point x="82" y="554"/>
      <point x="25" y="490"/>
      <point x="25" y="391" type="curve" smooth="yes"/>
    </contour>
  </outline>
</glyph>
<glyph name="threesuperior" format="1">
  <advance width="498"/>
  <unicode hex="00B3"/>
  <outline>
    <contour>
      <point x="225" y="292" type="curve" smooth="yes"/>
      <point x="384" y="292"/>
      <point x="471" y="349"/>
      <point x="471" y="454" type="curve" smooth="yes"/>
      <point x="471" y="514"/>
      <point x="442" y="559"/>
      <point x="390" y="583" type="curve"/>
      <point x="437" y="605"/>
      <point x="463" y="646"/>
      <point x="463" y="699" type="curve" smooth="yes"/>
      <point x="463" y="803"/>
      <point x="379" y="853"/>
      <point x="207" y="853" type="curve" smooth="yes"/>
      <point x="160" y="853"/>
      <point x="74" y="847"/>
      <point x="35" y="840" type="curve"/>
      <point x="35" y="688" type="line"/>
      <point x="39" y="688" type="line"/>
      <point x="90" y="695"/>
      <point x="147" y="700"/>
      <point x="179" y="700" type="curve" smooth="yes"/>
      <point x="256" y="700"/>
      <point x="275" y="693"/>
      <point x="275" y="668" type="curve" smooth="yes"/>
      <point x="275" y="642"/>
      <point x="250" y="634"/>
      <point x="164" y="634" type="curve" smooth="yes"/>
      <point x="107" y="634" type="line"/>
      <point x="107" y="516" type="line"/>
      <point x="164" y="516" type="line" smooth="yes"/>
      <point x="265" y="516"/>
      <point x="290" y="509"/>
      <point x="290" y="480" type="curve" smooth="yes"/>
      <point x="290" y="454"/>
      <point x="272" y="448"/>
      <point x="178" y="448" type="curve" smooth="yes"/>
      <point x="139" y="448"/>
      <point x="69" y="453"/>
      <point x="39" y="460" type="curve"/>
      <point x="35" y="460" type="line"/>
      <point x="35" y="304" type="line"/>
      <point x="68" y="297"/>
      <point x="150" y="292"/>
    </contour>
  </outline>
</glyph>
<glyph name="acute" format="1">
  <advance width="320"/>
  <unicode hex="00B4"/>
  <outline>
    <contour>
      <point x="115" y="656" type="move" name="_top"/>
    </contour>
    <contour>
      <point x="185" y="608" type="line"/>
      <point x="315" y="808" type="line"/>
      <point x="90" y="808" type="line"/>
      <point x="28" y="618" type="line"/>
    </contour>
  </outline>
</glyph>
<glyph name="mu" format="1">
  <advance width="735"/>
  <unicode hex="00B5"/>
  <outline>
    <contour>
      <point x="234" y="-10" type="curve" smooth="yes"/>
      <point x="329" y="-10"/>
      <point x="367" y="8"/>
      <point x="462" y="61" type="curve"/>
      <point x="466" y="61" type="line"/>
      <point x="477" y="0" type="line"/>
      <point x="662" y="0" type="line"/>
      <point x="662" y="540" type="line"/>
      <point x="442" y="540" type="line"/>
      <point x="442" y="174" type="line"/>
      <point x="404" y="161"/>
      <point x="362" y="152"/>
      <point x="336" y="152" type="curve" smooth="yes"/>
      <point x="303" y="152"/>
      <point x="289" y="169"/>
      <point x="289" y="207" type="curve" smooth="yes"/>
      <point x="289" y="540" type="line"/>
      <point x="69" y="540" type="line"/>
      <point x="69" y="142" type="line" smooth="yes"/>
      <point x="69" y="49"/>
      <point x="129" y="-10"/>
    </contour>
    <contour>
      <point x="69" y="-220" type="line"/>
      <point x="289" y="-220" type="line"/>
      <point x="289" y="297" type="line"/>
      <point x="69" y="297" type="line"/>
    </contour>
  </outline>
</glyph>
<glyph name="paragraph" format="1">
  <advance width="707"/>
  <unicode hex="00B6"/>
  <outline>
    <contour>
      <point x="447" y="0" type="line"/>
      <point x="358" y="0" type="line"/>
      <point x="358" y="266" type="line"/>
      <point x="320" y="265"/>
      <point x="298" y="265"/>
      <point x="265" y="265" type="curve" smooth="yes"/>
      <point x="118" y="265"/>
      <point x="27" y="326"/>
      <point x="27" y="505" type="curve" smooth="yes"/>
      <point x="27" y="684"/>
      <point x="118" y="745"/>
      <point x="266" y="745" type="curve" smooth="yes"/>
      <point x="318" y="745"/>
      <point x="386" y="741"/>
      <point x="447" y="735" type="curve"/>
    </contour>
    <contour>
      <point x="623" y="0" type="line"/>
      <point x="500" y="0" type="line"/>
      <point x="500" y="735" type="line"/>
      <point x="623" y="735" type="line"/>
    </contour>
  </outline>
</glyph>
<glyph name="periodcentered" format="1">
  <advance width="303"/>
  <unicode hex="00B7"/>
  <outline>
    <contour>
      <point x="152" y="370" type="move" name="_periodcentered"/>
    </contour>
    <contour>
      <point x="152" y="257" type="curve" smooth="yes"/>
      <point x="237" y="257"/>
      <point x="268" y="293"/>
      <point x="268" y="370" type="curve" smooth="yes"/>
      <point x="268" y="447"/>
      <point x="237" y="484"/>
      <point x="152" y="484" type="curve" smooth="yes"/>
      <point x="68" y="484"/>
      <point x="35" y="450"/>
      <point x="35" y="370" type="curve" smooth="yes"/>
      <point x="35" y="290"/>
      <point x="68" y="257"/>
    </contour>
  </outline>
</glyph>
<glyph name="cedilla" format="1">
  <advance width="317"/>
  <unicode hex="00B8"/>
  <outline>
    <contour>
      <point x="174" y="-83" type="move" name="_bottom"/>
    </contour>
    <contour>
      <point x="150" y="-220" type="curve" smooth="yes"/>
      <point x="234" y="-220"/>
      <point x="286" y="-179"/>
      <point x="286" y="-109" type="curve" smooth="yes"/>
      <point x="286" y="-61"/>
      <point x="265" y="-25"/>
      <point x="186" y="56" type="curve"/>
      <point x="58" y="56" type="line"/>
      <point x="120" y="-5"/>
      <point x="148" y="-57"/>
      <point x="148" y="-79" type="curve" smooth="yes"/>
      <point x="148" y="-88"/>
      <point x="143" y="-96"/>
      <point x="121" y="-96" type="curve" smooth="yes"/>
      <point x="100" y="-96"/>
      <point x="65" y="-92"/>
      <point x="36" y="-85" type="curve"/>
      <point x="36" y="-208" type="line"/>
      <point x="77" y="-214"/>
      <point x="118" y="-220"/>
    </contour>
  </outline>
</glyph>
<glyph name="onesuperior" format="1">
  <advance width="410"/>
  <unicode hex="00B9"/>
  <outline>
    <contour>
      <point x="165" y="300" type="line"/>
      <point x="349" y="300" type="line"/>
      <point x="349" y="846" type="line"/>
      <point x="214" y="846" type="line"/>
      <point x="7" y="754" type="line"/>
      <point x="6" y="733" type="line"/>
      <point x="28" y="639" type="line"/>
      <point x="36" y="639" type="line"/>
      <point x="165" y="660" type="line"/>
    </contour>
  </outline>
</glyph>
<glyph name="ordmasculine" format="1">
  <advance width="518"/>
  <unicode hex="00BA"/>
  <outline>
    <contour>
      <point x="259" y="466" type="curve" smooth="yes"/>
      <point x="196" y="466"/>
      <point x="199" y="475"/>
      <point x="199" y="546" type="curve" smooth="yes"/>
      <point x="199" y="615"/>
      <point x="196" y="629"/>
      <point x="259" y="629" type="curve" smooth="yes"/>
      <point x="321" y="629"/>
      <point x="320" y="615"/>
      <point x="320" y="546" type="curve" smooth="yes"/>
      <point x="320" y="475"/>
      <point x="321" y="466"/>
    </contour>
    <contour>
      <point x="259" y="345" type="curve" smooth="yes"/>
      <point x="411" y="345"/>
      <point x="492" y="411"/>
      <point x="492" y="546" type="curve" smooth="yes"/>
      <point x="492" y="681"/>
      <point x="411" y="747"/>
      <point x="259" y="747" type="curve" smooth="yes"/>
      <point x="109" y="747"/>
      <point x="26" y="681"/>
      <point x="26" y="546" type="curve" smooth="yes"/>
      <point x="26" y="411"/>
      <point x="109" y="345"/>
    </contour>
  </outline>
</glyph>
<glyph name="AE" format="1">
  <advance width="1051"/>
  <unicode hex="00C6"/>
  <outline>
    <contour>
      <point x="600" y="865" type="move" name="topUC"/>
    </contour>
    <contour>
      <point x="498" y="0" type="line"/>
      <point x="1016" y="0" type="line"/>
      <point x="1016" y="173" type="line"/>
      <point x="722" y="173" type="line"/>
      <point x="692" y="568" type="line"/>
      <point x="999" y="568" type="line"/>
      <point x="999" y="740" type="line"/>
      <point x="468" y="740" type="line"/>
    </contour>
    <contour>
      <point x="-11" y="0" type="line"/>
      <point x="210" y="0" type="line"/>
      <point x="445" y="586" type="line"/>
      <point x="535" y="586" type="line"/>
      <point x="566" y="740" type="line"/>
      <point x="285" y="740" type="line"/>
      <point x="-11" y="11" type="line"/>
    </contour>
    <contour>
      <point x="171" y="146" type="line"/>
      <point x="581" y="146" type="line"/>
      <point x="581" y="326" type="line"/>
      <point x="171" y="326" type="line"/>
    </contour>
    <contour>
      <point x="611" y="284" type="line"/>
      <point x="989" y="284" type="line"/>
      <point x="989" y="456" type="line"/>
      <point x="611" y="456" type="line"/>
    </contour>
  </outline>
</glyph>
<glyph name="Eth" format="1">
  <advance width="830"/>
  <unicode hex="00D0"/>
  <outline>
    <contour>
      <point x="3" y="291" type="line"/>
      <point x="404" y="291" type="line"/>
      <point x="404" y="458" type="line"/>
      <point x="3" y="458" type="line"/>
    </contour>
    <component base="D" xOffset="28"/>
  </outline>
</glyph>
<glyph name="multiply" format="1">
  <advance width="520"/>
  <unicode hex="00D7"/>
  <outline>
    <contour>
      <point x="395" y="140" type="line"/>
      <point x="490" y="235" type="line"/>
      <point x="125" y="600" type="line"/>
      <point x="30" y="505" type="line"/>
    </contour>
    <contour>
      <point x="125" y="140" type="line"/>
      <point x="490" y="505" type="line"/>
      <point x="394" y="600" type="line"/>
      <point x="30" y="235" type="line"/>
    </contour>
  </outline>
</glyph>
<glyph name="Oslash" format="1">
  <advance width="824"/>
  <unicode hex="00D8"/>
  <outline>
    <contour>
      <point x="412" y="865" type="move" name="topUC"/>
    </contour>
    <contour>
      <point x="412" y="-10" type="curve" smooth="yes"/>
      <point x="660" y="-10"/>
      <point x="792" y="121"/>
      <point x="792" y="369" type="curve" smooth="yes"/>
      <point x="792" y="618"/>
      <point x="660" y="750"/>
      <point x="412" y="750" type="curve" smooth="yes"/>
      <point x="163" y="750"/>
      <point x="32" y="619"/>
      <point x="32" y="369" type="curve" smooth="yes"/>
      <point x="32" y="121"/>
      <point x="163" y="-10"/>
    </contour>
    <contour>
      <point x="412" y="168" type="curve" smooth="yes"/>
      <point x="294" y="168"/>
      <point x="262" y="206"/>
      <point x="262" y="369" type="curve" smooth="yes"/>
      <point x="262" y="531"/>
      <point x="297" y="572"/>
      <point x="412" y="572" type="curve" smooth="yes"/>
      <point x="527" y="572"/>
      <point x="562" y="530"/>
      <point x="562" y="369" type="curve" smooth="yes"/>
      <point x="562" y="205"/>
      <point x="531" y="168"/>
    </contour>
    <contour>
      <point x="4" y="0" type="line"/>
      <point x="159" y="0" type="line"/>
      <point x="821" y="740" type="line"/>
      <point x="665" y="740" type="line"/>
    </contour>
  </outline>
</glyph>
<glyph name="Thorn" format="1">
  <advance width="736"/>
  <unicode hex="00DE"/>
  <outline>
    <contour>
      <point x="321" y="107" type="curve" smooth="yes"/>
      <point x="599" y="107"/>
      <point x="718" y="185"/>
      <point x="718" y="367" type="curve" smooth="yes"/>
      <point x="718" y="550"/>
      <point x="599" y="628"/>
      <point x="318" y="628" type="curve" smooth="yes"/>
      <point x="237" y="628"/>
      <point x="151" y="623"/>
      <point x="61" y="613" type="curve"/>
      <point x="61" y="122" type="line"/>
      <point x="151" y="112"/>
      <point x="238" y="107"/>
    </contour>
    <contour>
      <point x="337" y="290" type="curve" smooth="yes"/>
      <point x="286" y="290" type="line"/>
      <point x="286" y="445" type="line"/>
      <point x="336" y="445" type="line" smooth="yes"/>
      <point x="471" y="445"/>
      <point x="491" y="438"/>
      <point x="491" y="367" type="curve" smooth="yes"/>
      <point x="491" y="296"/>
      <point x="470" y="290"/>
    </contour>
    <contour>
      <point x="61" y="0" type="line"/>
      <point x="286" y="0" type="line"/>
      <point x="286" y="740" type="line"/>
      <point x="61" y="740" type="line"/>
    </contour>
  </outline>
</glyph>
<glyph name="germandbls" format="1">
  <advance width="859"/>
  <unicode hex="00DF"/>
  <outline>
    <contour>
      <point x="573" y="-11" type="curve" smooth="yes"/>
      <point x="754" y="-11"/>
      <point x="846" y="51"/>
      <point x="846" y="173" type="curve" smooth="yes"/>
      <point x="846" y="285"/>
      <point x="769" y="328"/>
      <point x="647" y="339" type="curve" smooth="yes"/>
      <point x="569" y="347"/>
      <point x="548" y="355"/>
      <point x="548" y="373" type="curve" smooth="yes"/>
      <point x="548" y="391"/>
      <point x="571" y="399"/>
      <point x="624" y="399" type="curve"/>
      <point x="697" y="399" type="line"/>
      <point x="698" y="551" type="line"/>
      <point x="600" y="551" type="line"/>
      <point x="438" y="551"/>
      <point x="339" y="481"/>
      <point x="339" y="366" type="curve" smooth="yes"/>
      <point x="339" y="204"/>
      <point x="467" y="196"/>
      <point x="556" y="188" type="curve" smooth="yes"/>
      <point x="615" y="183"/>
      <point x="636" y="174"/>
      <point x="636" y="156" type="curve" smooth="yes"/>
      <point x="636" y="139"/>
      <point x="617" y="133"/>
      <point x="563" y="133" type="curve" smooth="yes"/>
      <point x="497" y="133"/>
      <point x="425" y="142"/>
      <point x="335" y="160" type="curve"/>
      <point x="335" y="13" type="line"/>
      <point x="408" y="-2"/>
      <point x="505" y="-11"/>
    </contour>
    <contour>
      <point x="53" y="0" type="line"/>
      <point x="273" y="0" type="line"/>
      <point x="273" y="559" type="line" smooth="yes"/>
      <point x="273" y="620"/>
      <point x="314" y="648"/>
      <point x="404" y="648" type="curve" smooth="yes"/>
      <point x="494" y="648"/>
      <point x="536" y="620"/>
      <point x="536" y="559" type="curve" smooth="yes"/>
      <point x="536" y="399" type="line"/>
      <point x="758" y="399" type="line"/>
      <point x="758" y="559" type="line" smooth="yes"/>
      <point x="758" y="730"/>
      <point x="640" y="814"/>
      <point x="403" y="814" type="curve" smooth="yes"/>
      <point x="168" y="814"/>
      <point x="53" y="730"/>
      <point x="53" y="559" type="curve" smooth="yes"/>
    </contour>
  </outline>
</glyph>
<glyph name="ae" format="1">
  <advance width="952"/>
  <unicode hex="00E6"/>
  <outline>
    <contour>
      <point x="491" y="656" type="move" name="top"/>
    </contour>
    <contour>
      <point x="659" y="-14" type="curve" smooth="yes"/>
      <point x="741" y="-14"/>
      <point x="830" y="-3"/>
      <point x="900" y="17" type="curve"/>
      <point x="895" y="170" type="line"/>
      <point x="841" y="158"/>
      <point x="744" y="149"/>
      <point x="677" y="149" type="curve" smooth="yes"/>
      <point x="607" y="149"/>
      <point x="584" y="157"/>
      <point x="578" y="211" type="curve"/>
      <point x="911" y="211" type="line"/>
      <point x="919" y="236"/>
      <point x="922" y="264"/>
      <point x="922" y="303" type="curve" smooth="yes"/>
      <point x="922" y="464"/>
      <point x="834" y="544"/>
      <point x="663" y="544" type="curve" smooth="yes"/>
      <point x="590" y="544"/>
      <point x="533" y="529"/>
      <point x="488" y="501" type="curve"/>
      <point x="478" y="501" type="line"/>
      <point x="438" y="532"/>
      <point x="378" y="548"/>
      <point x="298" y="548" type="curve" smooth="yes"/>
      <point x="218" y="548"/>
      <point x="141" y="541"/>
      <point x="60" y="527" type="curve"/>
      <point x="74" y="378" type="line"/>
      <point x="127" y="388"/>
      <point x="197" y="396"/>
      <point x="239" y="396" type="curve" smooth="yes"/>
      <point x="331" y="396"/>
      <point x="354" y="389"/>
      <point x="355" y="347" type="curve" smooth="yes"/>
      <point x="355" y="340" type="line"/>
      <point x="232" y="332" type="line" smooth="yes"/>
      <point x="93" y="324"/>
      <point x="25" y="267"/>
      <point x="25" y="161" type="curve" smooth="yes"/>
      <point x="25" y="57"/>
      <point x="85" y="-5"/>
      <point x="187" y="-5" type="curve" smooth="yes"/>
      <point x="271" y="-5"/>
      <point x="352" y="20"/>
      <point x="430" y="71" type="curve"/>
      <point x="440" y="71" type="line"/>
      <point x="484" y="13"/>
      <point x="556" y="-14"/>
    </contour>
    <contour>
      <point x="291" y="141" type="curve" smooth="yes"/>
      <point x="260" y="141"/>
      <point x="248" y="154"/>
      <point x="248" y="185" type="curve" smooth="yes"/>
      <point x="248" y="212"/>
      <point x="260" y="224"/>
      <point x="301" y="228" type="curve" smooth="yes"/>
      <point x="355" y="233" type="line"/>
      <point x="355" y="162" type="line"/>
      <point x="345" y="151"/>
      <point x="314" y="141"/>
    </contour>
    <contour>
      <point x="577" y="316" type="line"/>
      <point x="581" y="376"/>
      <point x="601" y="394"/>
      <point x="652" y="394" type="curve" smooth="yes"/>
      <point x="707" y="394"/>
      <point x="728" y="373"/>
      <point x="730" y="316" type="curve"/>
    </contour>
  </outline>
</glyph>
<glyph name="icircumflex" format="1">
  <advance width="326"/>
  <unicode hex="00EE"/>
  <outline>
    <contour>
      <point x="-36" y="599" type="line"/>
      <point x="168" y="678" type="line"/>
      <point x="372" y="599" type="line"/>
      <point x="372" y="741" type="line"/>
      <point x="166" y="821" type="line"/>
      <point x="-36" y="741" type="line"/>
    </contour>
    <component base="dotlessi" xOffset="1"/>
  </outline>
</glyph>
<glyph name="idieresis" format="1">
  <advance width="326"/>
  <unicode hex="00EF"/>
  <outline>
    <contour>
      <point x="42" y="607" type="curve" smooth="yes"/>
      <point x="118" y="607"/>
      <point x="147" y="637"/>
      <point x="147" y="709" type="curve" smooth="yes"/>
      <point x="147" y="777"/>
      <point x="118" y="810"/>
      <point x="42" y="810" type="curve" smooth="yes"/>
      <point x="-33" y="810"/>
      <point x="-63" y="780"/>
      <point x="-63" y="709" type="curve" smooth="yes"/>
      <point x="-63" y="637"/>
      <point x="-33" y="607"/>
    </contour>
    <contour>
      <point x="290" y="607" type="curve" smooth="yes"/>
      <point x="366" y="607"/>
      <point x="395" y="637"/>
      <point x="395" y="709" type="curve" smooth="yes"/>
      <point x="395" y="777"/>
      <point x="366" y="810"/>
      <point x="290" y="810" type="curve" smooth="yes"/>
      <point x="215" y="810"/>
      <point x="185" y="780"/>
      <point x="185" y="709" type="curve" smooth="yes"/>
      <point x="185" y="637"/>
      <point x="215" y="607"/>
    </contour>
    <component base="dotlessi" xOffset="1"/>
  </outline>
</glyph>
<glyph name="eth" format="1">
  <advance width="690"/>
  <unicode hex="00F0"/>
  <outline>
    <contour>
      <point x="339" y="-11" type="curve" smooth="yes"/>
      <point x="546" y="-11"/>
      <point x="655" y="95"/>
      <point x="655" y="308" type="curve" smooth="yes"/>
      <point x="655" y="606"/>
      <point x="468" y="771"/>
      <point x="436" y="808" type="curve"/>
      <point x="215" y="808" type="line"/>
      <point x="323" y="712"/>
      <point x="392" y="623"/>
      <point x="433" y="520" type="curve"/>
      <point x="402" y="543"/>
      <point x="367" y="551"/>
      <point x="321" y="551" type="curve" smooth="yes"/>
      <point x="139" y="551"/>
      <point x="28" y="447"/>
      <point x="28" y="268" type="curve" smooth="yes"/>
      <point x="28" y="88"/>
      <point x="141" y="-11"/>
    </contour>
    <contour>
      <point x="342" y="154" type="curve" smooth="yes"/>
      <point x="267" y="154"/>
      <point x="248" y="177"/>
      <point x="248" y="269" type="curve" smooth="yes"/>
      <point x="248" y="361"/>
      <point x="267" y="385"/>
      <point x="338" y="385" type="curve" smooth="yes"/>
      <point x="410" y="385"/>
      <point x="435" y="360"/>
      <point x="435" y="266" type="curve" smooth="yes"/>
      <point x="435" y="177"/>
      <point x="414" y="154"/>
    </contour>
    <contour>
      <point x="193" y="588" type="line"/>
      <point x="665" y="628" type="line"/>
      <point x="665" y="756" type="line"/>
      <point x="193" y="716" type="line"/>
    </contour>
  </outline>
</glyph>
<glyph name="divide" format="1">
  <advance width="533"/>
  <unicode hex="00F7"/>
  <outline>
    <contour>
      <point x="268" y="91" type="curve" smooth="yes"/>
      <point x="316" y="91"/>
      <point x="351" y="119"/>
      <point x="351" y="177" type="curve" smooth="yes"/>
      <point x="351" y="233"/>
      <point x="316" y="259"/>
      <point x="268" y="259" type="curve" smooth="yes"/>
      <point x="219" y="259"/>
      <point x="184" y="233"/>
      <point x="184" y="177" type="curve" smooth="yes"/>
      <point x="184" y="119"/>
      <point x="219" y="91"/>
    </contour>
    <contour>
      <point x="29" y="303" type="line"/>
      <point x="503" y="303" type="line"/>
      <point x="503" y="437" type="line"/>
      <point x="29" y="437" type="line"/>
    </contour>
    <contour>
      <point x="268" y="481" type="curve" smooth="yes"/>
      <point x="316" y="481"/>
      <point x="351" y="507"/>
      <point x="351" y="563" type="curve" smooth="yes"/>
      <point x="351" y="621"/>
      <point x="316" y="649"/>
      <point x="268" y="649" type="curve" smooth="yes"/>
      <point x="219" y="649"/>
      <point x="184" y="621"/>
      <point x="184" y="563" type="curve" smooth="yes"/>
      <point x="184" y="507"/>
      <point x="219" y="481"/>
    </contour>
  </outline>
</glyph>
<glyph name="oslash" format="1">
  <advance width="689"/>
  <unicode hex="00F8"/>
  <outline>
    <contour>
      <point x="347" y="656" type="move" name="top"/>
    </contour>
    <contour>
      <point x="346" y="-11" type="curve" smooth="yes"/>
      <point x="559" y="-11"/>
      <point x="659" y="96"/>
      <point x="659" y="270" type="curve" smooth="yes"/>
      <point x="659" y="444"/>
      <point x="559" y="550"/>
      <point x="346" y="550" type="curve" smooth="yes"/>
      <point x="130" y="550"/>
      <point x="32" y="442"/>
      <point x="32" y="270" type="curve" smooth="yes"/>
      <point x="32" y="98"/>
      <point x="130" y="-11"/>
    </contour>
    <contour>
      <point x="346" y="154" type="curve" smooth="yes"/>
      <point x="253" y="154"/>
      <point x="252" y="184"/>
      <point x="252" y="270" type="curve" smooth="yes"/>
      <point x="252" y="356"/>
      <point x="253" y="385"/>
      <point x="346" y="385" type="curve" smooth="yes"/>
      <point x="437" y="385"/>
      <point x="439" y="356"/>
      <point x="439" y="270" type="curve" smooth="yes"/>
      <point x="439" y="184"/>
      <point x="437" y="154"/>
    </contour>
    <contour>
      <point x="-8" y="0" type="line"/>
      <point x="139" y="0" type="line"/>
      <point x="698" y="540" type="line"/>
      <point x="552" y="540" type="line"/>
    </contour>
  </outline>
</glyph>
<glyph name="thorn" format="1">
  <advance width="691"/>
  <unicode hex="00FE"/>
  <outline>
    <contour>
      <point x="52" y="-220" type="line"/>
      <point x="272" y="-220" type="line"/>
      <point x="272" y="-5" type="line"/>
      <point x="297" y="-7"/>
      <point x="327" y="-9"/>
      <point x="324" y="-9" type="curve" smooth="yes"/>
      <point x="571" y="-9"/>
      <point x="660" y="99"/>
      <point x="660" y="282" type="curve" smooth="yes"/>
      <point x="660" y="463"/>
      <point x="598" y="549"/>
      <point x="447" y="549" type="curve" smooth="yes"/>
      <point x="342" y="549"/>
      <point x="283" y="511"/>
      <point x="250" y="471" type="curve"/>
      <point x="272" y="461" type="line"/>
      <point x="272" y="808" type="line"/>
      <point x="52" y="808" type="line"/>
    </contour>
    <contour>
      <point x="324" y="131" type="curve" smooth="yes"/>
      <point x="331" y="131"/>
      <point x="302" y="135"/>
      <point x="272" y="148" type="curve"/>
      <point x="272" y="176" type="line" smooth="yes"/>
      <point x="272" y="339"/>
      <point x="264" y="398"/>
      <point x="364" y="398" type="curve" smooth="yes"/>
      <point x="425" y="398"/>
      <point x="440" y="396"/>
      <point x="440" y="260" type="curve" smooth="yes"/>
      <point x="440" y="120"/>
      <point x="425" y="131"/>
    </contour>
  </outline>
</glyph>
<glyph name="Dcroat" format="1">
  <advance width="830"/>
  <unicode hex="0110"/>
  <outline>
    <contour>
      <point x="3" y="291" type="line"/>
      <point x="404" y="291" type="line"/>
      <point x="404" y="458" type="line"/>
      <point x="3" y="458" type="line"/>
    </contour>
    <component base="D" xOffset="28"/>
  </outline>
</glyph>
<glyph name="dcroat" format="1">
  <advance width="694"/>
  <unicode hex="0111"/>
  <outline>
    <contour>
      <point x="262" y="613" type="line"/>
      <point x="711" y="613" type="line"/>
      <point x="711" y="735" type="line"/>
      <point x="262" y="735" type="line"/>
    </contour>
    <component base="d"/>
  </outline>
</glyph>
<glyph name="gcommaaccent" format="1">
  <advance width="692"/>
  <unicode hex="0123"/>
  <outline>
    <contour>
      <point x="360" y="770" type="line"/>
      <point x="258" y="620" type="line"/>
      <point x="484" y="620" type="line"/>
      <point x="522" y="770" type="line"/>
    </contour>
    <component base="g"/>
  </outline>
</glyph>
<glyph name="Hbar" format="1">
  <advance width="864"/>
  <unicode hex="0126"/>
  <outline>
    <contour>
      <point x="5" y="535" type="line"/>
      <point x="862" y="535" type="line"/>
      <point x="862" y="634" type="line"/>
      <point x="5" y="634" type="line"/>
    </contour>
    <component base="H" xOffset="8"/>
  </outline>
</glyph>
<glyph name="hbar" format="1">
  <advance width="694"/>
  <unicode hex="0127"/>
  <outline>
    <contour>
      <point x="-28" y="613" type="line"/>
      <point x="421" y="613" type="line"/>
      <point x="421" y="735" type="line"/>
      <point x="-28" y="735" type="line"/>
    </contour>
    <component base="h" xOffset="1"/>
  </outline>
</glyph>
<glyph name="itilde" format="1">
  <advance width="326"/>
  <unicode hex="0129"/>
  <outline>
    <contour>
      <point x="-43" y="622" type="line"/>
      <point x="-8" y="652"/>
      <point x="17" y="659"/>
      <point x="45" y="659" type="curve" smooth="yes"/>
      <point x="110" y="659"/>
      <point x="176" y="618"/>
      <point x="242" y="618" type="curve" smooth="yes"/>
      <point x="294" y="618"/>
      <point x="358" y="664"/>
      <point x="406" y="760" type="curve"/>
      <point x="381" y="798" type="line"/>
      <point x="343" y="768"/>
      <point x="319" y="761"/>
      <point x="294" y="761" type="curve" smooth="yes"/>
      <point x="228" y="761"/>
      <point x="163" y="802"/>
      <point x="97" y="802" type="curve" smooth="yes"/>
      <point x="42" y="802"/>
      <point x="-22" y="755"/>
      <point x="-67" y="660" type="curve"/>
    </contour>
    <component base="dotlessi" xOffset="1"/>
  </outline>
</glyph>
<glyph name="ibreve" format="1">
  <advance width="326"/>
  <unicode hex="012D"/>
  <outline>
    <contour>
      <point x="166" y="611" type="curve" smooth="yes"/>
      <point x="302" y="611"/>
      <point x="350" y="688"/>
      <point x="352" y="799" type="curve"/>
      <point x="239" y="799" type="line"/>
      <point x="239" y="744"/>
      <point x="226" y="714"/>
      <point x="166" y="714" type="curve" smooth="yes"/>
      <point x="106" y="714"/>
      <point x="94" y="744"/>
      <point x="94" y="799" type="curve"/>
      <point x="-21" y="799" type="line"/>
      <point x="-19" y="691"/>
      <point x="30" y="611"/>
    </contour>
    <component base="dotlessi" xOffset="1"/>
  </outline>
</glyph>
<glyph name="dotlessi" format="1">
  <advance width="324"/>
  <unicode hex="0131"/>
  <outline>
    <contour>
      <point x="164" y="656" type="move" name="top"/>
    </contour>
    <contour>
      <point x="52" y="0" type="line"/>
      <point x="272" y="0" type="line"/>
      <point x="272" y="540" type="line"/>
      <point x="52" y="540" type="line"/>
    </contour>
  </outline>
</glyph>
<glyph name="jcircumflex" format="1">
  <advance width="322"/>
  <unicode hex="0135"/>
  <outline>
    <contour>
      <point x="-45" y="599" type="line"/>
      <point x="159" y="678" type="line"/>
      <point x="362" y="599" type="line"/>
      <point x="362" y="741" type="line"/>
      <point x="156" y="821" type="line"/>
      <point x="-45" y="741" type="line"/>
    </contour>
    <component base="dotlessj"/>
  </outline>
</glyph>
<glyph name="kgreenlandic" format="1">
  <advance width="655"/>
  <unicode hex="0138"/>
  <outline>
    <contour>
      <point x="53" y="0" type="line"/>
      <point x="273" y="0" type="line"/>
      <point x="273" y="211" type="line"/>
      <point x="304" y="211" type="line"/>
      <point x="430" y="0" type="line"/>
      <point x="669" y="0" type="line"/>
      <point x="486" y="271" type="line"/>
      <point x="457" y="277" type="line"/>
      <point x="457" y="281" type="line"/>
      <point x="486" y="287" type="line"/>
      <point x="651" y="540" type="line"/>
      <point x="411" y="540" type="line"/>
      <point x="306" y="346" type="line"/>
      <point x="273" y="346" type="line"/>
      <point x="273" y="540" type="line"/>
      <point x="53" y="540" type="line"/>
    </contour>
  </outline>
</glyph>
<glyph name="Lslash" format="1">
  <advance width="620"/>
  <unicode hex="0141"/>
  <outline>
    <contour>
      <point x="10" y="226" type="line"/>
      <point x="427" y="414" type="line"/>
      <point x="427" y="571" type="line"/>
      <point x="10" y="383" type="line"/>
    </contour>
    <component base="L" xOffset="17"/>
  </outline>
</glyph>
<glyph name="lslash" format="1">
  <advance width="449"/>
  <unicode hex="0142"/>
  <outline>
    <contour>
      <point x="22" y="236" type="line"/>
      <point x="437" y="424" type="line"/>
      <point x="437" y="581" type="line"/>
      <point x="22" y="393" type="line"/>
    </contour>
    <component base="l" xOffset="63"/>
  </outline>
</glyph>
<glyph name="Eng" format="1">
  <advance width="831"/>
  <unicode hex="014A"/>
  <outline>
    <contour>
      <point x="631" y="-218" type="line"/>
      <point x="710" y="-105"/>
      <point x="773" y="51"/>
      <point x="773" y="136" type="curve"/>
      <point x="773" y="740" type="line"/>
      <point x="574" y="740" type="line"/>
      <point x="574" y="330" type="line"/>
      <point x="564" y="330" type="line"/>
      <point x="505" y="414" type="line"/>
      <point x="234" y="740" type="line"/>
      <point x="61" y="740" type="line"/>
      <point x="61" y="0" type="line"/>
      <point x="260" y="0" type="line"/>
      <point x="260" y="411" type="line"/>
      <point x="270" y="411" type="line"/>
      <point x="339" y="316" type="line"/>
      <point x="555" y="56" type="line"/>
      <point x="547" y="-14"/>
      <point x="528" y="-75"/>
      <point x="485" y="-170" type="curve"/>
    </contour>
  </outline>
</glyph>
<glyph name="eng" format="1">
  <advance width="693"/>
  <unicode hex="014B"/>
  <outline>
    <contour>
      <point x="556" y="-220" type="line"/>
      <point x="602" y="-137"/>
      <point x="634" y="-41"/>
      <point x="645" y="62" type="curve"/>
      <point x="645" y="398" type="line" smooth="yes"/>
      <point x="645" y="492"/>
      <point x="582" y="550"/>
      <point x="486" y="550" type="curve" smooth="yes"/>
      <point x="421" y="550"/>
      <point x="345" y="527"/>
      <point x="252" y="482" type="curve"/>
      <point x="248" y="482" type="line"/>
      <point x="237" y="540" type="line"/>
      <point x="53" y="540" type="line"/>
      <point x="53" y="0" type="line"/>
      <point x="273" y="0" type="line"/>
      <point x="273" y="343" type="line"/>
      <point x="307" y="349"/>
      <point x="346" y="353"/>
      <point x="381" y="353" type="curve" smooth="yes"/>
      <point x="420" y="353"/>
      <point x="425" y="344"/>
      <point x="425" y="280" type="curve" smooth="yes"/>
      <point x="425" y="163" type="line"/>
      <point x="425" y="-6"/>
      <point x="414" y="-87"/>
      <point x="387" y="-199" type="curve"/>
    </contour>
  </outline>
</glyph>
<glyph name="OE" format="1">
  <advance width="1166"/>
  <unicode hex="0152"/>
  <outline>
    <contour>
      <point x="415" y="-10" type="curve" smooth="yes"/>
      <point x="464" y="-10"/>
      <point x="505" y="-7"/>
      <point x="548" y="0" type="curve"/>
      <point x="1131" y="0" type="line"/>
      <point x="1131" y="172" type="line"/>
      <point x="773" y="172" type="line"/>
      <point x="773" y="287" type="line"/>
      <point x="1089" y="287" type="line"/>
      <point x="1089" y="457" type="line"/>
      <point x="773" y="457" type="line"/>
      <point x="773" y="568" type="line"/>
      <point x="1121" y="568" type="line"/>
      <point x="1121" y="740" type="line"/>
      <point x="548" y="740" type="line"/>
      <point x="508" y="746"/>
      <point x="468" y="750"/>
      <point x="415" y="750" type="curve" smooth="yes"/>
      <point x="166" y="750"/>
      <point x="30" y="618"/>
      <point x="30" y="369" type="curve" smooth="yes"/>
      <point x="30" y="122"/>
      <point x="167" y="-10"/>
    </contour>
    <contour>
      <point x="422" y="169" type="curve" smooth="yes"/>
      <point x="293" y="169"/>
      <point x="259" y="206"/>
      <point x="259" y="369" type="curve" smooth="yes"/>
      <point x="259" y="530"/>
      <point x="295" y="571"/>
      <point x="421" y="571" type="curve" smooth="yes"/>
      <point x="474" y="571"/>
      <point x="513" y="569"/>
      <point x="548" y="565" type="curve"/>
      <point x="548" y="175" type="line"/>
      <point x="514" y="170"/>
      <point x="473" y="169"/>
    </contour>
  </outline>
</glyph>
<glyph name="oe" format="1">
  <advance width="1027"/>
  <unicode hex="0153"/>
  <outline>
    <contour>
      <point x="734" y="-9" type="curve" smooth="yes"/>
      <point x="816" y="-9"/>
      <point x="906" y="3"/>
      <point x="975" y="22" type="curve"/>
      <point x="970" y="176" type="line"/>
      <point x="915" y="163"/>
      <point x="817" y="154"/>
      <point x="753" y="154" type="curve" smooth="yes"/>
      <point x="683" y="154"/>
      <point x="660" y="162"/>
      <point x="654" y="216" type="curve"/>
      <point x="986" y="216" type="line"/>
      <point x="994" y="245"/>
      <point x="997" y="273"/>
      <point x="997" y="308" type="curve" smooth="yes"/>
      <point x="997" y="469"/>
      <point x="910" y="549"/>
      <point x="738" y="549" type="curve" smooth="yes"/>
      <point x="655" y="549"/>
      <point x="591" y="532"/>
      <point x="547" y="500" type="curve"/>
      <point x="537" y="499" type="line"/>
      <point x="492" y="532"/>
      <point x="425" y="550"/>
      <point x="342" y="550" type="curve" smooth="yes"/>
      <point x="138" y="550"/>
      <point x="28" y="452"/>
      <point x="28" y="270" type="curve" smooth="yes"/>
      <point x="28" y="88"/>
      <point x="138" y="-11"/>
      <point x="342" y="-11" type="curve" smooth="yes"/>
      <point x="424" y="-11"/>
      <point x="491" y="7"/>
      <point x="536" y="39" type="curve"/>
      <point x="546" y="39" type="line"/>
      <point x="588" y="8"/>
      <point x="652" y="-9"/>
    </contour>
    <contour>
      <point x="342" y="154" type="curve" smooth="yes"/>
      <point x="269" y="154"/>
      <point x="248" y="175"/>
      <point x="248" y="270" type="curve" smooth="yes"/>
      <point x="248" y="365"/>
      <point x="269" y="385"/>
      <point x="342" y="385" type="curve" smooth="yes"/>
      <point x="414" y="385"/>
      <point x="435" y="365"/>
      <point x="435" y="270" type="curve" smooth="yes"/>
      <point x="435" y="174"/>
      <point x="414" y="154"/>
    </contour>
    <contour>
      <point x="652" y="322" type="line"/>
      <point x="657" y="382"/>
      <point x="677" y="400"/>
      <point x="728" y="400" type="curve" smooth="yes"/>
      <point x="783" y="400"/>
      <point x="803" y="378"/>
      <point x="805" y="322" type="curve"/>
    </contour>
  </outline>
</glyph>
<glyph name="tcaron" format="1">
  <advance width="480"/>
  <unicode hex="0165"/>
  <outline>
    <contour>
      <point x="313" y="-15" type="curve" smooth="yes"/>
      <point x="362" y="-15"/>
      <point x="416" y="-8"/>
      <point x="446" y="2" type="curve"/>
      <point x="446" y="162" type="line"/>
      <point x="426" y="154"/>
      <point x="406" y="150"/>
      <point x="389" y="150" type="curve" smooth="yes"/>
      <point x="340" y="150"/>
      <point x="323" y="167"/>
      <point x="323" y="223" type="curve" smooth="yes"/>
      <point x="323" y="357" type="line"/>
      <point x="446" y="357" type="line"/>
      <point x="446" y="540" type="line"/>
      <point x="321" y="540" type="line"/>
      <point x="321" y="728" type="line"/>
      <point x="151" y="710" type="line"/>
      <point x="118" y="540" type="line"/>
      <point x="19" y="540" type="line"/>
      <point x="19" y="357" type="line"/>
      <point x="103" y="357" type="line"/>
      <point x="103" y="171" type="line" smooth="yes"/>
      <point x="103" y="50"/>
      <point x="176" y="-15"/>
    </contour>
    <component base="caron.alt" xOffset="326"/>
  </outline>
</glyph>
<glyph name="Tbar" format="1">
  <advance width="679"/>
  <unicode hex="0166"/>
  <outline>
    <contour>
      <point x="80" y="304" type="line"/>
      <point x="609" y="304" type="line"/>
      <point x="609" y="426" type="line"/>
      <point x="80" y="426" type="line"/>
    </contour>
    <component base="T" xOffset="5"/>
  </outline>
</glyph>
<glyph name="tbar" format="1">
  <advance width="481"/>
  <unicode hex="0167"/>
  <outline>
    <contour>
      <point x="24" y="195" type="line"/>
      <point x="415" y="195" type="line"/>
      <point x="415" y="316" type="line"/>
      <point x="24" y="316" type="line"/>
    </contour>
    <component base="t" xOffset="1"/>
  </outline>
</glyph>
<glyph name="Schwa" format="1">
  <advance width="766"/>
  <unicode hex="018F"/>
  <outline>
    <contour>
      <point x="519" y="369" type="curve" smooth="yes"/>
      <point x="519" y="194"/>
      <point x="497" y="164"/>
      <point x="368" y="164" type="curve" smooth="yes"/>
      <point x="242" y="164"/>
      <point x="240" y="195"/>
      <point x="240" y="317" type="curve"/>
      <point x="203" y="291" type="line"/>
      <point x="638" y="291" type="line"/>
      <point x="638" y="439" type="line"/>
      <point x="36" y="439" type="line"/>
      <point x="29" y="386"/>
      <point x="27" y="359"/>
      <point x="27" y="328" type="curve" smooth="yes"/>
      <point x="27" y="87"/>
      <point x="144" y="-10"/>
      <point x="361" y="-10" type="curve" smooth="yes"/>
      <point x="615" y="-10"/>
      <point x="736" y="128"/>
      <point x="736" y="377" type="curve" smooth="yes"/>
      <point x="736" y="628"/>
      <point x="613" y="750"/>
      <point x="371" y="750" type="curve" smooth="yes"/>
      <point x="288" y="750"/>
      <point x="156" y="737"/>
      <point x="61" y="708" type="curve"/>
      <point x="69" y="531" type="line"/>
      <point x="186" y="554"/>
      <point x="277" y="560"/>
      <point x="347" y="560" type="curve" smooth="yes"/>
      <point x="493" y="560"/>
      <point x="519" y="541"/>
    </contour>
  </outline>
</glyph>
<glyph name="florin" format="1">
  <advance width="547"/>
  <unicode hex="0192"/>
  <outline>
    <contour>
      <point x="147" y="-219" type="line"/>
      <point x="367" y="-160" type="line"/>
      <point x="367" y="357" type="line"/>
      <point x="511" y="357" type="line"/>
      <point x="511" y="540" type="line"/>
      <point x="367" y="540" type="line"/>
      <point x="367" y="569" type="line" smooth="yes"/>
      <point x="367" y="633"/>
      <point x="413" y="658"/>
      <point x="528" y="659" type="curve"/>
      <point x="518" y="816" type="line"/>
      <point x="249" y="815"/>
      <point x="148" y="748"/>
      <point x="148" y="563" type="curve" smooth="yes"/>
      <point x="148" y="540" type="line"/>
      <point x="30" y="540" type="line"/>
      <point x="30" y="357" type="line"/>
      <point x="147" y="357" type="line"/>
    </contour>
  </outline>
</glyph>
<glyph name="Aringacute" format="1">
  <advance width="779"/>
  <unicode hex="01FA"/>
  <outline>
    <contour>
      <point x="-5" y="0" type="line"/>
      <point x="212" y="0" type="line"/>
      <point x="254" y="146" type="line"/>
      <point x="525" y="146" type="line"/>
      <point x="568" y="0" type="line"/>
      <point x="784" y="0" type="line"/>
      <point x="784" y="11" type="line"/>
      <point x="573" y="677" type="line"/>
      <point x="591" y="700"/>
      <point x="602" y="729"/>
      <point x="602" y="760" type="curve" smooth="yes"/>
      <point x="602" y="820"/>
      <point x="565" y="868"/>
      <point x="505" y="894" type="curve"/>
      <point x="594" y="1030" type="line"/>
      <point x="369" y="1030" type="line"/>
      <point x="330" y="910" type="line"/>
      <point x="239" y="892"/>
      <point x="184" y="837"/>
      <point x="184" y="760" type="curve" smooth="yes"/>
      <point x="184" y="730"/>
      <point x="192" y="704"/>
      <point x="207" y="682" type="curve"/>
      <point x="-5" y="11" type="line"/>
    </contour>
    <contour>
      <point x="390" y="702" type="curve" smooth="yes"/>
      <point x="343" y="702"/>
      <point x="310" y="725"/>
      <point x="310" y="760" type="curve" smooth="yes"/>
      <point x="310" y="796"/>
      <point x="342" y="819"/>
      <point x="390" y="819" type="curve" smooth="yes"/>
      <point x="441" y="819"/>
      <point x="475" y="796"/>
      <point x="475" y="760" type="curve" smooth="yes"/>
      <point x="475" y="726"/>
      <point x="441" y="702"/>
    </contour>
    <contour>
      <point x="307" y="326" type="line"/>
      <point x="337" y="430" type="line"/>
      <point x="380" y="587" type="line"/>
      <point x="399" y="587" type="line"/>
      <point x="442" y="432" type="line"/>
      <point x="472" y="326" type="line"/>
    </contour>
  </outline>
</glyph>
<glyph name="iinvertedbreve" format="1">
  <advance width="326"/>
  <unicode hex="020B"/>
  <outline>
    <contour>
      <point x="-19" y="621" type="curve"/>
      <point x="95" y="621" type="line"/>
      <point x="95" y="676"/>
      <point x="109" y="705"/>
      <point x="167" y="705" type="curve" smooth="yes"/>
      <point x="227" y="705"/>
      <point x="240" y="676"/>
      <point x="240" y="621" type="curve"/>
      <point x="354" y="621" type="line"/>
      <point x="352" y="731"/>
      <point x="305" y="809"/>
      <point x="167" y="809" type="curve" smooth="yes"/>
      <point x="31" y="809"/>
      <point x="-17" y="728"/>
    </contour>
    <component base="dotlessi" xOffset="1"/>
  </outline>
</glyph>
<glyph name="dotlessj" format="1">
  <advance width="321"/>
  <unicode hex="0237"/>
  <outline>
    <contour>
      <point x="159" y="656" type="move" name="top"/>
    </contour>
    <contour>
      <point x="180" y="-220" type="line"/>
      <point x="228" y="-129"/>
      <point x="257" y="-40"/>
      <point x="270" y="68" type="curve"/>
      <point x="270" y="540" type="line"/>
      <point x="50" y="540" type="line"/>
      <point x="54" y="335"/>
      <point x="55" y="258"/>
      <point x="55" y="190" type="curve" smooth="yes"/>
      <point x="55" y="-6"/>
      <point x="47" y="-74"/>
      <point x="17" y="-199" type="curve"/>
    </contour>
  </outline>
</glyph>
<glyph name="schwa" format="1">
  <advance width="622"/>
  <unicode hex="0259"/>
  <outline>
    <contour>
      <point x="293" y="549" type="curve" smooth="yes"/>
      <point x="210" y="549"/>
      <point x="119" y="537"/>
      <point x="52" y="518" type="curve"/>
      <point x="57" y="365" type="line"/>
      <point x="140" y="379"/>
      <point x="211" y="382"/>
      <point x="273" y="382" type="curve" smooth="yes"/>
      <point x="379" y="382"/>
      <point x="384" y="376"/>
      <point x="384" y="271" type="curve" smooth="yes"/>
      <point x="384" y="173"/>
      <point x="376" y="147"/>
      <point x="302" y="147" type="curve" smooth="yes"/>
      <point x="235" y="147"/>
      <point x="221" y="163"/>
      <point x="221" y="222" type="curve"/>
      <point x="200" y="215" type="line"/>
      <point x="496" y="215" type="line"/>
      <point x="496" y="339" type="line"/>
      <point x="38" y="339" type="line"/>
      <point x="33" y="308"/>
      <point x="31" y="291"/>
      <point x="31" y="258" type="curve" smooth="yes"/>
      <point x="31" y="70"/>
      <point x="98" y="-9"/>
      <point x="289" y="-9" type="curve" smooth="yes"/>
      <point x="490" y="-9"/>
      <point x="593" y="87"/>
      <point x="593" y="273" type="curve" smooth="yes"/>
      <point x="593" y="456"/>
      <point x="493" y="549"/>
    </contour>
  </outline>
</glyph>
<glyph name="apostrophe" format="1">
  <advance width="250"/>
  <unicode hex="02BC"/>
  <outline>
    <contour>
      <point x="134" y="674" type="move" name="_apostrophe"/>
    </contour>
    <contour>
      <point x="49" y="808" type="line"/>
      <point x="49" y="580" type="line"/>
      <point x="168" y="580" type="line"/>
      <point x="219" y="804" type="line"/>
      <point x="219" y="808" type="line"/>
    </contour>
  </outline>
</glyph>
<glyph name="circumflex" format="1">
  <advance width="516"/>
  <unicode hex="02C6"/>
  <outline>
    <contour>
      <point x="252" y="656" type="move" name="_top"/>
    </contour>
    <contour>
      <point x="35" y="599" type="line"/>
      <point x="254" y="678" type="line"/>
      <point x="473" y="599" type="line"/>
      <point x="473" y="741" type="line"/>
      <point x="252" y="821" type="line"/>
      <point x="35" y="741" type="line"/>
    </contour>
  </outline>
</glyph>
<glyph name="caron" format="1">
  <advance width="504"/>
  <unicode hex="02C7"/>
  <outline>
    <contour>
      <point x="249" y="656" type="move" name="_top"/>
    </contour>
    <contour>
      <point x="30" y="678" type="line"/>
      <point x="247" y="599" type="line"/>
      <point x="468" y="678" type="line"/>
      <point x="468" y="821" type="line"/>
      <point x="249" y="741" type="line"/>
      <point x="30" y="821" type="line"/>
    </contour>
  </outline>
</glyph>
<glyph name="breve" format="1">
  <advance width="533"/>
  <unicode hex="02D8"/>
  <outline>
    <contour>
      <point x="266" y="656" type="move" name="_top"/>
    </contour>
    <contour>
      <point x="266" y="611" type="curve" smooth="yes"/>
      <point x="444" y="611"/>
      <point x="503" y="688"/>
      <point x="505" y="799" type="curve"/>
      <point x="362" y="799" type="line"/>
      <point x="361" y="744"/>
      <point x="341" y="714"/>
      <point x="266" y="714" type="curve" smooth="yes"/>
      <point x="191" y="714"/>
      <point x="171" y="744"/>
      <point x="170" y="799" type="curve"/>
      <point x="27" y="799" type="line"/>
      <point x="29" y="691"/>
      <point x="88" y="611"/>
    </contour>
  </outline>
</glyph>
<glyph name="dotaccent" format="1">
  <advance width="317"/>
  <unicode hex="02D9"/>
  <outline>
    <contour>
      <point x="157" y="656" type="move" name="_top"/>
    </contour>
    <contour>
      <point x="157" y="595" type="curve" smooth="yes"/>
      <point x="242" y="595"/>
      <point x="274" y="632"/>
      <point x="274" y="709" type="curve" smooth="yes"/>
      <point x="274" y="785"/>
      <point x="242" y="822"/>
      <point x="157" y="822" type="curve" smooth="yes"/>
      <point x="73" y="822"/>
      <point x="40" y="788"/>
      <point x="40" y="709" type="curve" smooth="yes"/>
      <point x="40" y="629"/>
      <point x="73" y="595"/>
    </contour>
  </outline>
</glyph>
<glyph name="ring" format="1">
  <advance width="349"/>
  <unicode hex="02DA"/>
  <outline>
    <contour>
      <point x="172" y="656" type="move" name="_top"/>
    </contour>
    <contour>
      <point x="172" y="582" type="curve" smooth="yes"/>
      <point x="255" y="582"/>
      <point x="315" y="629"/>
      <point x="315" y="699" type="curve" smooth="yes"/>
      <point x="315" y="770"/>
      <point x="255" y="818"/>
      <point x="172" y="818" type="curve" smooth="yes"/>
      <point x="90" y="818"/>
      <point x="29" y="770"/>
      <point x="29" y="699" type="curve" smooth="yes"/>
      <point x="29" y="629"/>
      <point x="90" y="582"/>
    </contour>
    <contour>
      <point x="172" y="651" type="curve" smooth="yes"/>
      <point x="129" y="651"/>
      <point x="113" y="667"/>
      <point x="113" y="699" type="curve" smooth="yes"/>
      <point x="113" y="733"/>
      <point x="128" y="749"/>
      <point x="172" y="749" type="curve" smooth="yes"/>
      <point x="216" y="749"/>
      <point x="231" y="733"/>
      <point x="231" y="699" type="curve" smooth="yes"/>
      <point x="231" y="667"/>
      <point x="216" y="651"/>
    </contour>
  </outline>
</glyph>
<glyph name="ogonek" format="1">
  <advance width="341"/>
  <unicode hex="02DB"/>
  <outline>
    <contour>
      <point x="221" y="41" type="move" name="_ogonek"/>
    </contour>
    <contour>
      <point x="198" y="-220" type="curve" smooth="yes"/>
      <point x="230" y="-220"/>
      <point x="262" y="-217"/>
      <point x="296" y="-208" type="curve"/>
      <point x="296" y="-91" type="line"/>
      <point x="271" y="-98"/>
      <point x="221" y="-104"/>
      <point x="198" y="-104" type="curve" smooth="yes"/>
      <point x="181" y="-104"/>
      <point x="172" y="-101"/>
      <point x="172" y="-86" type="curve" smooth="yes"/>
      <point x="172" y="-70"/>
      <point x="185" y="-46"/>
      <point x="294" y="-5" type="curve"/>
      <point x="294" y="0" type="line"/>
      <point x="108" y="0" type="line"/>
      <point x="65" y="-30"/>
      <point x="34" y="-78"/>
      <point x="34" y="-121" type="curve" smooth="yes"/>
      <point x="34" y="-182"/>
      <point x="93" y="-220"/>
    </contour>
  </outline>
</glyph>
<glyph name="tilde" format="1">
  <advance width="541"/>
  <unicode hex="02DC"/>
  <outline>
    <contour>
      <point x="266" y="656" type="move" name="_top"/>
    </contour>
    <contour>
      <point x="41" y="622" type="line"/>
      <point x="78" y="652"/>
      <point x="105" y="659"/>
      <point x="136" y="659" type="curve" smooth="yes"/>
      <point x="208" y="659"/>
      <point x="278" y="618"/>
      <point x="349" y="618" type="curve" smooth="yes"/>
      <point x="406" y="618"/>
      <point x="475" y="664"/>
      <point x="525" y="760" type="curve"/>
      <point x="499" y="798" type="line"/>
      <point x="459" y="768"/>
      <point x="433" y="761"/>
      <point x="404" y="761" type="curve" smooth="yes"/>
      <point x="332" y="761"/>
      <point x="263" y="802"/>
      <point x="191" y="802" type="curve" smooth="yes"/>
      <point x="133" y="802"/>
      <point x="63" y="755"/>
      <point x="15" y="660" type="curve"/>
    </contour>
  </outline>
</glyph>
<glyph name="hungarumlaut" format="1">
  <advance width="546"/>
  <unicode hex="02DD"/>
  <outline>
    <contour>
      <point x="228" y="656" type="move" name="_top"/>
    </contour>
    <contour>
      <point x="172" y="608" type="line"/>
      <point x="302" y="808" type="line"/>
      <point x="90" y="808" type="line"/>
      <point x="28" y="618" type="line"/>
    </contour>
    <contour>
      <point x="411" y="608" type="line"/>
      <point x="541" y="808" type="line"/>
      <point x="328" y="808" type="line"/>
      <point x="267" y="618" type="line"/>
    </contour>
  </outline>
</glyph>
<glyph name="uni030F" format="1">
  <advance width="554"/>
  <unicode hex="030F"/>
  <outline>
    <contour>
      <point x="318" y="656" type="move" name="_top"/>
    </contour>
    <contour>
      <point x="279" y="618" type="line"/>
      <point x="217" y="808" type="line"/>
      <point x="4" y="808" type="line"/>
      <point x="135" y="608" type="line"/>
    </contour>
    <contour>
      <point x="518" y="618" type="line"/>
      <point x="455" y="808" type="line"/>
      <point x="243" y="808" type="line"/>
      <point x="374" y="608" type="line"/>
    </contour>
  </outline>
</glyph>
<glyph name="uni0311" format="1">
  <advance width="533"/>
  <unicode hex="0311"/>
  <outline>
    <contour>
      <point x="263" y="656" type="move" name="_top"/>
    </contour>
    <contour>
      <point x="25" y="621" type="curve"/>
      <point x="168" y="621" type="line"/>
      <point x="169" y="676"/>
      <point x="190" y="705"/>
      <point x="264" y="705" type="curve" smooth="yes"/>
      <point x="338" y="705"/>
      <point x="359" y="676"/>
      <point x="359" y="621" type="curve"/>
      <point x="503" y="621" type="line"/>
      <point x="501" y="731"/>
      <point x="442" y="809"/>
      <point x="264" y="809" type="curve" smooth="yes"/>
      <point x="85" y="809"/>
      <point x="27" y="728"/>
    </contour>
  </outline>
</glyph>
<glyph name="uni0394" format="1">
  <advance width="813"/>
  <unicode hex="0394"/>
  <outline>
    <contour>
      <point x="-15" y="0" type="line"/>
      <point x="828" y="0" type="line"/>
      <point x="539" y="740" type="line"/>
      <point x="274" y="740" type="line"/>
    </contour>
    <contour>
      <point x="257" y="172" type="line"/>
      <point x="406" y="556" type="line"/>
      <point x="556" y="172" type="line"/>
    </contour>
  </outline>
</glyph>
<glyph name="uni03A9" format="1">
  <advance width="816"/>
  <unicode hex="03A9"/>
  <outline>
    <contour>
      <point x="34" y="0" type="line"/>
      <point x="367" y="0" type="line"/>
      <point x="367" y="132" type="line"/>
      <point x="336" y="163"/>
      <point x="259" y="263"/>
      <point x="259" y="416" type="curve" smooth="yes"/>
      <point x="259" y="516"/>
      <point x="314" y="576"/>
      <point x="408" y="576" type="curve" smooth="yes"/>
      <point x="506" y="576"/>
      <point x="563" y="516"/>
      <point x="563" y="416" type="curve" smooth="yes"/>
      <point x="563" y="263"/>
      <point x="519" y="190"/>
      <point x="449" y="132" type="curve"/>
      <point x="449" y="0" type="line"/>
      <point x="782" y="0" type="line"/>
      <point x="782" y="162" type="line"/>
      <point x="595" y="146" type="line"/>
      <point x="695" y="202"/>
      <point x="771" y="308"/>
      <point x="771" y="438" type="curve" smooth="yes"/>
      <point x="771" y="626"/>
      <point x="627" y="750"/>
      <point x="408" y="750" type="curve" smooth="yes"/>
      <point x="189" y="750"/>
      <point x="45" y="626"/>
      <point x="45" y="438" type="curve" smooth="yes"/>
      <point x="45" y="309"/>
      <point x="120" y="203"/>
      <point x="220" y="147" type="curve"/>
      <point x="34" y="162" type="line"/>
    </contour>
  </outline>
</glyph>
<glyph name="pi" format="1">
  <advance width="900"/>
  <unicode hex="03C0"/>
  <outline>
    <contour>
      <point x="223" y="-117" type="line"/>
      <point x="438" y="-117" type="line"/>
      <point x="438" y="370" type="line"/>
      <point x="509" y="370" type="line"/>
      <point x="509" y="169" type="line" smooth="yes"/>
      <point x="509" y="48"/>
      <point x="581" y="-16"/>
      <point x="716" y="-16" type="curve" smooth="yes"/>
      <point x="765" y="-16"/>
      <point x="820" y="-9"/>
      <point x="850" y="0" type="curve"/>
      <point x="850" y="161" type="line"/>
      <point x="829" y="153"/>
      <point x="810" y="149"/>
      <point x="792" y="149" type="curve" smooth="yes"/>
      <point x="740" y="149"/>
      <point x="724" y="166"/>
      <point x="724" y="221" type="curve" smooth="yes"/>
      <point x="724" y="370" type="line"/>
      <point x="875" y="370" type="line"/>
      <point x="875" y="485" type="line"/>
      <point x="801" y="540" type="line"/>
      <point x="196" y="541" type="line" smooth="yes"/>
      <point x="68" y="541"/>
      <point x="0" y="478"/>
      <point x="-2" y="363" type="curve"/>
      <point x="138" y="322" type="line"/>
      <point x="142" y="357"/>
      <point x="162" y="370"/>
      <point x="205" y="370" type="curve" smooth="yes"/>
      <point x="223" y="370" type="line"/>
    </contour>
  </outline>
</glyph>
<glyph name="endash" format="1">
  <advance width="702"/>
  <unicode hex="2013"/>
  <outline>
    <contour>
      <point x="49" y="201" type="line"/>
      <point x="653" y="201" type="line"/>
      <point x="653" y="359" type="line"/>
      <point x="49" y="359" type="line"/>
    </contour>
  </outline>
</glyph>
<glyph name="emdash" format="1">
  <advance width="873"/>
  <unicode hex="2014"/>
  <outline>
    <contour>
      <point x="49" y="201" type="line"/>
      <point x="824" y="201" type="line"/>
      <point x="824" y="359" type="line"/>
      <point x="49" y="359" type="line"/>
    </contour>
  </outline>
</glyph>
<glyph name="quoteleft" format="1">
  <advance width="271"/>
  <unicode hex="2018"/>
  <outline>
    <contour>
      <point x="42" y="485" type="curve"/>
      <point x="229" y="488" type="line"/>
      <point x="210" y="531"/>
      <point x="205" y="569"/>
      <point x="205" y="617" type="curve" smooth="yes"/>
      <point x="205" y="688"/>
      <point x="219" y="762"/>
      <point x="243" y="807" type="curve"/>
      <point x="125" y="809" type="line"/>
      <point x="64" y="728"/>
      <point x="32" y="628"/>
      <point x="32" y="550" type="curve" smooth="yes"/>
      <point x="32" y="527"/>
      <point x="37" y="503"/>
    </contour>
  </outline>
</glyph>
<glyph name="quoteright" format="1">
  <advance width="267"/>
  <unicode hex="2019"/>
  <outline>
    <contour>
      <point x="44" y="806" type="line"/>
      <point x="63" y="763"/>
      <point x="68" y="725"/>
      <point x="68" y="677" type="curve" smooth="yes"/>
      <point x="68" y="606"/>
      <point x="55" y="532"/>
      <point x="30" y="487" type="curve"/>
      <point x="148" y="485" type="line"/>
      <point x="209" y="566"/>
      <point x="241" y="666"/>
      <point x="241" y="744" type="curve" smooth="yes"/>
      <point x="241" y="767"/>
      <point x="236" y="791"/>
      <point x="231" y="809" type="curve"/>
    </contour>
  </outline>
</glyph>
<glyph name="dagger" format="1">
  <advance width="644"/>
  <unicode hex="2020"/>
  <outline>
    <contour>
      <point x="269" y="65" type="line"/>
      <point x="376" y="65" type="line"/>
      <point x="414" y="265" type="line"/>
      <point x="414" y="345" type="line"/>
      <point x="376" y="484" type="line"/>
      <point x="571" y="462" type="line"/>
      <point x="618" y="462" type="line"/>
      <point x="618" y="613" type="line"/>
      <point x="571" y="613" type="line"/>
      <point x="376" y="591" type="line"/>
      <point x="414" y="729" type="line"/>
      <point x="414" y="808" type="line"/>
      <point x="230" y="808" type="line"/>
      <point x="230" y="729" type="line"/>
      <point x="269" y="591" type="line"/>
      <point x="73" y="613" type="line"/>
      <point x="26" y="613" type="line"/>
      <point x="26" y="462" type="line"/>
      <point x="73" y="462" type="line"/>
      <point x="269" y="484" type="line"/>
      <point x="230" y="345" type="line"/>
      <point x="230" y="265" type="line"/>
    </contour>
  </outline>
</glyph>
<glyph name="daggerdbl" format="1">
  <advance width="671"/>
  <unicode hex="2021"/>
  <outline>
    <contour>
      <point x="243" y="-198" type="line"/>
      <point x="427" y="-198" type="line"/>
      <point x="427" y="-119" type="line"/>
      <point x="389" y="20" type="line"/>
      <point x="582" y="-2" type="line"/>
      <point x="631" y="-2" type="line"/>
      <point x="631" y="149" type="line"/>
      <point x="582" y="149" type="line"/>
      <point x="389" y="127" type="line"/>
      <point x="427" y="266" type="line"/>
      <point x="427" y="345" type="line"/>
      <point x="389" y="484" type="line"/>
      <point x="582" y="462" type="line"/>
      <point x="631" y="462" type="line"/>
      <point x="631" y="613" type="line"/>
      <point x="582" y="613" type="line"/>
      <point x="389" y="591" type="line"/>
      <point x="427" y="729" type="line"/>
      <point x="427" y="808" type="line"/>
      <point x="243" y="808" type="line"/>
      <point x="243" y="729" type="line"/>
      <point x="282" y="591" type="line"/>
      <point x="89" y="613" type="line"/>
      <point x="39" y="613" type="line"/>
      <point x="39" y="462" type="line"/>
      <point x="89" y="462" type="line"/>
      <point x="282" y="484" type="line"/>
      <point x="243" y="345" type="line"/>
      <point x="243" y="266" type="line"/>
      <point x="282" y="127" type="line"/>
      <point x="89" y="149" type="line"/>
      <point x="39" y="149" type="line"/>
      <point x="39" y="-2" type="line"/>
      <point x="89" y="-2" type="line"/>
      <point x="282" y="20" type="line"/>
      <point x="243" y="-119" type="line"/>
    </contour>
  </outline>
</glyph>
<glyph name="bullet" format="1">
  <advance width="397"/>
  <unicode hex="2022"/>
  <outline>
    <contour>
      <point x="198" y="231" type="curve" smooth="yes"/>
      <point x="287" y="231"/>
      <point x="343" y="281"/>
      <point x="343" y="370" type="curve" smooth="yes"/>
      <point x="343" y="460"/>
      <point x="287" y="510"/>
      <point x="198" y="510" type="curve" smooth="yes"/>
      <point x="110" y="510"/>
      <point x="54" y="460"/>
      <point x="54" y="370" type="curve" smooth="yes"/>
      <point x="54" y="281"/>
      <point x="110" y="231"/>
    </contour>
  </outline>
</glyph>
<glyph name="perthousand" format="1">
  <advance width="1666"/>
  <unicode hex="2030"/>
  <outline>
    <contour>
      <point x="260" y="277" type="curve" smooth="yes"/>
      <point x="408" y="277"/>
      <point x="493" y="355"/>
      <point x="493" y="513" type="curve" smooth="yes"/>
      <point x="493" y="671"/>
      <point x="408" y="751"/>
      <point x="260" y="751" type="curve" smooth="yes"/>
      <point x="113" y="751"/>
      <point x="27" y="671"/>
      <point x="27" y="513" type="curve" smooth="yes"/>
      <point x="27" y="355"/>
      <point x="113" y="277"/>
    </contour>
    <contour>
      <point x="260" y="408" type="curve" smooth="yes"/>
      <point x="204" y="408"/>
      <point x="182" y="429"/>
      <point x="182" y="513" type="curve" smooth="yes"/>
      <point x="182" y="597"/>
      <point x="204" y="619"/>
      <point x="260" y="619" type="curve" smooth="yes"/>
      <point x="315" y="619"/>
      <point x="337" y="597"/>
      <point x="337" y="513" type="curve" smooth="yes"/>
      <point x="337" y="429"/>
      <point x="315" y="408"/>
    </contour>
    <contour>
      <point x="922" y="-10" type="curve" smooth="yes"/>
      <point x="1070" y="-10"/>
      <point x="1155" y="69"/>
      <point x="1155" y="227" type="curve" smooth="yes"/>
      <point x="1155" y="385"/>
      <point x="1070" y="464"/>
      <point x="922" y="464" type="curve" smooth="yes"/>
      <point x="775" y="464"/>
      <point x="689" y="385"/>
      <point x="689" y="227" type="curve" smooth="yes"/>
      <point x="689" y="69"/>
      <point x="775" y="-10"/>
    </contour>
    <contour>
      <point x="922" y="121" type="curve" smooth="yes"/>
      <point x="866" y="121"/>
      <point x="844" y="143"/>
      <point x="844" y="227" type="curve" smooth="yes"/>
      <point x="844" y="311"/>
      <point x="866" y="333"/>
      <point x="922" y="333" type="curve" smooth="yes"/>
      <point x="977" y="333"/>
      <point x="999" y="311"/>
      <point x="999" y="227" type="curve" smooth="yes"/>
      <point x="999" y="142"/>
      <point x="977" y="121"/>
    </contour>
    <contour>
      <point x="1406" y="-10" type="curve" smooth="yes"/>
      <point x="1558" y="-10"/>
      <point x="1640" y="72"/>
      <point x="1640" y="227" type="curve" smooth="yes"/>
      <point x="1640" y="381"/>
      <point x="1558" y="464"/>
      <point x="1406" y="464" type="curve" smooth="yes"/>
      <point x="1255" y="464"/>
      <point x="1173" y="381"/>
      <point x="1173" y="227" type="curve" smooth="yes"/>
      <point x="1173" y="72"/>
      <point x="1255" y="-10"/>
    </contour>
    <contour>
      <point x="1406" y="121" type="curve" smooth="yes"/>
      <point x="1347" y="121"/>
      <point x="1329" y="147"/>
      <point x="1329" y="227" type="curve" smooth="yes"/>
      <point x="1329" y="307"/>
      <point x="1347" y="333"/>
      <point x="1406" y="333" type="curve" smooth="yes"/>
      <point x="1465" y="333"/>
      <point x="1484" y="306"/>
      <point x="1484" y="227" type="curve" smooth="yes"/>
      <point x="1484" y="147"/>
      <point x="1465" y="121"/>
    </contour>
    <contour>
      <point x="325" y="0" type="line"/>
      <point x="510" y="0" type="line"/>
      <point x="855" y="740" type="line"/>
      <point x="670" y="740" type="line"/>
    </contour>
  </outline>
</glyph>
<glyph name="guilsinglleft" format="1">
  <advance width="450"/>
  <unicode hex="2039"/>
  <outline>
    <contour>
      <point x="204" y="30" type="line"/>
      <point x="424" y="30" type="line"/>
      <point x="244" y="268" type="line"/>
      <point x="244" y="272" type="line"/>
      <point x="424" y="510" type="line"/>
      <point x="204" y="510" type="line"/>
      <point x="24" y="272" type="line"/>
      <point x="24" y="268" type="line"/>
    </contour>
  </outline>
</glyph>
<glyph name="guilsinglright" format="1">
  <advance width="450"/>
  <unicode hex="203A"/>
  <outline>
    <contour>
      <point x="426" y="268" type="line"/>
      <point x="426" y="272" type="line"/>
      <point x="247" y="510" type="line"/>
      <point x="27" y="510" type="line"/>
      <point x="206" y="272" type="line"/>
      <point x="206" y="268" type="line"/>
      <point x="27" y="30" type="line"/>
      <point x="247" y="30" type="line"/>
    </contour>
  </outline>
</glyph>
<glyph name="fraction" format="1">
  <advance width="344"/>
  <unicode hex="2044"/>
  <outline>
    <contour>
      <point x="-94" y="0" type="line"/>
      <point x="92" y="0" type="line"/>
      <point x="437" y="740" type="line"/>
      <point x="251" y="740" type="line"/>
    </contour>
  </outline>
</glyph>
<glyph name="zerosuperior" format="1">
  <advance width="602"/>
  <unicode hex="2070"/>
  <outline>
    <contour>
      <point x="301" y="294" type="curve"/>
      <point x="476" y="294"/>
      <point x="577" y="387"/>
      <point x="577" y="573" type="curve" smooth="yes"/>
      <point x="577" y="760"/>
      <point x="476" y="853"/>
      <point x="301" y="853" type="curve" smooth="yes"/>
      <point x="127" y="853"/>
      <point x="26" y="760"/>
      <point x="26" y="573" type="curve" smooth="yes"/>
      <point x="26" y="387"/>
      <point x="127" y="294"/>
    </contour>
    <contour>
      <point x="301" y="448" type="curve" smooth="yes"/>
      <point x="235" y="448"/>
      <point x="209" y="473"/>
      <point x="209" y="573" type="curve" smooth="yes"/>
      <point x="209" y="673"/>
      <point x="235" y="700"/>
      <point x="301" y="700" type="curve" smooth="yes"/>
      <point x="366" y="700"/>
      <point x="393" y="674"/>
      <point x="393" y="573" type="curve" smooth="yes"/>
      <point x="393" y="473"/>
      <point x="366" y="448"/>
    </contour>
  </outline>
</glyph>
<glyph name="foursuperior" format="1">
  <advance width="559"/>
  <unicode hex="2074"/>
  <outline>
    <contour>
      <point x="274" y="300" type="line"/>
      <point x="458" y="300" type="line"/>
      <point x="458" y="390" type="line"/>
      <point x="544" y="390" type="line"/>
      <point x="544" y="527" type="line"/>
      <point x="458" y="527" type="line"/>
      <point x="458" y="645" type="line"/>
      <point x="332" y="645" type="line"/>
      <point x="286" y="527" type="line"/>
      <point x="194" y="527" type="line"/>
      <point x="397" y="807" type="line"/>
      <point x="381" y="839" type="line"/>
      <point x="220" y="850" type="line"/>
      <point x="203" y="843" type="line"/>
      <point x="7" y="505" type="line"/>
      <point x="25" y="390" type="line"/>
      <point x="274" y="390" type="line"/>
    </contour>
  </outline>
</glyph>
<glyph name="fivesuperior" format="1">
  <advance width="497"/>
  <unicode hex="2075"/>
  <outline>
    <contour>
      <point x="198" y="292" type="curve" smooth="yes"/>
      <point x="337" y="292"/>
      <point x="477" y="332"/>
      <point x="477" y="474" type="curve" smooth="yes"/>
      <point x="477" y="601"/>
      <point x="402" y="644"/>
      <point x="194" y="645" type="curve"/>
      <point x="198" y="698" type="line"/>
      <point x="439" y="698" type="line"/>
      <point x="439" y="846" type="line"/>
      <point x="63" y="846" type="line"/>
      <point x="37" y="540" type="line"/>
      <point x="59" y="522" type="line"/>
      <point x="154" y="522" type="line" smooth="yes"/>
      <point x="254" y="522"/>
      <point x="285" y="514"/>
      <point x="285" y="477" type="curve" smooth="yes"/>
      <point x="285" y="447"/>
      <point x="249" y="439"/>
      <point x="174" y="439" type="curve" smooth="yes"/>
      <point x="141" y="439"/>
      <point x="109" y="442"/>
      <point x="71" y="448" type="curve"/>
      <point x="32" y="448" type="line"/>
      <point x="32" y="303" type="line"/>
      <point x="92" y="297"/>
      <point x="147" y="292"/>
    </contour>
  </outline>
</glyph>
<glyph name="sixsuperior" format="1">
  <advance width="570"/>
  <unicode hex="2076"/>
  <outline>
    <contour>
      <point x="289" y="294" type="curve" smooth="yes"/>
      <point x="451" y="294"/>
      <point x="549" y="369"/>
      <point x="549" y="491" type="curve" smooth="yes"/>
      <point x="549" y="594"/>
      <point x="463" y="660"/>
      <point x="341" y="660" type="curve" smooth="yes"/>
      <point x="291" y="660"/>
      <point x="243" y="648"/>
      <point x="209" y="623" type="curve"/>
      <point x="230" y="689"/>
      <point x="278" y="712"/>
      <point x="376" y="712" type="curve" smooth="yes"/>
      <point x="407" y="712"/>
      <point x="441" y="708"/>
      <point x="488" y="702" type="curve"/>
      <point x="515" y="838" type="line"/>
      <point x="459" y="848"/>
      <point x="411" y="853"/>
      <point x="370" y="853" type="curve" smooth="yes"/>
      <point x="141" y="853"/>
      <point x="25" y="751"/>
      <point x="25" y="550" type="curve" smooth="yes"/>
      <point x="25" y="383"/>
      <point x="121" y="294"/>
    </contour>
    <contour>
      <point x="289" y="435" type="curve" smooth="yes"/>
      <point x="238" y="435"/>
      <point x="214" y="460"/>
      <point x="207" y="520" type="curve"/>
      <point x="226" y="531"/>
      <point x="258" y="539"/>
      <point x="289" y="539" type="curve" smooth="yes"/>
      <point x="342" y="539"/>
      <point x="364" y="524"/>
      <point x="364" y="487" type="curve" smooth="yes"/>
      <point x="364" y="451"/>
      <point x="341" y="435"/>
    </contour>
  </outline>
</glyph>
<glyph name="sevensuperior" format="1">
  <advance width="453"/>
  <unicode hex="2077"/>
  <outline>
    <contour>
      <point x="206" y="283" type="line"/>
      <point x="86" y="298" type="line"/>
      <point x="69" y="335" type="line"/>
      <point x="289" y="762" type="line"/>
      <point x="315" y="698" type="line"/>
      <point x="16" y="698" type="line"/>
      <point x="16" y="819" type="line"/>
      <point x="39" y="840" type="line"/>
      <point x="424" y="840" type="line"/>
      <point x="449" y="763" type="line"/>
      <point x="449" y="740" type="line"/>
      <point x="244" y="300" type="line"/>
    </contour>
  </outline>
</glyph>
<glyph name="eightsuperior" format="1">
  <advance width="568"/>
  <unicode hex="2078"/>
  <outline>
    <contour>
      <point x="289" y="295" type="curve" smooth="yes"/>
      <point x="461" y="295"/>
      <point x="542" y="351"/>
      <point x="542" y="466" type="curve" smooth="yes"/>
      <point x="542" y="522"/>
      <point x="521" y="564"/>
      <point x="477" y="593" type="curve"/>
      <point x="514" y="617"/>
      <point x="528" y="647"/>
      <point x="528" y="695" type="curve" smooth="yes"/>
      <point x="528" y="792"/>
      <point x="436" y="853"/>
      <point x="289" y="853" type="curve" smooth="yes"/>
      <point x="133" y="853"/>
      <point x="38" y="793"/>
      <point x="38" y="695" type="curve" smooth="yes"/>
      <point x="38" y="644"/>
      <point x="60" y="602"/>
      <point x="99" y="576" type="curve"/>
      <point x="49" y="545"/>
      <point x="25" y="504"/>
      <point x="25" y="447" type="curve" smooth="yes"/>
      <point x="25" y="347"/>
      <point x="114" y="295"/>
    </contour>
    <contour>
      <point x="289" y="420" type="curve" smooth="yes"/>
      <point x="238" y="420"/>
      <point x="206" y="440"/>
      <point x="206" y="472" type="curve" smooth="yes"/>
      <point x="206" y="489"/>
      <point x="218" y="509"/>
      <point x="243" y="529" type="curve"/>
      <point x="258" y="525" type="line" smooth="yes"/>
      <point x="334" y="506"/>
      <point x="362" y="491"/>
      <point x="362" y="470" type="curve" smooth="yes"/>
      <point x="362" y="435"/>
      <point x="340" y="420"/>
    </contour>
    <contour>
      <point x="316" y="630" type="curve"/>
      <point x="299" y="633" type="line" smooth="yes"/>
      <point x="243" y="644"/>
      <point x="217" y="660"/>
      <point x="217" y="688" type="curve" smooth="yes"/>
      <point x="217" y="712"/>
      <point x="244" y="727"/>
      <point x="289" y="727" type="curve" smooth="yes"/>
      <point x="325" y="727"/>
      <point x="349" y="712"/>
      <point x="349" y="686" type="curve" smooth="yes"/>
      <point x="349" y="666"/>
      <point x="335" y="642"/>
    </contour>
  </outline>
</glyph>
<glyph name="ninesuperior" format="1">
  <advance width="570"/>
  <unicode hex="2079"/>
  <outline>
    <contour>
      <point x="200" y="294" type="curve" smooth="yes"/>
      <point x="428" y="294"/>
      <point x="544" y="396"/>
      <point x="544" y="597" type="curve" smooth="yes"/>
      <point x="544" y="762"/>
      <point x="451" y="853"/>
      <point x="281" y="853" type="curve" smooth="yes"/>
      <point x="119" y="853"/>
      <point x="21" y="778"/>
      <point x="21" y="656" type="curve" smooth="yes"/>
      <point x="21" y="555"/>
      <point x="104" y="487"/>
      <point x="228" y="487" type="curve" smooth="yes"/>
      <point x="280" y="487"/>
      <point x="328" y="500"/>
      <point x="361" y="524" type="curve"/>
      <point x="339" y="459"/>
      <point x="293" y="435"/>
      <point x="193" y="435" type="curve" smooth="yes"/>
      <point x="169" y="435"/>
      <point x="145" y="437"/>
      <point x="82" y="445" type="curve"/>
      <point x="55" y="309" type="line"/>
      <point x="112" y="299"/>
      <point x="159" y="294"/>
    </contour>
    <contour>
      <point x="281" y="608" type="curve" smooth="yes"/>
      <point x="228" y="608"/>
      <point x="206" y="623"/>
      <point x="206" y="660" type="curve" smooth="yes"/>
      <point x="206" y="696"/>
      <point x="229" y="713"/>
      <point x="281" y="713" type="curve" smooth="yes"/>
      <point x="331" y="713"/>
      <point x="356" y="688"/>
      <point x="362" y="627" type="curve"/>
      <point x="342" y="616"/>
      <point x="310" y="608"/>
    </contour>
  </outline>
</glyph>
<glyph name="zeroinferior" format="1">
  <advance width="602"/>
  <unicode hex="2080"/>
  <outline>
    <contour>
      <point x="301" y="-106" type="curve"/>
      <point x="476" y="-106"/>
      <point x="577" y="-14"/>
      <point x="577" y="173" type="curve" smooth="yes"/>
      <point x="577" y="360"/>
      <point x="476" y="453"/>
      <point x="301" y="453" type="curve" smooth="yes"/>
      <point x="127" y="453"/>
      <point x="26" y="360"/>
      <point x="26" y="173" type="curve" smooth="yes"/>
      <point x="26" y="-14"/>
      <point x="127" y="-106"/>
    </contour>
    <contour>
      <point x="301" y="48" type="curve" smooth="yes"/>
      <point x="235" y="48"/>
      <point x="209" y="73"/>
      <point x="209" y="173" type="curve" smooth="yes"/>
      <point x="209" y="273"/>
      <point x="235" y="300"/>
      <point x="301" y="300" type="curve" smooth="yes"/>
      <point x="366" y="300"/>
      <point x="393" y="274"/>
      <point x="393" y="173" type="curve" smooth="yes"/>
      <point x="393" y="73"/>
      <point x="366" y="48"/>
    </contour>
  </outline>
</glyph>
<glyph name="oneinferior" format="1">
  <advance width="410"/>
  <unicode hex="2081"/>
  <outline>
    <contour>
      <point x="165" y="-100" type="line"/>
      <point x="349" y="-100" type="line"/>
      <point x="349" y="446" type="line"/>
      <point x="214" y="446" type="line"/>
      <point x="7" y="354" type="line"/>
      <point x="6" y="333" type="line"/>
      <point x="28" y="239" type="line"/>
      <point x="36" y="239" type="line"/>
      <point x="165" y="260" type="line"/>
    </contour>
  </outline>
</glyph>
<glyph name="twoinferior" format="1">
  <advance width="526"/>
  <unicode hex="2082"/>
  <outline>
    <contour>
      <point x="25" y="-100" type="line"/>
      <point x="492" y="-100" type="line"/>
      <point x="492" y="49" type="line"/>
      <point x="261" y="49" type="line"/>
      <point x="261" y="54" type="line" smooth="yes"/>
      <point x="261" y="61"/>
      <point x="281" y="74"/>
      <point x="336" y="98" type="curve" smooth="yes"/>
      <point x="438" y="136"/>
      <point x="493" y="198"/>
      <point x="493" y="281" type="curve" smooth="yes"/>
      <point x="493" y="398"/>
      <point x="415" y="453"/>
      <point x="252" y="453" type="curve" smooth="yes"/>
      <point x="195" y="453"/>
      <point x="130" y="447"/>
      <point x="40" y="432" type="curve"/>
      <point x="55" y="284" type="line"/>
      <point x="124" y="294"/>
      <point x="173" y="300"/>
      <point x="213" y="300" type="curve" smooth="yes"/>
      <point x="277" y="300"/>
      <point x="309" y="288"/>
      <point x="309" y="264" type="curve" smooth="yes"/>
      <point x="309" y="245"/>
      <point x="297" y="235"/>
      <point x="213" y="205" type="curve" smooth="yes"/>
      <point x="82" y="154"/>
      <point x="25" y="90"/>
      <point x="25" y="-9" type="curve" smooth="yes"/>
    </contour>
  </outline>
</glyph>
<glyph name="threeinferior" format="1">
  <advance width="498"/>
  <unicode hex="2083"/>
  <outline>
    <contour>
      <point x="225" y="-109" type="curve" smooth="yes"/>
      <point x="384" y="-109"/>
      <point x="471" y="-51"/>
      <point x="471" y="54" type="curve" smooth="yes"/>
      <point x="471" y="114"/>
      <point x="442" y="159"/>
      <point x="390" y="183" type="curve"/>
      <point x="437" y="205"/>
      <point x="463" y="246"/>
      <point x="463" y="299" type="curve" smooth="yes"/>
      <point x="463" y="403"/>
      <point x="379" y="453"/>
      <point x="207" y="453" type="curve" smooth="yes"/>
      <point x="160" y="453"/>
      <point x="74" y="447"/>
      <point x="35" y="440" type="curve"/>
      <point x="35" y="288" type="line"/>
      <point x="39" y="288" type="line"/>
      <point x="90" y="295"/>
      <point x="147" y="300"/>
      <point x="179" y="300" type="curve" smooth="yes"/>
      <point x="256" y="300"/>
      <point x="275" y="293"/>
      <point x="275" y="268" type="curve" smooth="yes"/>
      <point x="275" y="242"/>
      <point x="250" y="234"/>
      <point x="164" y="234" type="curve" smooth="yes"/>
      <point x="107" y="234" type="line"/>
      <point x="107" y="116" type="line"/>
      <point x="164" y="116" type="line" smooth="yes"/>
      <point x="265" y="116"/>
      <point x="290" y="109"/>
      <point x="290" y="80" type="curve" smooth="yes"/>
      <point x="290" y="54"/>
      <point x="272" y="48"/>
      <point x="178" y="48" type="curve" smooth="yes"/>
      <point x="139" y="48"/>
      <point x="69" y="53"/>
      <point x="39" y="60" type="curve"/>
      <point x="35" y="60" type="line"/>
      <point x="35" y="-96" type="line"/>
      <point x="68" y="-103"/>
      <point x="150" y="-109"/>
    </contour>
  </outline>
</glyph>
<glyph name="fourinferior" format="1">
  <advance width="559"/>
  <unicode hex="2084"/>
  <outline>
    <contour>
      <point x="274" y="-100" type="line"/>
      <point x="458" y="-100" type="line"/>
      <point x="458" y="-11" type="line"/>
      <point x="544" y="-11" type="line"/>
      <point x="544" y="127" type="line"/>
      <point x="458" y="127" type="line"/>
      <point x="458" y="245" type="line"/>
      <point x="332" y="245" type="line"/>
      <point x="286" y="127" type="line"/>
      <point x="194" y="127" type="line"/>
      <point x="397" y="407" type="line"/>
      <point x="381" y="439" type="line"/>
      <point x="220" y="450" type="line"/>
      <point x="203" y="443" type="line"/>
      <point x="7" y="105" type="line"/>
      <point x="25" y="-11" type="line"/>
      <point x="274" y="-11" type="line"/>
    </contour>
  </outline>
</glyph>
<glyph name="fiveinferior" format="1">
  <advance width="497"/>
  <unicode hex="2085"/>
  <outline>
    <contour>
      <point x="198" y="-109" type="curve" smooth="yes"/>
      <point x="337" y="-109"/>
      <point x="477" y="-68"/>
      <point x="477" y="74" type="curve" smooth="yes"/>
      <point x="477" y="201"/>
      <point x="402" y="244"/>
      <point x="194" y="245" type="curve"/>
      <point x="198" y="298" type="line"/>
      <point x="439" y="298" type="line"/>
      <point x="439" y="446" type="line"/>
      <point x="63" y="446" type="line"/>
      <point x="37" y="140" type="line"/>
      <point x="59" y="122" type="line"/>
      <point x="154" y="122" type="line" smooth="yes"/>
      <point x="254" y="122"/>
      <point x="285" y="114"/>
      <point x="285" y="77" type="curve" smooth="yes"/>
      <point x="285" y="47"/>
      <point x="249" y="39"/>
      <point x="174" y="39" type="curve" smooth="yes"/>
      <point x="141" y="39"/>
      <point x="109" y="42"/>
      <point x="71" y="48" type="curve"/>
      <point x="32" y="48" type="line"/>
      <point x="32" y="-97" type="line"/>
      <point x="92" y="-103"/>
      <point x="147" y="-109"/>
    </contour>
  </outline>
</glyph>
<glyph name="sixinferior" format="1">
  <advance width="570"/>
  <unicode hex="2086"/>
  <outline>
    <contour>
      <point x="289" y="-106" type="curve" smooth="yes"/>
      <point x="451" y="-106"/>
      <point x="549" y="-31"/>
      <point x="549" y="91" type="curve" smooth="yes"/>
      <point x="549" y="194"/>
      <point x="463" y="260"/>
      <point x="341" y="260" type="curve" smooth="yes"/>
      <point x="291" y="260"/>
      <point x="243" y="248"/>
      <point x="209" y="223" type="curve"/>
      <point x="230" y="289"/>
      <point x="278" y="312"/>
      <point x="376" y="312" type="curve" smooth="yes"/>
      <point x="407" y="312"/>
      <point x="441" y="308"/>
      <point x="488" y="302" type="curve"/>
      <point x="515" y="438" type="line"/>
      <point x="459" y="448"/>
      <point x="411" y="453"/>
      <point x="370" y="453" type="curve" smooth="yes"/>
      <point x="141" y="453"/>
      <point x="25" y="351"/>
      <point x="25" y="150" type="curve" smooth="yes"/>
      <point x="25" y="-17"/>
      <point x="121" y="-106"/>
    </contour>
    <contour>
      <point x="289" y="35" type="curve" smooth="yes"/>
      <point x="238" y="35"/>
      <point x="214" y="60"/>
      <point x="207" y="120" type="curve"/>
      <point x="226" y="131"/>
      <point x="258" y="139"/>
      <point x="289" y="139" type="curve" smooth="yes"/>
      <point x="342" y="139"/>
      <point x="364" y="124"/>
      <point x="364" y="87" type="curve" smooth="yes"/>
      <point x="364" y="51"/>
      <point x="341" y="35"/>
    </contour>
  </outline>
</glyph>
